<?xml version="1.0" standalone="no"?>
<svg version="1.1" id="Layer_1" xmlns="http://www.w3.org/2000/svg" xmlns:xlink="http://www.w3.org/1999/xlink" x="0px" y="0px" width="600px" height="600px" viewBox="-2.36 120.945 600 600" enable-background="new -2.36 120.945 600 600" xml:space="preserve">
<path id="color_x5F_5" fill="#FFD2BB" d="M262.753,610.006l0.903,2.571l-1.614,0.402L262.753,610.006z M258.866,613.702
	l0.186-11.709l0.012,0.018c-0.01-0.583,0.087-1.168,0.271-1.735l-1.318-3.748l1.653-8.506h-9.729l0.153,9.308l-1.298,1.747
	l0.39,8.562L258.866,613.702z M330.865,408.214c-0.009-0.009-0.013-0.017-0.021-0.026c1.52-2.735,2.497-5.719,2.901-8.789
	c0.774-2.016,0.819-4.401,0.401-6.653c-0.249-1.342-0.662-2.636-1.186-3.775c-0.215-0.468-0.964-0.247-0.901,0.209
	c0.281,2.022,0.49,4.064,0.328,6.079c-0.003,0.036-0.009,0.072-0.012,0.108c-0.113-0.077-0.226-0.154-0.339-0.224
	c0.283-2.676-0.33-5.597-1.383-7.889c-0.216-0.468-0.965-0.247-0.901,0.209c0.281,2.022,0.49,4.064,0.328,6.079
	c-0.021,0.25-0.051,0.499-0.088,0.746c-0.004-0.001-0.008-0.002-0.014-0.003c0.048-2.366-0.532-4.829-1.446-6.819
	c-0.215-0.468-0.964-0.247-0.901,0.209c0.281,2.022,0.49,4.064,0.328,6.079c-0.009,0.11-0.025,0.219-0.037,0.328
	c-0.112,0.002-0.225,0.005-0.34,0.011c-0.075-2.127-0.625-4.283-1.442-6.061c-0.215-0.468-0.964-0.247-0.9,0.209
	c0.28,2.022,0.489,4.064,0.328,6.079c-0.952,1.508-1.551,3.08-1.813,4.685c-0.317,1.94-0.112,3.934,0.652,5.938
	c-6.571,3.588-11.531,5.927-16.845,8.012c1.74,3.069,3.131,6.313,4.641,9.498C318.982,417.587,325.539,413.029,330.865,408.214z
	 M264.154,594.038l-1.385,1.602l0,0l-0.103,8.837l9.31,7.707l4.73-0.511l-4.666-17.289l2.258-9.022l-9.725-1.855L264.154,594.038z
	 M259.966,371.606l1.324,0.14l0.473-7.027l0,0l0.367-5.444c0.641,0.09,1.29,0.152,1.955,0.152h3.569c3.378,0,7.94-4.518,7.94-10.107
	l2.181-24.198c-2.497,5.024-6.88,9.279-11.629,12.502c-4.156,2.82-8.734,4.703-13.492,5.688l-2.607,2.076
	c0,1.026,0.116,2.023,0.325,2.986l-0.126-0.013l-0.678,10.066c2.795,2.375,6.001,4.292,9.413,5.634
	C259.309,366.576,259.638,369.092,259.966,371.606z M263.586,441.125c2.021,0.062,4.026,0.493,6.006,0.996
	c0.446,0.113,0.748-0.607,0.307-0.873c-1.677-1.008-3.76-1.792-5.865-2.101c0.019-0.114,0.034-0.227,0.049-0.337
	c0.109,0,0.22-0.004,0.33-0.001c2.021,0.061,4.026,0.492,6.006,0.995c0.445,0.113,0.748-0.607,0.307-0.872
	c-1.877-1.128-4.261-1.977-6.618-2.19c-0.001-0.004-0.001-0.009-0.001-0.013c0.25-0.01,0.5-0.014,0.751-0.005
	c2.021,0.061,4.027,0.492,6.006,0.995c0.445,0.113,0.748-0.606,0.308-0.872c-2.162-1.3-4.998-2.231-7.688-2.245
	c-0.057-0.12-0.12-0.241-0.185-0.361c0.036,0.001,0.072-0.001,0.108,0c2.021,0.061,4.027,0.493,6.007,0.996
	c0.445,0.113,0.748-0.608,0.307-0.873c-2.877-1.729-6.946-2.803-10.279-1.929c-2.621,0.054-5.219,0.547-7.708,1.422
	c-3.433-1.544-6.37-2.96-9.066-4.37c-2.462-1.287-4.729-2.571-6.995-3.95c-1.389,3.244-3.128,6.315-4.748,9.445
	c3.076,0.943,6.096,1.888,9.051,2.769c4.438,1.324,8.727,2.494,12.838,3.306C256.324,442.899,260.015,442.862,263.586,441.125z"></path>
<path id="color_x5F_4" fill="#00CEC9" d="M491.596,625.61c0,1.771-1.435,3.204-3.204,3.204H83.071c-1.77,0-3.204-1.435-3.204-3.204
	c0-1.769,1.436-3.204,3.204-3.204h35.446h5.314h3.146h1.956h2.88h0.884h2.839h6.153h2.746h4.924h2.837h3.856h2.992h4.797h2.951
	h7.578h71.74l0.014,0.319h1.67l0.058-0.319h13.01l0.326,0.319h10.38l-0.417-0.319h7.18l5.623,0.836l-0.851-0.836h118.363h3.74h2.227
	h1.44h2.039h0.646h2.009h4.404h1.943h3.547h2.008h2.784h2.12h3.376h2.089h5.469h47.081
	C490.161,622.406,491.596,623.841,491.596,625.61z M325.24,388.239c-0.063-0.455,0.686-0.676,0.9-0.209
	c0.817,1.778,1.367,3.934,1.442,6.061c0.115-0.005,0.228-0.009,0.34-0.011c0.012-0.109,0.028-0.218,0.037-0.328
	c0.162-2.016-0.047-4.057-0.328-6.079c-0.063-0.455,0.686-0.676,0.901-0.209c0.914,1.99,1.493,4.453,1.446,6.819
	c0.004,0.001,0.009,0.002,0.014,0.003c0.037-0.247,0.067-0.495,0.088-0.746c0.162-2.016-0.047-4.057-0.328-6.079
	c-0.063-0.455,0.686-0.676,0.901-0.209c1.053,2.292,1.667,5.213,1.383,7.889c0.112,0.07,0.226,0.146,0.339,0.224
	c0.003-0.036,0.009-0.072,0.012-0.108c0.162-2.016-0.047-4.057-0.328-6.079c-0.063-0.455,0.687-0.676,0.901-0.209
	c0.522,1.139,0.937,2.433,1.186,3.775l5.082-16.206c0.009-0.026,0.002-0.045,0.009-0.07c0.128-0.527-0.174-0.887-0.719-0.806
	l-9.714,1.329c-0.522-0.063-1.093,0.348-1.271,0.918l-6.411,20.444c-0.122,0.389,0,0.681,0.263,0.809
	c0.047,0.022,0.097,0.04,0.154,0.051c0.021,0.004,0.047,0.002,0.069,0.004c0.073,0.007,0.14,0.025,0.224,0.012l1.923-0.226
	c0.263-1.606,0.861-3.177,1.813-4.685C325.73,392.303,325.522,390.262,325.24,388.239z"></path>
<path id="color_x5F_3" fill="#E84393" d="M399.678,452.228c-0.179-0.103-0.242-0.328-0.142-0.506
	c0.488-0.863,0.966-1.732,1.435-2.608c0.097-0.181,0.321-0.248,0.503-0.153c0.181,0.097,0.25,0.321,0.152,0.503
	c-0.47,0.882-0.95,1.757-1.441,2.624c-0.069,0.121-0.194,0.189-0.324,0.189C399.798,452.275,399.736,452.26,399.678,452.228z
	 M395.571,459.267c0.12,0,0.238-0.06,0.31-0.166c0.552-0.832,1.093-1.671,1.621-2.517c0.109-0.174,0.057-0.402-0.116-0.512
	c-0.174-0.109-0.403-0.057-0.513,0.118c-0.526,0.841-1.063,1.674-1.61,2.5c-0.113,0.171-0.066,0.402,0.104,0.515
	C395.429,459.246,395.499,459.267,395.571,459.267z M367.74,488.774c0.799-0.593,1.592-1.196,2.375-1.809
	c0.162-0.126,0.191-0.36,0.063-0.521c-0.127-0.164-0.36-0.19-0.521-0.063c-0.779,0.608-1.566,1.208-2.361,1.798
	c-0.165,0.122-0.2,0.354-0.077,0.519c0.073,0.099,0.186,0.15,0.299,0.15C367.596,488.848,367.673,488.823,367.74,488.774z
	 M374.162,483.655c0.757-0.647,1.505-1.305,2.245-1.97c0.153-0.137,0.165-0.372,0.028-0.525c-0.139-0.153-0.374-0.166-0.525-0.027
	c-0.736,0.662-1.479,1.314-2.232,1.959c-0.155,0.133-0.174,0.368-0.04,0.523c0.072,0.086,0.178,0.13,0.281,0.13
	C374.006,483.744,374.092,483.716,374.162,483.655z M385.871,472.139c0.661-0.747,1.313-1.501,1.953-2.266
	c0.132-0.156,0.112-0.391-0.046-0.522c-0.157-0.132-0.391-0.111-0.523,0.046c-0.637,0.758-1.282,1.508-1.939,2.25
	c-0.136,0.153-0.122,0.388,0.032,0.523c0.069,0.063,0.157,0.095,0.246,0.095C385.696,472.264,385.797,472.222,385.871,472.139z
	 M380.216,478.101c0.71-0.699,1.412-1.407,2.104-2.123c0.143-0.148,0.139-0.383-0.009-0.525c-0.148-0.142-0.384-0.139-0.525,0.01
	c-0.688,0.712-1.385,1.415-2.091,2.109c-0.147,0.145-0.148,0.379-0.004,0.525c0.073,0.074,0.169,0.11,0.265,0.11
	C380.049,478.207,380.145,478.173,380.216,478.101z M238.769,496.154c0.059,0.034,0.123,0.05,0.186,0.05
	c0.128,0,0.253-0.066,0.322-0.186c0.104-0.177,0.042-0.405-0.135-0.507c-0.859-0.497-1.711-1.005-2.558-1.523
	c-0.175-0.106-0.403-0.052-0.511,0.123c-0.106,0.175-0.052,0.403,0.123,0.511C237.048,495.145,237.905,495.654,238.769,496.154z
	 M391.102,465.794c0.606-0.792,1.204-1.59,1.792-2.396c0.12-0.165,0.084-0.398-0.082-0.52c-0.165-0.119-0.398-0.084-0.52,0.082
	c-0.583,0.802-1.177,1.596-1.779,2.381c-0.125,0.162-0.095,0.396,0.067,0.521c0.067,0.052,0.147,0.077,0.227,0.077
	C390.918,465.939,391.029,465.89,391.102,465.794z M413.819,377.207c-0.203,0.029-0.345,0.217-0.315,0.42
	c0.138,0.978,0.264,1.96,0.378,2.946c0.021,0.189,0.183,0.329,0.368,0.329c0.016,0,0.029-0.001,0.044-0.003
	c0.204-0.024,0.351-0.208,0.326-0.412c-0.114-0.992-0.242-1.98-0.381-2.964C414.211,377.319,414.025,377.175,413.819,377.207z
	 M403.651,444.997c0.139,0,0.271-0.078,0.335-0.211c0.43-0.901,0.849-1.808,1.257-2.721c0.083-0.188-0.001-0.407-0.188-0.491
	c-0.188-0.082-0.407,0.001-0.491,0.188c-0.405,0.908-0.821,1.81-1.248,2.704c-0.089,0.187-0.01,0.407,0.175,0.495
	C403.542,444.986,403.597,444.997,403.651,444.997z M413.394,413.788c0.021,0.004,0.041,0.005,0.062,0.005
	c0.179,0,0.335-0.129,0.366-0.311c0.163-0.982,0.313-1.968,0.451-2.956c0.028-0.204-0.113-0.392-0.316-0.419
	c-0.196-0.023-0.392,0.112-0.419,0.315c-0.137,0.983-0.286,1.962-0.447,2.938C413.055,413.563,413.191,413.754,413.394,413.788z
	 M414.379,402.303c-0.068,0.99-0.148,1.978-0.242,2.96c-0.02,0.204,0.131,0.386,0.335,0.405c0.012,0.001,0.022,0.002,0.036,0.002
	c0.188,0,0.351-0.144,0.369-0.336c0.094-0.99,0.175-1.983,0.242-2.98c0.015-0.205-0.141-0.382-0.345-0.396
	C414.57,401.948,414.393,402.098,414.379,402.303z M414.707,385.35c-0.204,0.014-0.358,0.192-0.345,0.397
	c0.07,0.985,0.128,1.973,0.173,2.965c0.01,0.199,0.173,0.355,0.371,0.355c0.005,0,0.011,0,0.018,0
	c0.205-0.009,0.362-0.183,0.354-0.388c-0.045-0.998-0.103-1.993-0.173-2.985C415.089,385.488,414.898,385.332,414.707,385.35z
	 M415.365,397.13c0.025-0.993,0.037-1.989,0.037-2.988v-0.233c0-0.205-0.166-0.371-0.371-0.371s-0.371,0.166-0.371,0.371v0.233
	c0,0.993-0.012,1.983-0.037,2.971c-0.005,0.204,0.157,0.376,0.362,0.381c0.004,0,0.007,0,0.009,0
	C415.195,397.492,415.36,397.332,415.365,397.13z M406.924,437.466c0.147,0,0.287-0.089,0.345-0.234
	c0.366-0.931,0.72-1.865,1.062-2.806c0.07-0.192-0.028-0.405-0.222-0.476c-0.194-0.069-0.406,0.03-0.476,0.222
	c-0.341,0.935-0.691,1.863-1.056,2.786c-0.075,0.191,0.019,0.407,0.209,0.482C406.831,437.458,406.877,437.466,406.924,437.466z
	 M409.659,429.72c0.158,0,0.306-0.102,0.354-0.26c0.299-0.95,0.585-1.904,0.858-2.863c0.058-0.196-0.057-0.402-0.255-0.459
	c-0.2-0.061-0.402,0.058-0.459,0.255c-0.272,0.953-0.557,1.901-0.853,2.846c-0.063,0.195,0.047,0.404,0.243,0.465
	C409.586,429.715,409.622,429.72,409.659,429.72z M412.364,369.146c-0.2,0.042-0.329,0.24-0.286,0.441
	c0.206,0.966,0.401,1.937,0.584,2.913c0.033,0.178,0.189,0.303,0.364,0.303c0.023,0,0.046-0.002,0.069-0.007
	c0.202-0.038,0.334-0.232,0.297-0.433c-0.185-0.981-0.379-1.958-0.587-2.931C412.762,369.23,412.567,369.101,412.364,369.146z
	 M365.633,298.806c0.116,0,0.23-0.054,0.303-0.156c0.118-0.167,0.08-0.399-0.088-0.518c-0.813-0.578-1.632-1.146-2.46-1.704
	c-0.17-0.113-0.399-0.07-0.516,0.1c-0.115,0.17-0.07,0.401,0.101,0.515c0.822,0.554,1.638,1.119,2.444,1.693
	C365.483,298.783,365.559,298.806,365.633,298.806z M323.185,509.116c0.026,0,0.055-0.003,0.081-0.009
	c0.975-0.216,1.944-0.444,2.91-0.685c0.199-0.049,0.32-0.251,0.271-0.451c-0.051-0.2-0.251-0.32-0.451-0.271
	c-0.958,0.238-1.923,0.466-2.892,0.681c-0.199,0.044-0.325,0.243-0.281,0.442C322.86,509,323.014,509.116,323.185,509.116z
	 M307.02,511.536c0.997-0.078,1.989-0.169,2.978-0.273c0.204-0.021,0.353-0.204,0.331-0.408s-0.208-0.355-0.408-0.331
	c-0.982,0.103-1.968,0.193-2.958,0.271c-0.205,0.016-0.358,0.193-0.341,0.398c0.015,0.194,0.178,0.343,0.368,0.343
	C307.001,511.538,307.011,511.537,307.02,511.536z M315.185,510.604c0.988-0.146,1.972-0.307,2.951-0.479
	c0.202-0.036,0.337-0.229,0.302-0.43c-0.035-0.202-0.238-0.343-0.43-0.302c-0.974,0.17-1.951,0.329-2.932,0.477
	c-0.203,0.029-0.344,0.219-0.313,0.422c0.027,0.185,0.187,0.316,0.366,0.316C315.148,510.609,315.167,510.607,315.185,510.604z
	 M298.814,511.897c0.998-0.01,1.994-0.032,2.985-0.065c0.205-0.008,0.365-0.18,0.358-0.386c-0.009-0.204-0.184-0.359-0.386-0.357
	c-0.985,0.034-1.974,0.056-2.966,0.065c-0.205,0.002-0.37,0.17-0.368,0.375c0.002,0.204,0.168,0.368,0.371,0.368
	C298.812,511.897,298.813,511.897,298.814,511.897z M411.75,421.814c0.029,0.007,0.059,0.01,0.087,0.01
	c0.168,0,0.32-0.115,0.36-0.285c0.231-0.969,0.449-1.941,0.656-2.917c0.042-0.201-0.086-0.398-0.287-0.44
	c-0.202-0.037-0.398,0.086-0.439,0.287c-0.205,0.972-0.423,1.937-0.651,2.898C411.428,421.566,411.552,421.766,411.75,421.814z
	 M213.203,476.067c0.093,0,0.187-0.035,0.258-0.104c0.147-0.143,0.151-0.377,0.01-0.525c-0.688-0.712-1.366-1.431-2.035-2.161
	c-0.14-0.152-0.375-0.161-0.525-0.021c-0.151,0.139-0.161,0.374-0.022,0.524c0.674,0.734,1.356,1.46,2.049,2.176
	C213.009,476.029,213.107,476.067,213.203,476.067z M225.371,487.028c0.111,0,0.221-0.049,0.293-0.143
	c0.126-0.161,0.099-0.396-0.063-0.521c-0.781-0.61-1.554-1.23-2.318-1.86c-0.158-0.132-0.392-0.107-0.522,0.05
	c-0.132,0.158-0.108,0.393,0.05,0.522c0.769,0.635,1.546,1.26,2.332,1.872C225.211,487.004,225.292,487.028,225.371,487.028z
	 M219.097,481.759c0.102,0,0.203-0.041,0.275-0.123c0.138-0.152,0.125-0.388-0.026-0.525c-0.736-0.663-1.464-1.336-2.183-2.017
	c-0.148-0.14-0.384-0.135-0.524,0.015c-0.142,0.149-0.136,0.384,0.014,0.525c0.723,0.686,1.455,1.36,2.195,2.027
	C218.918,481.727,219.007,481.759,219.097,481.759z M232.001,491.853c0.119,0,0.236-0.057,0.309-0.163
	c0.115-0.17,0.07-0.4-0.101-0.516c-0.821-0.557-1.636-1.121-2.442-1.696c-0.167-0.118-0.398-0.079-0.519,0.087
	c-0.119,0.167-0.08,0.399,0.087,0.519c0.813,0.577,1.632,1.147,2.458,1.706C231.858,491.833,231.931,491.853,232.001,491.853z
	 M358.595,294.232c0.061,0.037,0.127,0.054,0.194,0.054c0.125,0,0.247-0.063,0.317-0.178c0.106-0.175,0.052-0.403-0.123-0.511
	c-0.852-0.52-1.708-1.03-2.573-1.529c-0.177-0.102-0.405-0.041-0.507,0.136c-0.104,0.178-0.042,0.405,0.136,0.508
	C356.897,293.208,357.75,293.715,358.595,294.232z M351.473,290.212c0.056,0.028,0.113,0.042,0.171,0.042
	c0.135,0,0.264-0.073,0.329-0.2c0.096-0.182,0.024-0.406-0.157-0.501c-0.887-0.46-1.778-0.908-2.678-1.346
	c-0.182-0.089-0.405-0.013-0.496,0.172c-0.09,0.184-0.013,0.407,0.172,0.497C349.707,289.31,350.593,289.756,351.473,290.212z
	 M353.416,497.462c0.067,0.124,0.195,0.193,0.326,0.193c0.06,0,0.121-0.015,0.178-0.045c0.873-0.477,1.74-0.963,2.601-1.461
	c0.178-0.102,0.238-0.33,0.136-0.507c-0.104-0.178-0.332-0.239-0.507-0.136c-0.855,0.495-1.717,0.979-2.584,1.451
	C353.385,497.056,353.319,497.281,353.416,497.462z M360.469,493.32c0.071,0.111,0.192,0.172,0.313,0.172
	c0.069,0,0.138-0.019,0.2-0.058c0.839-0.536,1.67-1.082,2.494-1.64c0.17-0.115,0.215-0.346,0.099-0.517
	c-0.115-0.17-0.346-0.215-0.516-0.099c-0.818,0.553-1.645,1.096-2.479,1.628C360.409,492.92,360.359,493.148,360.469,493.32z
	 M338.533,504.215c0.056,0.148,0.196,0.241,0.348,0.241c0.044,0,0.088-0.008,0.131-0.024c0.935-0.35,1.862-0.712,2.785-1.085
	c0.19-0.077,0.282-0.294,0.205-0.484c-0.078-0.189-0.295-0.28-0.484-0.205c-0.917,0.371-1.84,0.731-2.768,1.08
	C338.558,503.808,338.46,504.021,338.533,504.215z M331.115,507.063c0.035,0,0.069-0.005,0.105-0.015
	c0.957-0.284,1.908-0.58,2.854-0.888c0.194-0.064,0.302-0.273,0.238-0.469c-0.063-0.194-0.272-0.301-0.468-0.238
	c-0.939,0.306-1.886,0.6-2.837,0.882c-0.197,0.059-0.308,0.265-0.25,0.462C330.807,506.958,330.955,507.063,331.115,507.063z
	 M346.095,501.097c0.063,0.136,0.197,0.217,0.338,0.217c0.053,0,0.104-0.011,0.155-0.033c0.905-0.414,1.803-0.839,2.694-1.274
	c0.184-0.09,0.26-0.313,0.17-0.497c-0.091-0.186-0.315-0.259-0.497-0.17c-0.886,0.433-1.778,0.854-2.677,1.266
	C346.093,500.689,346.01,500.91,346.095,501.097z M344.082,286.701c0.049,0.021,0.099,0.03,0.148,0.03
	c0.144,0,0.279-0.084,0.341-0.224c0.081-0.188-0.005-0.407-0.193-0.489c-0.917-0.397-1.839-0.782-2.767-1.156
	c-0.188-0.076-0.407,0.015-0.483,0.206c-0.077,0.189,0.015,0.407,0.206,0.484C342.256,285.924,343.172,286.306,344.082,286.701z
	 M246.034,500.024c0.054,0.025,0.108,0.038,0.163,0.038c0.138,0,0.271-0.077,0.334-0.208c0.09-0.184,0.015-0.407-0.171-0.497
	c-0.893-0.436-1.779-0.883-2.658-1.341c-0.183-0.095-0.406-0.025-0.501,0.158c-0.095,0.181-0.023,0.406,0.158,0.501
	C244.245,499.136,245.137,499.586,246.034,500.024z M199.849,329.175c-0.172-0.114-0.402-0.067-0.516,0.105
	c-0.55,0.833-1.09,1.672-1.619,2.518c-0.108,0.174-0.056,0.403,0.118,0.512c0.062,0.038,0.13,0.057,0.197,0.057
	c0.124,0,0.245-0.062,0.314-0.174c0.526-0.841,1.063-1.675,1.609-2.502C200.067,329.519,200.02,329.289,199.849,329.175z
	 M205.603,467.019c-0.16,0.128-0.187,0.36-0.06,0.521c0.621,0.779,1.252,1.55,1.894,2.312c0.073,0.088,0.179,0.133,0.285,0.133
	c0.084,0,0.169-0.028,0.238-0.087c0.157-0.132,0.178-0.366,0.045-0.523c-0.636-0.757-1.263-1.522-1.88-2.296
	C205.996,466.916,205.764,466.891,205.603,467.019z M204.626,322.512c-0.163-0.124-0.396-0.093-0.521,0.069
	c-0.606,0.792-1.202,1.591-1.789,2.398c-0.121,0.166-0.084,0.398,0.082,0.519c0.065,0.048,0.142,0.071,0.218,0.071
	c0.115,0,0.228-0.053,0.301-0.153c0.583-0.802,1.176-1.596,1.778-2.383C204.821,322.87,204.789,322.636,204.626,322.512z
	 M200.743,460.432c-0.169,0.117-0.211,0.348-0.095,0.517c0.565,0.82,1.141,1.632,1.727,2.436c0.073,0.1,0.187,0.152,0.301,0.152
	c0.076,0,0.152-0.022,0.219-0.07c0.166-0.121,0.202-0.354,0.082-0.52c-0.582-0.799-1.154-1.606-1.717-2.421
	C201.144,460.357,200.911,460.315,200.743,460.432z M195.544,336.157c-0.178-0.1-0.406-0.038-0.506,0.141
	c-0.491,0.869-0.971,1.744-1.44,2.626c-0.096,0.181-0.027,0.406,0.153,0.502c0.055,0.03,0.115,0.044,0.174,0.044
	c0.134,0,0.263-0.071,0.328-0.197c0.466-0.877,0.943-1.746,1.432-2.609C195.786,336.485,195.724,336.258,195.544,336.157z
	 M196.356,453.527c-0.177,0.104-0.235,0.333-0.13,0.509c0.507,0.857,1.024,1.706,1.552,2.548c0.071,0.112,0.191,0.175,0.314,0.175
	c0.067,0,0.137-0.019,0.197-0.058c0.174-0.108,0.227-0.338,0.117-0.512c-0.524-0.836-1.039-1.681-1.543-2.532
	C196.76,453.482,196.532,453.423,196.356,453.527z M214.98,310.264c-0.709,0.699-1.41,1.407-2.103,2.124
	c-0.143,0.148-0.138,0.383,0.01,0.525c0.071,0.07,0.164,0.104,0.258,0.104c0.097,0,0.193-0.038,0.267-0.114
	c0.688-0.712,1.384-1.416,2.089-2.111c0.146-0.144,0.148-0.379,0.004-0.525C215.361,310.122,215.125,310.12,214.98,310.264z
	 M234.198,294.911c-0.838,0.536-1.669,1.084-2.492,1.641c-0.17,0.115-0.214,0.346-0.099,0.516c0.072,0.106,0.188,0.163,0.308,0.163
	c0.071,0,0.145-0.021,0.208-0.064c0.818-0.554,1.645-1.098,2.477-1.631c0.173-0.111,0.223-0.34,0.111-0.513
	C234.601,294.851,234.369,294.8,234.198,294.911z M227.444,299.577c-0.799,0.594-1.591,1.198-2.373,1.812
	c-0.162,0.127-0.19,0.36-0.063,0.521c0.072,0.094,0.182,0.143,0.293,0.143c0.079,0,0.16-0.026,0.229-0.079
	c0.778-0.61,1.564-1.21,2.359-1.8c0.165-0.122,0.198-0.355,0.077-0.52C227.842,299.489,227.609,299.454,227.444,299.577z
	 M248.585,287.051c-0.904,0.415-1.803,0.841-2.693,1.277c-0.185,0.09-0.26,0.313-0.17,0.497c0.064,0.131,0.197,0.208,0.334,0.208
	c0.055,0,0.11-0.012,0.163-0.038c0.885-0.434,1.776-0.857,2.676-1.269c0.186-0.086,0.268-0.306,0.183-0.493
	C248.991,287.047,248.772,286.966,248.585,287.051z M192.461,446.337c-0.183,0.093-0.258,0.316-0.165,0.498
	c0.445,0.89,0.902,1.772,1.369,2.649c0.067,0.126,0.196,0.197,0.328,0.197c0.059,0,0.119-0.015,0.174-0.045
	c0.182-0.096,0.25-0.32,0.153-0.503c-0.464-0.87-0.918-1.747-1.361-2.631C192.868,446.319,192.647,446.246,192.461,446.337z
	 M221.028,304.704c-0.756,0.648-1.503,1.305-2.243,1.973c-0.152,0.137-0.164,0.372-0.026,0.524c0.072,0.081,0.174,0.123,0.275,0.123
	c0.089,0,0.178-0.032,0.249-0.096c0.735-0.663,1.479-1.316,2.229-1.96c0.155-0.133,0.173-0.368,0.04-0.524
	C221.418,304.589,221.184,304.571,221.028,304.704z M209.854,316.2c-0.153-0.135-0.389-0.121-0.524,0.033
	c-0.659,0.747-1.309,1.502-1.95,2.266c-0.132,0.157-0.11,0.391,0.046,0.523c0.07,0.058,0.154,0.087,0.238,0.087
	c0.106,0,0.211-0.045,0.285-0.133c0.637-0.759,1.283-1.51,1.938-2.252C210.023,316.57,210.007,316.335,209.854,316.2z
	 M241.256,290.729c-0.873,0.477-1.739,0.965-2.6,1.463c-0.178,0.103-0.238,0.33-0.135,0.508c0.069,0.119,0.194,0.185,0.322,0.185
	c0.063,0,0.127-0.016,0.186-0.05c0.854-0.495,1.715-0.98,2.582-1.454c0.18-0.098,0.246-0.324,0.148-0.504
	C241.661,290.697,241.436,290.63,241.256,290.729z M182.814,419.032c0.024,0,0.052-0.003,0.077-0.008
	c0.201-0.043,0.329-0.24,0.286-0.44c-0.206-0.967-0.398-1.938-0.58-2.914c-0.037-0.202-0.23-0.334-0.433-0.297
	s-0.335,0.231-0.297,0.433c0.183,0.981,0.378,1.958,0.584,2.932C182.488,418.913,182.642,419.032,182.814,419.032z M183.5,366.583
	c-0.199-0.049-0.4,0.076-0.447,0.276c-0.229,0.968-0.446,1.94-0.652,2.917c-0.042,0.201,0.086,0.398,0.287,0.44
	c0.025,0.005,0.052,0.008,0.076,0.008c0.173,0,0.326-0.12,0.363-0.295c0.204-0.971,0.42-1.937,0.649-2.899
	C183.824,366.832,183.7,366.631,183.5,366.583z M181.865,374.611c-0.205-0.038-0.395,0.104-0.427,0.306
	c-0.161,0.982-0.311,1.966-0.447,2.956c-0.028,0.203,0.114,0.391,0.316,0.419c0.018,0.003,0.034,0.004,0.052,0.004
	c0.183,0,0.342-0.135,0.366-0.321c0.137-0.983,0.284-1.962,0.444-2.937C182.205,374.835,182.069,374.644,181.865,374.611z
	 M184.44,426.711c0.047,0.163,0.194,0.27,0.356,0.27c0.034,0,0.069-0.004,0.104-0.016c0.196-0.057,0.311-0.263,0.254-0.459
	c-0.273-0.95-0.534-1.906-0.784-2.866c-0.052-0.198-0.254-0.315-0.453-0.266c-0.198,0.052-0.317,0.255-0.266,0.453
	C183.903,424.793,184.164,425.755,184.44,426.711z M181.392,410.965c0.018,0,0.034-0.001,0.053-0.004
	c0.203-0.028,0.345-0.216,0.315-0.419c-0.137-0.978-0.262-1.96-0.375-2.947c-0.022-0.203-0.208-0.352-0.411-0.326
	c-0.203,0.023-0.35,0.208-0.325,0.411c0.113,0.992,0.239,1.98,0.378,2.965C181.051,410.831,181.21,410.965,181.392,410.965z
	 M185.696,358.691c-0.197-0.062-0.404,0.047-0.465,0.243c-0.298,0.95-0.583,1.905-0.856,2.864c-0.056,0.197,0.058,0.403,0.255,0.459
	c0.034,0.009,0.069,0.014,0.103,0.014c0.16,0,0.31-0.106,0.356-0.27c0.272-0.954,0.556-1.902,0.852-2.846
	C186,358.96,185.891,358.752,185.696,358.691z M189.082,438.898c-0.188,0.079-0.279,0.297-0.2,0.485
	c0.382,0.918,0.775,1.83,1.181,2.736c0.062,0.138,0.196,0.22,0.34,0.22c0.05,0,0.102-0.01,0.15-0.031
	c0.188-0.084,0.271-0.305,0.188-0.491c-0.402-0.9-0.793-1.807-1.173-2.718C189.49,438.908,189.272,438.822,189.082,438.898z
	 M188.448,350.951c-0.191-0.074-0.406,0.019-0.481,0.21c-0.364,0.929-0.718,1.864-1.059,2.805c-0.07,0.193,0.03,0.406,0.223,0.476
	c0.042,0.015,0.085,0.022,0.127,0.022c0.152,0,0.295-0.094,0.35-0.245c0.339-0.934,0.689-1.864,1.052-2.787
	C188.734,351.242,188.639,351.025,188.448,350.951z M191.738,343.428c-0.187-0.087-0.407-0.009-0.495,0.176
	c-0.428,0.901-0.846,1.809-1.253,2.722c-0.083,0.187,0.001,0.407,0.188,0.49c0.05,0.022,0.101,0.032,0.151,0.032
	c0.143,0,0.278-0.082,0.34-0.221c0.404-0.908,0.819-1.809,1.245-2.705C192.001,343.737,191.923,343.516,191.738,343.428z
	 M186.23,431.234c-0.194,0.064-0.3,0.275-0.234,0.47c0.318,0.946,0.648,1.887,0.989,2.821c0.055,0.149,0.196,0.244,0.349,0.244
	c0.042,0,0.085-0.008,0.127-0.022c0.193-0.07,0.292-0.284,0.222-0.477c-0.339-0.93-0.667-1.862-0.982-2.804
	C186.634,431.273,186.424,431.169,186.23,431.234z M180.523,386.444c0.193,0,0.356-0.15,0.369-0.346
	c0.067-0.99,0.147-1.977,0.239-2.961c0.02-0.204-0.131-0.385-0.336-0.404c-0.202-0.019-0.385,0.131-0.404,0.336
	c-0.092,0.99-0.172,1.983-0.239,2.98c-0.015,0.205,0.141,0.382,0.346,0.396C180.505,386.443,180.514,386.444,180.523,386.444z
	 M179.911,391.271c-0.023,0.954-0.034,1.911-0.034,2.871v0.117c0,0.205,0.166,0.371,0.371,0.371s0.371-0.166,0.371-0.371v-0.117
	c0-0.954,0.012-1.905,0.034-2.853c0.005-0.205-0.157-0.375-0.362-0.38C180.083,390.897,179.917,391.065,179.911,391.271z
	 M180.538,402.818c0.009,0,0.017,0,0.026-0.001c0.205-0.016,0.358-0.192,0.345-0.396c-0.069-0.985-0.125-1.974-0.17-2.966
	c-0.009-0.205-0.187-0.372-0.389-0.354c-0.204,0.01-0.362,0.184-0.354,0.389c0.045,0.998,0.102,1.992,0.171,2.983
	C180.181,402.668,180.344,402.818,180.538,402.818z M333.865,282.055c-0.194-0.062-0.404,0.044-0.468,0.239
	c-0.063,0.195,0.044,0.405,0.239,0.468c0.946,0.306,1.888,0.624,2.824,0.953c0.041,0.014,0.083,0.021,0.123,0.021
	c0.153,0,0.297-0.095,0.35-0.248c0.068-0.193-0.032-0.406-0.227-0.473C335.765,282.682,334.817,282.363,333.865,282.055z
	 M309.775,276.996c-0.199-0.015-0.386,0.127-0.406,0.332c-0.021,0.204,0.127,0.386,0.332,0.407c0.986,0.101,1.97,0.214,2.95,0.34
	c0.017,0.002,0.032,0.003,0.049,0.003c0.184,0,0.344-0.137,0.367-0.324c0.026-0.203-0.116-0.39-0.32-0.416
	C311.759,277.212,310.769,277.098,309.775,276.996z M301.578,276.443c-0.004,0-0.009,0-0.013,0c-0.198,0-0.364,0.159-0.37,0.359
	c-0.008,0.205,0.153,0.377,0.358,0.383c0.992,0.033,1.982,0.078,2.967,0.135c0.008,0,0.016,0.001,0.022,0.001
	c0.196,0,0.359-0.152,0.371-0.35c0.012-0.205-0.145-0.38-0.35-0.392C303.573,276.521,302.577,276.476,301.578,276.443z
	 M317.916,278.118c-0.197-0.036-0.395,0.1-0.43,0.302s0.101,0.394,0.303,0.43c0.977,0.169,1.951,0.352,2.92,0.545
	c0.023,0.005,0.049,0.007,0.073,0.007c0.173,0,0.327-0.122,0.362-0.299c0.041-0.201-0.09-0.397-0.292-0.437
	C319.88,278.472,318.901,278.289,317.916,278.118z M293.364,276.455c-0.205,0.007-0.366,0.179-0.358,0.384
	c0.007,0.201,0.172,0.358,0.371,0.358c0.005,0,0.009,0,0.013,0c0.986-0.035,1.976-0.058,2.967-0.069
	c0.205-0.002,0.37-0.171,0.367-0.375c-0.002-0.205-0.16-0.337-0.375-0.367C295.35,276.397,294.355,276.42,293.364,276.455z
	 M325.959,279.806c-0.204-0.049-0.4,0.073-0.45,0.272c-0.049,0.199,0.073,0.401,0.271,0.449c0.963,0.238,1.921,0.487,2.874,0.749
	c0.032,0.009,0.065,0.013,0.099,0.013c0.163,0,0.313-0.108,0.358-0.273c0.054-0.198-0.063-0.402-0.261-0.457
	C327.892,280.296,326.927,280.045,325.959,279.806z M293.585,511.836c0.004,0,0.008,0,0.013,0c0.199,0,0.364-0.158,0.371-0.359
	c0.007-0.205-0.153-0.377-0.359-0.384c-0.842-0.028-1.68-0.07-2.518-0.116l0.274,0.756
	C292.104,511.771,292.842,511.811,293.585,511.836z M384.04,315.04c0.09,0,0.182-0.033,0.252-0.098
	c0.151-0.139,0.16-0.374,0.021-0.525c-0.675-0.732-1.358-1.457-2.051-2.172c-0.144-0.147-0.378-0.151-0.525-0.009
	c-0.147,0.143-0.152,0.378-0.009,0.525c0.688,0.711,1.368,1.431,2.039,2.159C383.84,315,383.941,315.04,384.04,315.04z
	 M410.881,364.529c0.044,0.167,0.193,0.278,0.358,0.278c0.03,0,0.063-0.004,0.094-0.012c0.199-0.052,0.318-0.255,0.267-0.453
	c-0.156-0.597-0.324-1.19-0.489-1.784h-0.77C410.524,363.214,410.708,363.869,410.881,364.529z M256.158,283.893
	c-0.934,0.352-1.861,0.714-2.783,1.089c-0.19,0.077-0.282,0.294-0.205,0.484c0.059,0.145,0.197,0.232,0.344,0.232
	c0.047,0,0.094-0.009,0.14-0.027c0.916-0.372,1.838-0.733,2.768-1.082c0.191-0.072,0.289-0.286,0.217-0.478
	C256.565,283.918,256.352,283.821,256.158,283.893z M285.166,277.032c-0.204,0.021-0.353,0.204-0.33,0.408
	c0.02,0.191,0.181,0.333,0.369,0.333c0.013,0,0.025-0.001,0.039-0.002c0.981-0.103,1.968-0.194,2.958-0.273
	c0.204-0.016,0.356-0.195,0.341-0.4c-0.018-0.205-0.191-0.356-0.4-0.341C287.146,276.836,286.154,276.928,285.166,277.032z
	 M378.287,309.208c0.1,0,0.197-0.039,0.271-0.116c0.141-0.149,0.134-0.384-0.016-0.525c-0.724-0.684-1.458-1.36-2.198-2.026
	c-0.149-0.137-0.387-0.125-0.524,0.028c-0.137,0.153-0.125,0.387,0.028,0.524c0.735,0.662,1.464,1.334,2.184,2.014
	C378.104,309.175,378.196,309.208,378.287,309.208z M271.9,279.201c-0.974,0.217-1.943,0.446-2.909,0.688
	c-0.198,0.05-0.319,0.251-0.27,0.45c0.042,0.169,0.193,0.281,0.36,0.281c0.029,0,0.06-0.004,0.09-0.011
	c0.959-0.239,1.923-0.467,2.891-0.683c0.2-0.045,0.326-0.243,0.281-0.443C272.299,279.282,272.101,279.156,271.9,279.201z
	 M263.947,281.27c-0.957,0.285-1.907,0.582-2.854,0.891c-0.195,0.063-0.301,0.273-0.238,0.468c0.051,0.157,0.197,0.256,0.354,0.256
	c0.037,0,0.076-0.006,0.114-0.018c0.94-0.307,1.886-0.601,2.835-0.885c0.197-0.058,0.31-0.265,0.25-0.462
	C264.35,281.323,264.144,281.21,263.947,281.27z M372.142,303.788c0.106,0,0.213-0.046,0.286-0.136
	c0.131-0.159,0.107-0.393-0.052-0.523c-0.77-0.633-1.548-1.256-2.334-1.87c-0.163-0.125-0.395-0.099-0.521,0.064
	c-0.126,0.162-0.098,0.395,0.064,0.521c0.781,0.61,1.554,1.229,2.319,1.858C371.975,303.76,372.059,303.788,372.142,303.788z
	 M277.028,278.177c-0.201,0.036-0.337,0.228-0.301,0.43c0.032,0.18,0.188,0.307,0.365,0.307c0.021,0,0.043-0.002,0.064-0.006
	c0.974-0.172,1.95-0.332,2.932-0.479c0.203-0.03,0.343-0.22,0.312-0.423c-0.03-0.203-0.216-0.338-0.423-0.312
	C278.991,277.843,278.008,278.004,277.028,278.177z M236.465,366.574L236.465,366.574c1.298-2.235,3.075-4.119,5.444-5.078
	c0.911-0.369,1.864-0.571,2.834-0.668c1.114-0.111,2.252-0.061,3.383,0.071c0.347-0.978,0.709-1.982,0.995-2.848
	c0.146,0.129,0.3,0.25,0.447,0.376l0.678-10.066l0.126,0.013c-0.209-0.963-0.325-1.96-0.325-2.986l2.607-2.076
	c4.76-0.985,9.336-2.868,13.492-5.688c4.749-3.223,9.132-7.478,11.629-12.502l-2.181,24.198c0,5.589-4.563,10.107-7.94,10.107
	h-3.569c-0.665,0-1.315-0.062-1.955-0.152l-0.367,5.444l1.824,0.861l-0.508,1.363c2.01,1.229,3.992,2.565,5.846,3.928
	c3.046,2.24,5.746,4.547,7.625,6.559c0.046,0.05,0.085,0.098,0.13,0.148l0.015-0.019l0.034,0.074
	c4.617,5.019,6.317,9.7,6.533,14.221l0.95,2.068c2.583-2.488,4.682-5.407,6.012-8.794c6.419-16.35-7.118-34.422-4.367-51.771
	c1.448-9.13,5.609-20.101-5.209-25.101c-8.88-4.105-20.618-3.531-29.231,0.792c-9.739,4.888-16.787,14.787-18.221,25.589
	c-1.081,8.15,0.852,16.447,0.058,24.63c-0.707,7.287-3.531,14.651-3.982,21.801l6.133-12.357
	C235.715,367.975,236.067,367.259,236.465,366.574z M237.368,398.683l-0.348,0.533c0.202,0.161,0.41,0.314,0.617,0.468
	C237.549,399.359,237.458,399.02,237.368,398.683z"></path>
<path id="color_x5F_2" fill="#FBC02D" d="M259.668,588.021h-9.729l0.825-29.854l0.016-0.568l0.387-13.956
	c0.153-5.559,1.354-11.04,3.542-16.152l1.358-3.18l-9.117-33.132c-6.834-7.757-10.937-17.658-11.607-28.122l-0.586-5.073
	l0.238-0.051c1.117,0.587,2.304,1.129,3.527,1.645l3.5-10l0.813,11.612c9.538,3.129,21.085,4.328,31.369,3.139
	c3.654-0.423,7.151-1.135,10.333-2.183l-3.982,19.724l10.537,29.105l0.274,0.756l0.804,2.223l-17.872,71.406l-9.725-1.855
	l0.872-21.893l0.022-0.541l0.145-3.631l-0.685,3.522l-0.104,0.53L259.668,588.021z M321.122,398.354l6.411-20.444
	c0.179-0.57,0.748-0.981,1.271-0.918l9.714-1.329c0.545-0.081,0.848,0.279,0.719,0.806l0.028-0.087
	c0.179-0.569-0.517-1.144-1.087-1.059l-9.676,1.208c-0.523-0.063-1.093,0.348-1.271,0.918l-6.449,20.566
	c-0.139,0.442,0.185,0.972,0.603,1.148C321.122,399.034,321.001,398.742,321.122,398.354z M263.588,365.58l-1.824-0.861l0,0
	l-0.473,7.027l-1.324-0.14c-0.329-2.515-0.657-5.031-0.986-7.546c-3.411-1.343-6.617-3.259-9.413-5.634
	c-0.147-0.126-0.301-0.248-0.447-0.376c-0.286,0.866-0.648,1.87-0.995,2.848c-1.132-0.133-2.269-0.182-3.383-0.071
	c13.096,11.817,22.336,27.224,23.295,44.479c3.157-11.054,4.425-23.349,0.89-34.436c-1.854-1.362-3.836-2.699-5.846-3.928
	L263.588,365.58z"></path>
<path id="color_x5F_1" fill="#0984E3" d="M137.863,456.1c-7.854-19.86-11.973-41.225-11.973-63.224
	c0-32.041,8.725-62.735,25.032-89.391c0.163,0.113,0.332,0.218,0.509,0.316c-15.879,25.968-25.041,56.47-25.041,89.075
	c0,22.251,4.269,43.523,12.026,63.044C138.225,455.973,138.041,456.032,137.863,456.1z M144.093,468.643
	c-0.169,0.105-0.347,0.202-0.53,0.293c8.209,16.592,19.158,31.913,32.632,45.385c21.069,21.071,46.655,35.979,74.57,43.847
	l0.016-0.568C204.003,544.273,165.333,511.513,144.093,468.643z M265.467,561.071c-0.182-0.034-0.36-0.073-0.54-0.108l-0.104,0.53
	c0.207,0.04,0.414,0.079,0.622,0.118L265.467,561.071z M297.64,564.126c-2.188,0-4.366-0.043-6.534-0.125
	c-0.002,0.164-0.008,0.327-0.02,0.49c2.178,0.081,4.362,0.135,6.554,0.135c45.876,0,89.007-17.865,121.446-50.306
	c32.438-32.438,50.304-75.569,50.304-121.445c0-22.209-4.199-43.771-12.2-63.792c-0.172,0.087-0.35,0.167-0.533,0.24
	c7.885,19.66,12.232,41.106,12.232,63.552C468.89,487.304,392.068,564.126,297.64,564.126z M122.616,620.106
	c-4.694-8.96-9.37-17.928-14.347-26.731c-0.431,2.416-0.596,4.859-0.534,7.295c1.939,3.903,4.313,7.628,6.173,11.55
	c1.599,3.367,3.121,6.769,4.609,10.186h5.314C123.426,621.64,123.019,620.873,122.616,620.106z M124.061,568.462
	c-1.402,1.061-2.738,2.206-4.001,3.426c0.948,2.888,1.902,5.772,2.938,8.631c0.611,1.688-2.076,2.408-2.683,0.738
	c-0.852-2.35-1.646-4.721-2.43-7.094c-0.477,0.532-0.949,1.067-1.398,1.621c5.761,15.316,10.554,30.965,15.325,46.622h0.884
	C128.633,604.662,125.943,586.613,124.061,568.462z M114.528,578.403c-1.091,1.583-2.066,3.241-2.921,4.959
	c1.948,3.677,3.887,7.359,5.672,11.117c0.766,1.609-1.634,3.019-2.4,1.404c-1.491-3.14-3.085-6.226-4.699-9.301
	c-0.361,0.932-0.688,1.877-0.973,2.836c5.844,10.167,11.241,20.578,16.691,30.963c0.355,0.677,0.718,1.35,1.079,2.023h1.956
	C124.439,607.631,119.905,592.871,114.528,578.403z M149.275,559.921c-0.189-0.003-0.379-0.014-0.567-0.015
	c-3.306-0.007-6.581,0.439-9.758,1.273c-0.802,10.972-1.239,21.948-0.213,32.955c0.166,1.783-2.615,1.767-2.78,0
	c-1-10.72-0.612-21.412,0.148-32.097c-3.313,1.134-6.49,2.69-9.438,4.603c1.9,18.767,4.641,37.429,8.87,55.765h6.153
	C140.937,601.526,145.248,580.7,149.275,559.921z M169.725,606.529c3.068-7.977,6.122-16.009,9.876-23.694
	c0.897-1.836,1.821-3.673,2.729-5.521c-0.427-0.563-0.867-1.113-1.321-1.654c-1.254,2.348-2.485,4.708-3.678,7.091
	c-4.099,8.192-7.82,16.553-11.542,24.92c-2.09,4.696-4.508,9.646-6.743,14.736h4.797
	C165.747,617.094,167.699,611.798,169.725,606.529z M162.049,581.287c2.006-5.396,4.147-10.739,6.412-16.026
	c-2.228-1.249-4.565-2.29-6.97-3.125c-2.805,8.31-5.27,16.717-6.768,25.396c-0.304,1.763-2.983,1.011-2.682-0.739
	c1.503-8.709,3.979-17.145,6.795-25.481c-2.237-0.611-4.523-1.039-6.839-1.247c-4.045,20.727-8.37,41.532-7.563,62.342h4.924
	C152.235,608.338,157.122,594.544,162.049,581.287z M162.896,607.363c4.159-9.288,8.265-18.587,12.865-27.669
	c1.062-2.095,2.166-4.164,3.284-6.227c-0.618-0.646-1.256-1.271-1.911-1.88c-2.011,3.245-4.024,6.488-6.163,9.652
	c-0.998,1.476-3.405,0.083-2.4-1.404c2.234-3.308,4.337-6.7,6.438-10.093c-1.329-1.087-2.717-2.103-4.158-3.032
	c-2.158,5.054-4.203,10.158-6.12,15.316c-4.835,13.01-9.661,26.563-12.534,40.379h3.856
	C158.294,617.214,160.746,612.163,162.896,607.363z M190.76,602.59c0.049-3.29-0.282-6.587-1.039-9.813
	c-0.034-0.148-0.077-0.293-0.113-0.441c-3.979,4.538-7.427,9.414-9.433,15.069c-0.595,1.678-3.281,0.951-2.682-0.739
	c2.351-6.626,6.516-12.196,11.226-17.392c-1.112-3.306-2.662-6.45-4.565-9.37c-4.113,8.371-7.69,16.892-11.063,25.591
	c-2.175,5.61-4.263,11.252-6.299,16.913h7.578C179.382,615.48,185.089,608.952,190.76,602.59z M404.479,621.022
	c-3.323-6.343-6.633-12.693-10.157-18.924c-0.305,1.71-0.422,3.439-0.378,5.165c1.373,2.763,3.053,5.399,4.37,8.176
	c1.093,2.303,2.135,4.63,3.155,6.967h3.74C404.965,621.945,404.721,621.484,404.479,621.022z M405.5,584.46
	c-0.991,0.751-1.938,1.562-2.832,2.425c0.672,2.045,1.347,4.087,2.08,6.109c0.434,1.195-1.47,1.705-1.897,0.523
	c-0.604-1.664-1.165-3.343-1.721-5.022c-0.337,0.376-0.672,0.755-0.988,1.148c4.048,10.764,7.421,21.759,10.774,32.762h0.646
	C408.715,609.923,406.824,597.228,405.5,584.46z M398.751,591.498c-0.771,1.121-1.463,2.295-2.067,3.512
	c1.379,2.603,2.752,5.21,4.016,7.869c0.541,1.141-1.157,2.139-1.7,0.994c-1.055-2.222-2.184-4.406-3.327-6.584
	c-0.256,0.659-0.485,1.329-0.688,2.008c4.136,7.198,7.958,14.568,11.817,21.921c0.209,0.397,0.422,0.793,0.634,1.188h1.44
	C405.719,612.027,402.529,601.661,398.751,591.498z M423.351,578.414c-0.134-0.002-0.269-0.01-0.402-0.01
	c-2.34-0.005-4.659,0.312-6.908,0.902c-0.566,7.767-0.877,15.538-0.149,23.33c0.118,1.263-1.853,1.251-1.969,0
	c-0.708-7.59-0.434-15.158,0.105-22.723c-2.346,0.803-4.595,1.904-6.683,3.258c1.337,13.203,3.263,26.332,6.226,39.234h4.404
	C417.484,607.706,420.517,593.043,423.351,578.414z M437.829,611.41c2.172-5.647,4.334-11.334,6.991-16.774
	c0.636-1.301,1.289-2.602,1.933-3.909c-0.302-0.398-0.614-0.788-0.936-1.171c-0.888,1.661-1.76,3.333-2.604,5.02
	c-2.902,5.8-5.536,11.718-8.171,17.642c-1.446,3.25-3.113,6.671-4.665,10.188h3.376C435.073,618.728,436.426,615.06,437.829,611.41z
	 M432.395,593.54c1.42-3.821,2.937-7.603,4.539-11.346c-1.578-0.884-3.232-1.622-4.935-2.212c-1.985,5.883-3.73,11.834-4.79,17.979
	c-0.216,1.248-2.112,0.717-1.898-0.522c1.064-6.166,2.817-12.139,4.811-18.04c-1.584-0.433-3.201-0.736-4.842-0.883
	c-2.848,14.593-5.89,29.24-5.361,43.891h3.546C425.507,612.53,428.935,602.849,432.395,593.54z M432.994,612
	c2.945-6.574,5.852-13.158,9.108-19.588c0.751-1.482,1.534-2.948,2.325-4.408c-0.438-0.457-0.889-0.9-1.354-1.331
	c-1.423,2.298-2.85,4.594-4.362,6.833c-0.706,1.046-2.411,0.06-1.7-0.993c1.583-2.343,3.071-4.744,4.559-7.146
	c-0.94-0.769-1.923-1.488-2.942-2.147c-1.528,3.578-2.976,7.192-4.332,10.844c-3.396,9.134-6.781,18.645-8.82,28.342h2.784
	C429.815,618.816,431.506,615.323,432.994,612z M452.721,608.621c0.034-2.329-0.2-4.662-0.735-6.946
	c-0.024-0.105-0.055-0.208-0.081-0.313c-2.815,3.213-5.257,6.665-6.678,10.668c-0.421,1.188-2.323,0.673-1.897-0.522
	c1.665-4.691,4.612-8.636,7.947-12.313c-0.788-2.34-1.884-4.566-3.231-6.634c-2.912,5.926-5.444,11.959-7.831,18.117
	c-1.508,3.891-2.957,7.804-4.37,11.729h5.469C444.815,617.596,448.775,613.049,452.721,608.621z M348.087,240.149
	c0,1.688,0.755,2.753,2.221,2.753c1.644,0,3.374-2.087,3.773-4.662l0.622-4.218c-0.355-0.089-0.799-0.178-1.377-0.178
	C350.398,233.844,348.087,236.729,348.087,240.149z M423.328,337.472l-14.976,8.405l-14.976-8.405v14.432h29.95L423.328,337.472
	L423.328,337.472z M419.092,336.41h-21.476l10.737,6.027L419.092,336.41z M452.945,354.367c0,0.031,0,0.061,0,0.092
	c-0.028,4.517-3.848,8.1-8.364,8.1h-16.188h-1.201h-16.08h-0.77h-11.387h-7.1h-17.997c-2.842,0-5.54-1.411-7.033-3.83
	c-1.941-3.147-3.063-6.854-3.063-10.823c0-10.24,7.455-18.734,17.233-20.362c4.201-12.044,15.652-20.688,29.128-20.688
	c17.037,0,30.85,13.811,30.85,30.849c0,0.893-0.051,1.773-0.126,2.647C447.689,341.362,452.945,347.243,452.945,354.367z
	 M426.328,333.409h-35.95v21.495h35.95V333.409z M150.727,285.508c-1.94-3.146-3.062-6.854-3.062-10.823
	c0-10.24,7.455-18.734,17.232-20.362c4.201-12.044,15.652-20.688,29.129-20.688c8.223,0,15.688,3.224,21.219,8.468
	c24.974-13.693,53.122-20.978,82.396-20.978c9.573,0,19.023,0.789,28.284,2.315c4.947-10.431,15.549-17.657,27.861-17.657
	c17.037,0,30.849,13.811,30.849,30.849c0,0.893-0.051,1.773-0.126,2.647c6.563,0.97,11.653,6.422,12.061,13.15
	c7.953,5.628,15.487,11.97,22.518,19.001c13.324,13.326,24.186,28.458,32.364,44.841c-0.194,0.072-0.383,0.15-0.563,0.238
	c-12.654-25.291-31.4-47.015-54.282-63.282c0,0.023,0.003,0.046,0.003,0.069c0,0.031,0,0.061,0,0.092
	c-0.029,4.517-3.848,8.1-8.365,8.1h-16.188h-1.2h-28.236h-7.101H317.52c-2.842,0-5.54-1.411-7.032-3.83
	c-1.94-3.147-3.062-6.854-3.062-10.823c0-10.24,7.455-18.733,17.233-20.362c0.3-0.861,0.647-1.7,1.02-2.524
	c-9.128-1.51-18.489-2.322-28.038-2.322c-29.663,0-57.578,7.596-81.928,20.923c5.656,5.592,9.163,13.353,9.163,21.935
	c0,0.893-0.051,1.773-0.126,2.647c6.844,1.012,12.1,6.892,12.1,14.016c0,0.031,0,0.061,0,0.092c-0.029,4.517-3.849,8.1-8.365,8.1
	h-16.188h-1.2H182.86h-7.101h-14.407c-0.716,0.94-1.434,1.879-2.131,2.834c-0.15-0.13-0.309-0.253-0.475-0.368
	c0.607-0.832,1.252-1.643,1.876-2.466h-2.861C154.917,289.338,152.219,287.927,150.727,285.508z M336.676,239.972
	c0,8.703,6.482,13.987,13.854,13.987c3.151,0,5.462-0.4,8.126-1.599l-0.8-2.576c-1.775,0.933-4.175,1.421-6.438,1.421
	c-6.616,0-11.367-4.218-11.367-11.633c0-8.481,5.95-13.81,12.744-13.81c6.882,0,10.612,4.485,10.612,10.257
	c0,5.106-2.397,7.548-4.309,7.504c-1.242-0.044-1.554-1.243-1.108-3.863l1.332-8.215c-1.11-0.622-3.33-1.11-5.284-1.11
	c-6.396,0-10.391,4.929-10.391,10.346c0,3.641,2.087,5.772,4.974,5.772c2.354,0,4.352-1.154,5.728-3.419h0.09
	c0.223,2.354,1.73,3.419,3.817,3.419c4.796,0,8.438-4.085,8.438-10.568c0-7.46-5.597-12.833-13.41-12.833
	C343.247,223.054,336.676,230.913,336.676,239.972z M175.071,267.421c0,8.781,7.144,15.925,15.925,15.925
	s15.925-7.144,15.925-15.925s-7.144-15.925-15.925-15.925S175.071,258.64,175.071,267.421z M178.071,267.421
	c0-7.127,5.798-12.925,12.925-12.925s12.925,5.798,12.925,12.925s-5.798,12.925-12.925,12.925S178.071,274.548,178.071,267.421z
	 M186.909,274.756l10.695-7.335l-10.695-7.335V274.756L186.909,274.756z M247.795,622.725l0.058-0.319l1.976-10.786l11.034,10.786
	l0.326,0.319h10.38l-0.417-0.319l-3.955-3.021l-3.539-6.807l-1.614,0.402l0,0l0.71-2.974l0.322-1.352l10.607,13.061l4.648,0.69
	l5.623,0.836l-0.851-0.836l-3.286-3.232l-3.112-7.501l-4.73,0.511l-9.31-7.707l0,0l0.103-8.837l-2.4,2.773
	c-0.485,0.563-0.822,1.198-1.036,1.862c-0.184,0.565-0.28,1.152-0.271,1.735l-0.012-0.018l-0.186,11.709l0,0l-9.682-6.064
	l-0.39-8.562l-2.25,3.028c-0.845,1.136-1.201,2.446-1.109,3.667l-0.013-0.015l0.688,16.65l0.013,0.319L247.795,622.725
	L247.795,622.725z M242.022,449.578l0.813,11.612c9.537,3.129,21.085,4.328,31.369,3.139c3.654-0.423,7.151-1.135,10.333-2.183
	c1.046-0.345,2.063-0.719,3.037-1.134c-4.682-16.355-7.155-25.149-9.066-40.066c-0.361-2.819-0.12-5.554,0.406-8.243l7.869,15.766
	c0.057,0.27,0.139,0.527,0.266,0.763c0.161,0.298,0.335,0.561,0.516,0.805l0.01,0.018c0.104,0.207,0.216,0.33,0.33,0.397
	c1.05,1.162,2.4,1.628,4.129,1.793c4.21,0.402,8.381-0.995,11.734-3.571c2.803-2.153,5.637-4.212,8.437-6.22
	c-1.51-3.186-2.9-6.429-4.641-9.498c-3.772,1.48-7.733,2.838-12.576,4.42l-10.773-23.452l-0.95-2.068
	c-0.216-4.521-1.916-9.201-6.533-14.221l-0.034-0.074l-0.015,0.019c-0.046-0.05-0.084-0.098-0.13-0.148
	c-1.878-2.011-4.579-4.319-7.625-6.559c3.536,11.086,2.269,23.382-0.891,34.436c-0.959-17.255-10.198-32.662-23.294-44.479
	c-0.97,0.097-1.923,0.299-2.834,0.668c-2.369,0.959-4.146,2.843-5.445,5.078l0,0c-0.397,0.685-0.75,1.402-1.06,2.136l-6.133,12.357
	l-18.523,37.32c-0.185,0.212-0.346,0.438-0.458,0.686c-0.139,0.309-0.243,0.605-0.328,0.898l-0.009,0.019
	c-0.102,0.209-0.132,0.372-0.115,0.504c-0.289,1.538,0.158,2.896,1.073,4.371c2.23,3.594,5.867,6.066,9.949,7.175
	c3.411,0.926,6.766,1.936,10.059,2.945c1.62-3.13,3.36-6.201,4.748-9.445c-3.447-2.096-6.912-4.416-11.08-7.293l12.434-19.031
	l0.348-0.533c0.09,0.337,0.18,0.677,0.27,1.001c2.04,7.389,4.061,11.85,5.886,19.746c0.712,3.08,0.218,6.281-0.862,10.06
	c2.697,1.41,5.635,2.826,9.067,4.37c2.49-0.875,5.087-1.368,7.708-1.422c3.333-0.874,7.401,0.199,10.279,1.929
	c0.44,0.265,0.139,0.986-0.308,0.873c-1.979-0.502-3.984-0.936-6.006-0.996c-0.036-0.001-0.072,0.001-0.108,0
	c0.063,0.121,0.128,0.241,0.185,0.361c2.691,0.013,5.526,0.944,7.688,2.244c0.44,0.266,0.139,0.986-0.308,0.873
	c-1.979-0.502-3.984-0.935-6.006-0.995c-0.251-0.009-0.501-0.005-0.751,0.005c0.001,0.004,0.001,0.009,0.001,0.013
	c2.357,0.214,4.741,1.062,6.618,2.19c0.44,0.265,0.139,0.985-0.308,0.872c-1.979-0.502-3.984-0.935-6.006-0.995
	c-0.109-0.003-0.22,0.001-0.33,0.001c-0.014,0.11-0.029,0.223-0.048,0.337c2.106,0.309,4.188,1.093,5.865,2.101
	c0.441,0.266,0.139,0.986-0.307,0.873c-1.979-0.502-3.985-0.935-6.007-0.996c-3.57,1.738-7.261,1.775-10.776-0.066
	c-4.111-0.812-8.399-1.981-12.839-3.306c-1.792,5.343-3.823,11.809-5.214,20.063c0.076,0.041,0.162,0.076,0.239,0.117
	c1.117,0.587,2.303,1.129,3.527,1.645L242.022,449.578z"></path>
</svg>