<?xml version="1.0" standalone="no"?>
<svg version="1.1" id="Layer_1" xmlns="http://www.w3.org/2000/svg" xmlns:xlink="http://www.w3.org/1999/xlink" x="0px" y="0px" viewBox="0 0 595.276 595.276" enable-background="new 0 0 595.276 595.276" xml:space="preserve">
<path id="color_x5F_7" fill="#FAFAFA" d="M167.857,296.4c3.108,0,5.628-2.52,5.628-5.628v-16.123c0-2.163-1.222-4.039-3.012-4.981
	v-1.452c0-6.977-5.677-12.654-12.654-12.654c-6.978,0-12.654,5.677-12.654,12.654v1.452c-1.79,0.942-3.012,2.818-3.012,4.981v16.123
	c0,3.108,2.52,5.628,5.628,5.628H167.857z M149.482,268.216c0-4.596,3.739-8.336,8.336-8.336c4.597,0,8.336,3.74,8.336,8.336v0.805
	h-16.672V268.216z M196.871,107.172c0,3.107,2.519,5.626,5.626,5.626h20.07c3.107,0,5.626-2.519,5.626-5.626V91.056
	c0-2.163-1.222-4.037-3.011-4.979v-1.451c0-6.975-5.675-12.649-12.649-12.649s-12.649,5.675-12.649,12.649v1.451
	c-1.789,0.942-3.011,2.816-3.011,4.979V107.172z M204.199,84.625c0-4.595,3.738-8.333,8.333-8.333s8.333,3.738,8.333,8.333v0.804
	h-16.666V84.625z M388.776,99.409c-1.633,0.859-2.748,2.57-2.748,4.544v14.708c0,2.835,2.299,5.134,5.134,5.134h18.316
	c2.836,0,5.134-2.299,5.134-5.134v-14.708c0-1.974-1.115-3.685-2.748-4.544v-1.324c0-0.143-0.016-0.282-0.021-0.424
	c-0.226-6.168-5.3-11.12-11.523-11.12c-6.223,0-11.298,4.953-11.523,11.121c-0.005,0.141-0.021,0.28-0.021,0.423V99.409z
	 M392.715,98.085c0-4.193,3.411-7.605,7.605-7.605s7.605,3.412,7.605,7.605v0.734h-15.209V98.085z"></path>
<path id="color_x5F_6" fill="#3D4D54" d="M406.026,352.212v22.29c-4.198,7.447-11.511,13.131-20.731,14.851
	c-10.249,1.911-20.618,3.393-30.687,5.469c-3.965,0.817-7.888,1.718-11.732,2.787c13.939,7.712,14.43,47.256,16.205,74.24
	l-1.422,0.245l-12.145,2.092l-1.184,0.204c-2.048-8.674-6.638-24.691-11.491-41.055c-0.088-0.296-0.175-0.591-0.263-0.887
	c-4.09-13.774-8.336-27.701-11.386-37.627c-2.615-8.509-4.35-14.077-4.35-14.077c15.299-8.602,34.118-17.083,52.655-24.726
	C381.808,357.805,394.544,356.619,406.026,352.212z M408.721,351.104c-0.009,0.004-0.019,0.008-0.028,0.012v17.092
	C410.299,362.806,410.42,356.899,408.721,351.104z M329.367,332.304h31.958l-0.696-3h-6.905h-23.165l-0.982-4.232l-0.828-3.569
	l-0.437-1.885l-1.958-8.44l-5-21.552h-1.888L329.367,332.304z M394.863,337.07h11.353h2.288h43.742h2.288h9.999v-4.766h-26.355
	h-0.964h-30.229h-12.121V337.07z"></path>
<path id="color_x5F_5" fill="#FFD2BB" d="M328.312,319.617l-1.958-8.44c8.706-0.69,17.965-1.306,24.584-1.7
	c1.54-0.092,2.929-0.171,4.146-0.237c-0.056,0.508-0.098,1.018-0.15,1.527c7.009-0.521,13.958-0.976,19.231-1.29
	c3.692-0.22,6.576-0.372,8.067-0.428c1.273-6.777,1.664-13.532,2.188-20.234c0.01-0.131,0.022-0.261,0.032-0.392
	c7.983,0.965,15.842,3.181,22.967,6.649c-2.718,11.634-5.952,23.458-10.262,34.016c-1.42,0.59-12.739-0.993-24.248-2.981
	c-7.88-1.361-14.512-3.862-18.789-5.508c-0.127,2.066-0.231,4.134-0.313,6.204c-1.361-0.224-2.741-0.457-4.124-0.696
	c0.604-2.193,1.104-4.407,1.421-6.644c0,0,0,0,0,0c-0.317,2.237-0.817,4.451-1.421,6.644c-4.608-0.796-8.788-1.982-12.321-3.158
	c-0.077,0.051-0.156,0.097-0.233,0.149c-1.781,1.207-3.317,3.04-5.314,3.861c-0.262,0.108-0.491-0.199-0.433-0.433
	c0.298-1.195,1.083-2.233,2.02-3.144c-1.312,0.489-2.598,1.058-3.825,1.69l-0.828-3.569c0.415-0.31,0.958-0.678,1.626-1.104
	C329.599,320.099,328.906,319.834,328.312,319.617z M312.081,474.184l0.626,2.514l3.21,1.923c1.106,0.662,2.367,0.944,3.609,0.807
	l5.285-0.586l-0.585-6.749L312.081,474.184z M349.35,478.621c1.106,0.662,2.367,0.944,3.609,0.807l5.285-0.586l-0.585-6.749
	l-12.145,2.092l0.626,2.514L349.35,478.621z M398.818,224.575c0.2-0.837,0.328-1.7,0.384-2.584c0.02-0.323,0.049-0.645,0.049-0.973
	v0c1.189-0.617,2.008-1.859,2.008-3.285v-2.582c0-2.035-1.665-3.701-3.701-3.701c-2.035,0-3.701,1.665-3.701,3.701v1.463h-2.061
	l-1.193-6.041h-2.515c-0.255,2.511-2.357,4.484-4.934,4.484s-4.679-1.973-4.934-4.484h-2.599c-0.255,2.511-2.357,4.484-4.934,4.484
	c-0.576,0-1.12-0.118-1.635-0.298v10.526c0,6.087,4.935,11.022,11.022,11.022h2.549l0.765,9.079
	c4.975-3.761,10.525-6.709,16.449-8.724L398.818,224.575z M375.622,209.573h2.599c0.255-2.511,2.357-4.485,4.934-4.485
	s4.68,1.974,4.934,4.485h2.318l-1.01-5.114l-3.028-1.557l-1.02-5.823h-16.296v6.223v2.085c0.515-0.18,1.06-0.298,1.635-0.298
	C373.265,205.088,375.367,207.062,375.622,209.573z M383.155,213.867c2.093,0,3.794-1.702,3.794-3.794
	c0-2.092-1.702-3.794-3.794-3.794s-3.794,1.702-3.794,3.794C379.36,212.165,381.062,213.867,383.155,213.867z M374.482,210.073
	c0-2.092-1.702-3.794-3.794-3.794c-0.588,0-1.138,0.146-1.635,0.385v6.817c0.497,0.24,1.047,0.385,1.635,0.385
	C372.78,213.867,374.482,212.165,374.482,210.073z"></path>
<path id="color_x5F_4" fill="#00CEC9" d="M532.37,498.381h-16.361h-9.064h-3.283h-5.19h-3.339h-4.67h-3.159h-5.906h-3.049h-7.183
	h-3.153h-1.129h-3.201h-2.574h-3.49h-2.897v-5.52v-6.621v-16.374v-9.512v-5.793v-9.476v-1.468v-9.399v-1.059v-93.648
	c0-0.895-0.072-1.723-0.189-2.442h-2.288c-0.117,0.719-0.189,1.547-0.189,2.442v96.511v1.05v9.788v5.999V462v19.201v6.594v10.586
	h-0.194h-36.226c-0.1-4.513-2.949-8.34-6.943-9.881v-16.438v-0.879v-76.362h2.921c5.766,0,10.44-4.674,10.44-10.44
	c0-5.766-4.674-10.44-10.44-10.44h-2.921v-5.734v-17.092V343.9v-4.388c0-0.895-0.072-1.723-0.189-2.442h-2.288
	c-0.117,0.719-0.189,1.547-0.189,2.442v12.7v22.29c-4.198,7.447-11.511,13.131-20.731,14.851
	c-10.249,1.911-20.618,3.393-30.687,5.469h18.081v92.945h-8.537c0.421,1.044,0.792,2.098,1.069,3.114
	c0.227,0.834-0.248,1.68-1.038,1.816l-27.752,4.779c-0.031,0.298-0.043,0.602-0.05,0.906h-5.212l-6.85,1.18
	c-0.626,0.108-1.154-0.528-0.988-1.18h-25.595l-4.713,0.812v-7.132v-54.813v-0.393v-24.779v-36.498v-36.066
	c0-0.895-0.072-1.723-0.189-2.442h60.719h41.308v-4.766h-33.538h-31.958l-9.901-42.679h-63.559h-1.888l9.901,42.679h-39.872v4.766
	h16.106c-0.117,0.719-0.189,1.547-0.189,2.442v85.276v1.002v68.772v0.714v3.106h-74.205h-9.064h-3.283h-5.19h-3.339h-4.67h-3.159
	h-5.906H128.1h-7.183h-3.153h-1.129h-3.201h-2.574h-3.489h-5.757H81.715c-1.968,0-3.563,1.595-3.563,3.563s1.595,3.562,3.563,3.562
	H532.37c1.968,0,3.562-1.595,3.562-3.562S534.337,498.381,532.37,498.381z M399.738,394.821h1.3h4.989v77.965v0.881v14.174
	c-0.406-0.046-0.817-0.075-1.235-0.075H379.33v-0.751v-0.808v-73.509v-0.93v-16.947H399.738z M242.631,496.006v-0.733v-68.367
	v-1.002v-86.393c0-0.895-0.072-1.723-0.189-2.442h48.107c-0.117,0.719-0.189,1.547-0.189,2.442v37.454v26.349v33.167v0.925v59.267
	v2.792c-0.353-0.194-0.574-0.632-0.459-1.083h-33.946h-3.357h-9.967V496.006z M289.903,498.368l0.457-1.695v2.792
	c-0.353-0.194-0.574-0.632-0.459-1.083C289.902,498.376,289.901,498.372,289.903,498.368z M283.407,380.741
	c2.244-1.262,4.568-2.521,6.952-3.775v26.349C286.356,390.205,283.407,380.741,283.407,380.741z M300.384,436.635
	c-2.445-8.282-4.997-16.773-7.358-24.559v-36.498c18.504-9.526,40.444-18.72,60.527-26.581c0.01,0.982,0.016,1.967,0.029,2.947
	c5.121,1.931,10.476,3.281,15.913,4.071c-18.537,7.643-37.356,16.124-52.655,24.726c0,0,1.735,5.568,4.35,14.077
	c-3.97,0.818-7.898,1.72-11.746,2.789c8.082,4.472,11.639,19.648,13.551,36.868c0.034,0.304,0.069,0.607,0.102,0.912
	c1.311,12.225,1.825,25.397,2.553,36.459l-1.422,0.245l-12.145,2.092l-1.184,0.204c-1.871-7.926-5.865-21.984-10.243-36.835
	C300.564,437.247,300.474,436.942,300.384,436.635z M417.836,282.133c0.166-0.565,0.322-1.234,0.464-1.992
	c3.856,1.718,6.548,5.577,6.548,10.07v22.986c0,6.09-4.937,11.027-11.027,11.027h-6.954c0.192-4.985,0.871-9.955,2.053-14.832
	C411.164,300.141,415.141,291.29,417.836,282.133z M359.438,478.709c0,0,2.848,4.424,4.715,9.057
	c0.421,1.044,0.792,2.098,1.069,3.114c0.227,0.834-0.248,1.68-1.038,1.816l-27.752,4.779l-5.262,0.906l-6.85,1.18
	c-0.626,0.108-1.154-0.528-0.988-1.18c0.001-0.004,0.001-0.009,0.002-0.013l0.527-1.954c0.269-0.999,0.694-1.922,1.239-2.745
	l-27.362,4.712l-4.713,0.812v-7.132c0.744-0.69,1.604-1.244,2.55-1.625l5.793-2.335c3.003-1.211,6.471-2.909,7.868-6.005
	l2.613-5.912l0.858,0.514l3.21,1.923c1.106,0.662,2.367,0.944,3.609,0.807l5.285-0.586l1.194-0.132c0,0,3.593,5.587,5.352,10.78
	l3.444-1.388c3.003-1.211,6.471-2.909,7.868-6.005l2.613-5.912l0.858,0.514l3.21,1.923c1.106,0.662,2.367,0.944,3.609,0.807
	l5.285-0.586L359.438,478.709z M375.622,210.573h2.599c0.255,2.511,2.357,4.484,4.934,4.484s4.679-1.973,4.934-4.484h2.515h9.401v-1
	h-9.599h-2.318c-0.255-2.511-2.357-4.485-4.934-4.485s-4.68,1.974-4.934,4.485h-2.599c-0.255-2.511-2.357-4.485-4.934-4.485
	c-0.576,0-1.12,0.118-1.635,0.298c-1.943,0.681-3.349,2.514-3.349,4.686c0,2.173,1.406,4.006,3.349,4.687
	c0.515,0.18,1.06,0.298,1.635,0.298C373.264,215.058,375.366,213.084,375.622,210.573z M383.155,206.279
	c2.093,0,3.794,1.702,3.794,3.794c0,2.093-1.702,3.794-3.794,3.794s-3.794-1.702-3.794-3.794
	C379.36,207.981,381.062,206.279,383.155,206.279z M366.893,210.073c0-1.504,0.887-2.795,2.159-3.408
	c0.497-0.24,1.047-0.385,1.635-0.385c2.093,0,3.794,1.702,3.794,3.794c0,2.093-1.702,3.794-3.794,3.794
	c-0.588,0-1.138-0.146-1.635-0.385C367.78,212.868,366.893,211.577,366.893,210.073z"></path>
<path id="color_x5F_3" fill="#E84393" d="M369.052,197.079v6.223c-2.118-0.913-4.146-2.048-5.529-3.859
	c-1.783-2.335-1.987-6.136,0.343-7.927c-3.242-2.676-3.626-7.795-1.724-11.544s5.583-6.294,9.424-8.005
	c2.391-1.065,5.063-1.879,7.605-1.25c0.008,0.002,0.016,0.005,0.024,0.007c1.178,0.297,2.279,1.007,3.066,1.935
	c0.905,1.067,1.394,2.422,1.086,3.783c1.181-0.158,2.372-0.298,3.563-0.356c0.388-0.019,0.776-0.012,1.164-0.011
	c0.813,0.002,1.624,0.035,2.43,0.156c2.368,0.354,4.716,1.375,6.242,3.221c1.209,1.462,1.782,3.487,1.414,5.317
	c-0.058,0.287-0.14,0.568-0.246,0.842c-0.071,0.185-0.137,0.372-0.232,0.549c4.208-0.25,8.417,2.533,9.835,6.503
	s-0.076,8.79-3.49,11.262c2.876,1.329,4.345,4.826,3.903,7.963c-0.442,3.137-2.488,5.87-4.997,7.804
	c-1.162,0.895-2.422,1.638-3.73,2.301c0.02-0.323,0.049-0.645,0.049-0.973v0c1.189-0.617,2.008-1.859,2.008-3.285v-2.582
	c0-2.035-1.665-3.701-3.701-3.701c-2.035,0-3.701,1.665-3.701,3.701v1.463h-2.061l-1.193-6.041h9.401v-1h-9.599l-1.01-5.114
	l-3.028-1.557l-1.02-5.823H369.052z"></path>
<path id="color_x5F_2" fill="#FBC02D" d="M336.44,149.999c0.245,0.068,0.391,0.322,0.323,0.568
	c-0.057,0.205-0.243,0.339-0.446,0.339c-0.041,0-0.081-0.005-0.123-0.016c-1.185-0.326-2.377-0.636-3.573-0.931
	c-0.247-0.061-0.399-0.311-0.337-0.559c0.061-0.247,0.306-0.399,0.559-0.338C334.047,149.359,335.246,149.672,336.44,149.999z
	 M370.697,164.307c-0.22-0.126-0.503-0.051-0.63,0.169c-0.128,0.221-0.052,0.503,0.169,0.631c1.068,0.617,2.129,1.246,3.179,1.889
	c0.075,0.046,0.158,0.068,0.241,0.068c0.155,0,0.307-0.078,0.394-0.221c0.133-0.217,0.064-0.502-0.153-0.635
	C372.838,165.561,371.772,164.927,370.697,164.307z M322.845,146.964c-0.245-0.045-0.49,0.125-0.533,0.376
	c-0.044,0.251,0.124,0.49,0.376,0.534c1.215,0.211,2.425,0.437,3.63,0.678c0.03,0.006,0.06,0.009,0.091,0.009
	c0.216,0,0.408-0.152,0.452-0.371c0.051-0.25-0.112-0.493-0.362-0.543C325.286,147.403,324.069,147.176,322.845,146.964z
	 M342.67,151.858c-0.241-0.078-0.502,0.055-0.581,0.297c-0.078,0.243,0.054,0.503,0.298,0.581c1.176,0.381,2.347,0.775,3.511,1.184
	c0.05,0.018,0.103,0.026,0.153,0.026c0.19,0,0.369-0.119,0.436-0.309c0.085-0.24-0.042-0.504-0.282-0.588
	C345.033,152.638,343.855,152.241,342.67,151.858z M312.724,145.569c-0.249-0.019-0.48,0.158-0.506,0.413
	c-0.026,0.253,0.158,0.48,0.412,0.506c1.227,0.126,2.45,0.266,3.668,0.423c0.02,0.002,0.04,0.004,0.06,0.004
	c0.228,0,0.427-0.17,0.457-0.403c0.032-0.252-0.146-0.484-0.4-0.517C315.19,145.838,313.96,145.696,312.724,145.569z
	 M361.659,159.505c-0.226-0.11-0.505-0.017-0.617,0.213c-0.112,0.229-0.016,0.506,0.213,0.617c1.11,0.541,2.212,1.095,3.306,1.663
	c0.069,0.035,0.141,0.052,0.213,0.052c0.167,0,0.327-0.091,0.409-0.249c0.118-0.226,0.03-0.505-0.197-0.623
	C363.886,160.607,362.777,160.05,361.659,159.505z M352.301,155.348c-0.234-0.095-0.506,0.019-0.601,0.256
	c-0.096,0.237,0.019,0.506,0.256,0.601c1.146,0.462,2.285,0.937,3.416,1.428c0.06,0.026,0.123,0.038,0.184,0.038
	c0.179,0,0.348-0.104,0.424-0.278c0.101-0.234-0.006-0.506-0.24-0.607C354.601,156.292,353.455,155.813,352.301,155.348z
	 M255.752,150.881c-1.189,0.354-2.372,0.723-3.548,1.107c-0.242,0.079-0.375,0.34-0.296,0.582c0.064,0.195,0.245,0.318,0.439,0.318
	c0.047,0,0.096-0.007,0.143-0.023c1.168-0.381,2.343-0.748,3.524-1.1c0.244-0.073,0.384-0.33,0.311-0.574
	C256.254,150.948,255.997,150.808,255.752,150.881z M246.07,154.143c-1.161,0.437-2.315,0.888-3.461,1.353
	c-0.236,0.096-0.35,0.365-0.254,0.602c0.073,0.18,0.246,0.288,0.428,0.288c0.058,0,0.117-0.011,0.174-0.034
	c1.139-0.463,2.285-0.911,3.439-1.345c0.238-0.09,0.359-0.356,0.269-0.595C246.575,154.173,246.31,154.053,246.07,154.143z
	 M265.639,148.309c-1.211,0.27-2.417,0.555-3.616,0.855c-0.248,0.062-0.398,0.313-0.336,0.56c0.052,0.21,0.24,0.35,0.447,0.35
	c0.037,0,0.075-0.005,0.112-0.014c1.192-0.298,2.39-0.581,3.594-0.85c0.249-0.055,0.406-0.302,0.35-0.551
	C266.135,148.41,265.89,148.254,265.639,148.309z M282.131,145.613c-0.254,0.027-0.438,0.254-0.411,0.507
	c0.025,0.237,0.225,0.413,0.459,0.413c0.016,0,0.032-0.001,0.049-0.003c1.221-0.129,2.446-0.242,3.677-0.34
	c0.254-0.02,0.444-0.243,0.424-0.497c-0.021-0.254-0.237-0.442-0.497-0.423C284.593,145.369,283.359,145.484,282.131,145.613z
	 M302.534,144.882c-0.005,0-0.011,0-0.015,0c-0.248,0-0.454,0.197-0.462,0.446c-0.008,0.255,0.192,0.469,0.446,0.477
	c1.234,0.041,2.464,0.096,3.689,0.167c0.009,0,0.018,0.001,0.027,0.001c0.244,0,0.446-0.189,0.461-0.435
	c0.014-0.254-0.179-0.473-0.434-0.487C305.012,144.978,303.775,144.922,302.534,144.882z M272.014,147.037
	c-0.251,0.044-0.419,0.284-0.374,0.535c0.039,0.224,0.234,0.381,0.454,0.381c0.027,0,0.054-0.002,0.081-0.007
	c1.209-0.213,2.424-0.412,3.644-0.595c0.253-0.038,0.426-0.273,0.388-0.525c-0.038-0.252-0.269-0.421-0.525-0.388
	C274.454,146.622,273.232,146.821,272.014,147.037z M409.03,196.912c-0.195,0.164-0.22,0.456-0.056,0.651
	c0.793,0.94,1.573,1.891,2.34,2.852c0.091,0.114,0.226,0.174,0.361,0.174c0.101,0,0.203-0.033,0.289-0.101
	c0.198-0.159,0.232-0.45,0.072-0.649c-0.773-0.967-1.558-1.924-2.355-2.871C409.516,196.773,409.224,196.749,409.03,196.912z
	 M441.537,315.622c0.026,0.005,0.051,0.006,0.077,0.006c0.221,0,0.417-0.161,0.455-0.386c0.203-1.221,0.389-2.445,0.56-3.674
	c0.035-0.253-0.141-0.486-0.393-0.521c-0.245-0.029-0.487,0.141-0.521,0.393c-0.17,1.222-0.355,2.439-0.556,3.651
	C441.116,315.342,441.286,315.58,441.537,315.622z M442.066,270.145c-0.253,0.036-0.429,0.269-0.392,0.522
	c0.171,1.216,0.328,2.437,0.47,3.663c0.028,0.235,0.227,0.409,0.458,0.409c0.018,0,0.036-0.001,0.054-0.003
	c0.253-0.029,0.435-0.258,0.406-0.512c-0.143-1.233-0.3-2.462-0.474-3.685C442.553,270.285,442.322,270.106,442.066,270.145z
	 M415.336,204.9c-0.206,0.15-0.251,0.439-0.101,0.645c0.725,0.993,1.437,1.995,2.137,3.006c0.089,0.13,0.234,0.199,0.38,0.199
	c0.091,0,0.182-0.027,0.262-0.082c0.21-0.145,0.262-0.432,0.117-0.642c-0.703-1.019-1.42-2.027-2.149-3.026
	C415.83,204.795,415.54,204.75,415.336,204.9z M441.167,264.661c0.251-0.047,0.416-0.288,0.369-0.539
	c-0.229-1.22-0.472-2.434-0.73-3.644c-0.054-0.249-0.297-0.411-0.548-0.355c-0.249,0.053-0.409,0.298-0.355,0.548
	c0.256,1.201,0.499,2.409,0.726,3.621c0.042,0.222,0.235,0.377,0.453,0.377C441.11,264.67,441.139,264.667,441.167,264.661z
	 M439.307,254.153c-0.313-1.2-0.64-2.395-0.983-3.584c-0.071-0.245-0.329-0.386-0.572-0.316c-0.245,0.071-0.386,0.326-0.316,0.572
	c0.341,1.181,0.667,2.368,0.978,3.56c0.054,0.208,0.241,0.345,0.446,0.345c0.038,0,0.078-0.005,0.116-0.015
	C439.224,254.651,439.372,254.399,439.307,254.153z M236.655,158.068c-1.124,0.516-2.24,1.045-3.348,1.588
	c-0.229,0.112-0.323,0.389-0.212,0.618c0.08,0.163,0.244,0.258,0.415,0.258c0.068,0,0.138-0.015,0.203-0.047
	c1.101-0.54,2.21-1.066,3.326-1.578c0.232-0.106,0.334-0.38,0.227-0.612C237.161,158.064,236.887,157.963,236.655,158.068z
	 M439.495,325.599c0.036,0.009,0.072,0.013,0.107,0.013c0.209,0,0.399-0.142,0.449-0.354c0.287-1.204,0.558-2.413,0.815-3.627
	c0.052-0.25-0.106-0.494-0.356-0.547c-0.251-0.047-0.494,0.107-0.547,0.356c-0.255,1.207-0.525,2.407-0.81,3.603
	C439.094,325.291,439.247,325.54,439.495,325.599z M442.742,280.762c0.087,1.224,0.16,2.453,0.216,3.686
	c0.011,0.248,0.215,0.441,0.461,0.441c0.006,0,0.014,0,0.021,0c0.255-0.012,0.452-0.227,0.44-0.482
	c-0.056-1.241-0.128-2.478-0.216-3.71c-0.019-0.255-0.257-0.45-0.493-0.427C442.916,280.286,442.724,280.507,442.742,280.762z
	 M426.201,222.08c-0.226,0.12-0.31,0.4-0.19,0.625c0.578,1.081,1.144,2.172,1.696,3.269c0.081,0.161,0.244,0.254,0.412,0.254
	c0.07,0,0.141-0.016,0.207-0.049c0.228-0.115,0.319-0.392,0.205-0.62c-0.555-1.105-1.124-2.201-1.706-3.29
	C426.704,222.043,426.422,221.961,426.201,222.08z M430.705,231.188c-0.233,0.105-0.337,0.377-0.233,0.611
	c0.501,1.118,0.988,2.244,1.461,3.377c0.074,0.177,0.245,0.284,0.426,0.284c0.06,0,0.12-0.011,0.178-0.036
	c0.235-0.098,0.346-0.368,0.248-0.604c-0.475-1.14-0.966-2.274-1.47-3.399C431.21,231.187,430.937,231.084,430.705,231.188z
	 M421.069,213.303c-0.216,0.135-0.281,0.42-0.146,0.636c0.653,1.04,1.293,2.089,1.921,3.146c0.086,0.145,0.24,0.226,0.397,0.226
	c0.08,0,0.161-0.021,0.235-0.065c0.219-0.13,0.292-0.413,0.161-0.633c-0.631-1.064-1.275-2.119-1.932-3.165
	C421.569,213.233,421.284,213.169,421.069,213.303z M442.923,305.529c0.235,0,0.436-0.179,0.459-0.418
	c0.116-1.231,0.217-2.465,0.302-3.704c0.017-0.254-0.175-0.475-0.429-0.493c-0.255-0.012-0.474,0.175-0.492,0.429
	c-0.085,1.231-0.184,2.457-0.3,3.68c-0.023,0.254,0.162,0.479,0.417,0.503C442.893,305.529,442.907,305.529,442.923,305.529z
	 M443.989,294.913c0.031-1.234,0.046-2.473,0.046-3.715v-0.29c0-0.255-0.207-0.462-0.462-0.462s-0.462,0.207-0.462,0.462v0.29
	c0,1.234-0.015,2.465-0.046,3.692c-0.006,0.255,0.196,0.467,0.45,0.474c0.004,0,0.008,0,0.012,0
	C443.777,295.363,443.982,295.164,443.989,294.913z M434.557,240.583c-0.24,0.088-0.363,0.353-0.275,0.592
	c0.423,1.154,0.831,2.316,1.226,3.484c0.065,0.192,0.244,0.314,0.437,0.314c0.049,0,0.099-0.008,0.148-0.024
	c0.242-0.082,0.372-0.344,0.29-0.585c-0.397-1.176-0.808-2.344-1.233-3.506C435.062,240.619,434.798,240.496,434.557,240.583z
	 M292.321,144.896c-0.255,0.009-0.455,0.223-0.445,0.478c0.009,0.249,0.214,0.445,0.461,0.445c0.006,0,0.011,0,0.017,0
	c1.226-0.043,2.455-0.072,3.688-0.086c0.255-0.003,0.46-0.212,0.457-0.467c-0.003-0.255-0.199-0.419-0.467-0.457
	C294.791,144.823,293.554,144.852,292.321,144.896z M429.227,354.375c0.065,0.031,0.133,0.045,0.199,0.045
	c0.172,0,0.337-0.096,0.417-0.262c0.535-1.12,1.055-2.247,1.562-3.383c0.104-0.234-0.001-0.506-0.234-0.611
	c-0.233-0.102-0.506,0.001-0.61,0.234c-0.503,1.128-1.02,2.249-1.551,3.361C428.899,353.99,428.997,354.265,429.227,354.375z
	 M299.089,436.664c-0.255,0.003-0.46,0.211-0.457,0.466c0.003,0.253,0.209,0.457,0.462,0.457c0.002,0,0.003,0,0.005,0
	c0.52-0.005,1.037-0.024,1.557-0.034c-0.09-0.306-0.18-0.611-0.271-0.918C299.952,436.643,299.522,436.659,299.089,436.664z
	 M382.26,172.659c0.108-0.024,0.211-0.074,0.28-0.171c0.148-0.208,0.099-0.496-0.108-0.644c-1.01-0.719-2.029-1.425-3.058-2.118
	c-0.211-0.141-0.497-0.088-0.641,0.125c-0.142,0.211-0.086,0.498,0.125,0.641c0.113,0.076,0.223,0.156,0.336,0.233
	C380.372,171.021,381.473,171.73,382.26,172.659z M424.486,363.408c0.072,0.041,0.15,0.06,0.227,0.06
	c0.161,0,0.317-0.084,0.402-0.234c0.611-1.08,1.209-2.166,1.793-3.262c0.12-0.226,0.034-0.505-0.19-0.625
	c-0.224-0.118-0.504-0.035-0.625,0.19c-0.581,1.089-1.175,2.17-1.782,3.242C424.186,363,424.264,363.281,424.486,363.408z
	 M227.544,162.641c-1.085,0.593-2.162,1.2-3.231,1.819c-0.221,0.128-0.296,0.41-0.168,0.631c0.086,0.147,0.241,0.23,0.4,0.23
	c0.078,0,0.158-0.02,0.231-0.062c1.062-0.616,2.132-1.218,3.21-1.808c0.224-0.122,0.306-0.403,0.184-0.626
	C228.048,162.601,227.767,162.518,227.544,162.641z M419.126,372.082c0.078,0.051,0.167,0.077,0.255,0.077
	c0.15,0,0.296-0.073,0.385-0.206c0.685-1.035,1.357-2.077,2.016-3.128c0.135-0.216,0.07-0.501-0.146-0.637s-0.501-0.07-0.637,0.146
	c-0.655,1.045-1.322,2.081-2.003,3.108C418.856,371.654,418.914,371.941,419.126,372.082z M433.325,345.025
	c0.056,0.023,0.113,0.032,0.17,0.032c0.184,0,0.358-0.111,0.429-0.292c0.456-1.156,0.896-2.318,1.32-3.487
	c0.088-0.24-0.036-0.504-0.276-0.592c-0.241-0.086-0.505,0.037-0.592,0.276c-0.423,1.162-0.859,2.316-1.311,3.463
	C432.971,344.664,433.088,344.932,433.325,345.025z M268.634,434.722c1.212,0.243,2.429,0.473,3.652,0.685
	c0.027,0.005,0.054,0.007,0.08,0.007c0.22,0,0.415-0.158,0.454-0.382c0.044-0.251-0.124-0.491-0.376-0.534
	c-1.215-0.213-2.425-0.44-3.629-0.682c-0.25-0.052-0.494,0.112-0.544,0.362S268.385,434.672,268.634,434.722z M159.137,337.309
	c-0.242,0.081-0.372,0.343-0.291,0.584c0.395,1.176,0.805,2.346,1.23,3.508c0.068,0.187,0.245,0.303,0.434,0.303
	c0.053,0,0.106-0.009,0.158-0.028c0.24-0.088,0.363-0.353,0.275-0.592c-0.422-1.155-0.829-2.315-1.222-3.484
	C159.641,337.358,159.38,337.229,159.137,337.309z M278.714,436.383c1.226,0.158,2.456,0.301,3.691,0.428
	c0.016,0.002,0.032,0.003,0.048,0.003c0.234,0,0.434-0.177,0.459-0.414c0.026-0.254-0.158-0.481-0.412-0.507
	c-1.227-0.127-2.45-0.269-3.668-0.427c-0.248-0.031-0.484,0.147-0.517,0.399C278.283,436.118,278.461,436.35,278.714,436.383z
	 M387.647,175.733c-0.202-0.156-0.492-0.123-0.648,0.08c-0.063,0.081-0.087,0.177-0.089,0.273c0.388-0.019,0.776-0.012,1.164-0.011
	C387.93,175.961,387.79,175.845,387.647,175.733z M398.23,185.469c0.175-0.185,0.167-0.478-0.018-0.653
	c-0.017-0.016-0.035-0.032-0.053-0.049c-0.058,0.287-0.14,0.568-0.246,0.842C398.029,185.605,398.144,185.56,398.23,185.469z
	 M379.607,411.956c-0.068-0.1-0.168-0.162-0.277-0.188v0.93c0.051-0.034,0.103-0.067,0.154-0.101
	C379.695,412.454,379.75,412.168,379.607,411.956z M384.509,408.932c0.096,0,0.192-0.03,0.275-0.091
	c0.994-0.737,1.979-1.487,2.953-2.249c0.201-0.157,0.237-0.447,0.079-0.648c-0.158-0.204-0.449-0.237-0.648-0.079
	c-0.969,0.757-1.946,1.502-2.935,2.235c-0.205,0.152-0.248,0.441-0.096,0.646C384.228,408.867,384.368,408.932,384.509,408.932z
	 M399.64,395.567c0.09,0.092,0.21,0.138,0.329,0.138c0.117,0,0.234-0.044,0.324-0.133c0.251-0.248,0.495-0.502,0.745-0.751h-1.3
	c-0.031,0.031-0.061,0.062-0.092,0.093C399.463,395.094,399.461,395.386,399.64,395.567z M392.467,402.589
	c0.106,0,0.213-0.036,0.3-0.111c0.941-0.805,1.87-1.623,2.79-2.45c0.19-0.171,0.206-0.463,0.035-0.652
	c-0.171-0.191-0.464-0.206-0.652-0.035c-0.914,0.823-1.839,1.635-2.774,2.435c-0.194,0.166-0.216,0.457-0.05,0.651
	C392.207,402.534,392.337,402.589,392.467,402.589z M162.684,346.838c-0.235,0.098-0.347,0.369-0.248,0.604
	c0.475,1.141,0.964,2.275,1.467,3.401c0.077,0.171,0.245,0.273,0.422,0.273c0.063,0,0.127-0.013,0.188-0.04
	c0.233-0.105,0.337-0.378,0.233-0.61c-0.5-1.119-0.986-2.246-1.458-3.379C163.19,346.851,162.919,346.743,162.684,346.838z
	 M358.296,424.43c0.064,0,0.13-0.013,0.192-0.041c1.125-0.514,2.241-1.043,3.35-1.585c0.229-0.112,0.324-0.389,0.212-0.618
	c-0.113-0.23-0.391-0.322-0.618-0.212c-1.101,0.538-2.211,1.063-3.328,1.574c-0.232,0.106-0.334,0.381-0.228,0.612
	C357.953,424.33,358.121,424.43,358.296,424.43z M323.492,434.851c-0.041-0.24-0.273-0.402-0.498-0.375
	c0.034,0.304,0.069,0.607,0.102,0.912c0.007-0.001,0.014-0.002,0.021-0.003C323.369,435.341,323.536,435.102,323.492,434.851z
	 M293.026,436.855v0.393c0.027-0.056,0.045-0.118,0.047-0.185C293.076,436.988,293.056,436.919,293.026,436.855z M328.943,433.769
	c0.048,0.216,0.239,0.362,0.451,0.362c0.033,0,0.067-0.004,0.1-0.011c1.12-0.249,2.234-0.513,3.344-0.787
	c-0.088-0.296-0.175-0.591-0.263-0.887c-1.089,0.269-2.182,0.529-3.281,0.772C329.045,433.273,328.888,433.52,328.943,433.769z
	 M243.011,427.026c0.183,0,0.355-0.109,0.428-0.289c0.096-0.236-0.019-0.506-0.255-0.602c-0.186-0.075-0.368-0.156-0.553-0.232
	v1.002c0.069,0.028,0.137,0.059,0.207,0.087C242.894,427.015,242.953,427.026,243.011,427.026z M367.383,419.881
	c0.075,0,0.151-0.018,0.221-0.056c1.086-0.593,2.164-1.198,3.232-1.817c0.221-0.127,0.297-0.41,0.169-0.63
	c-0.128-0.221-0.413-0.298-0.63-0.169c-1.063,0.615-2.134,1.217-3.213,1.804c-0.224,0.123-0.307,0.403-0.185,0.627
	C367.061,419.795,367.22,419.881,367.383,419.881z M288.451,436.85c-0.015,0.254,0.179,0.474,0.434,0.488
	c0.49,0.029,0.984,0.044,1.475,0.068v-0.925c-0.473-0.023-0.949-0.038-1.421-0.066C288.691,436.393,288.466,436.595,288.451,436.85z
	 M438.404,331.545c0.07-0.245-0.071-0.5-0.317-0.571c-0.249-0.076-0.501,0.071-0.571,0.317c-0.097,0.339-0.204,0.674-0.304,1.013
	h0.964C438.251,332.05,438.332,331.799,438.404,331.545z M181.361,202.237c-0.754,0.984-1.495,1.978-2.224,2.981
	c-0.15,0.206-0.104,0.495,0.102,0.645c0.082,0.06,0.177,0.088,0.271,0.088c0.143,0,0.284-0.066,0.374-0.19
	c0.725-0.997,1.462-1.984,2.211-2.962c0.155-0.202,0.117-0.492-0.086-0.648C181.806,201.997,181.516,202.036,181.361,202.237z
	 M187.855,194.346c-0.819,0.928-1.627,1.867-2.424,2.817c-0.164,0.195-0.138,0.487,0.057,0.651c0.087,0.072,0.192,0.108,0.296,0.108
	c0.132,0,0.263-0.056,0.354-0.165c0.791-0.943,1.595-1.877,2.409-2.8c0.169-0.191,0.151-0.483-0.041-0.652
	C188.316,194.137,188.024,194.155,187.855,194.346z M194.879,186.927c-0.882,0.869-1.753,1.75-2.613,2.641
	c-0.177,0.183-0.172,0.476,0.012,0.653c0.09,0.087,0.205,0.129,0.321,0.129c0.121,0,0.242-0.047,0.332-0.141
	c0.855-0.886,1.72-1.76,2.596-2.624c0.182-0.179,0.184-0.471,0.005-0.653C195.352,186.749,195.059,186.747,194.879,186.927z
	 M170.089,219.29c-0.611,1.08-1.207,2.168-1.79,3.264c-0.12,0.225-0.034,0.505,0.191,0.625c0.069,0.037,0.143,0.054,0.217,0.054
	c0.165,0,0.325-0.089,0.408-0.245c0.58-1.09,1.173-2.171,1.779-3.244c0.126-0.222,0.047-0.504-0.175-0.63
	C170.496,218.991,170.214,219.069,170.089,219.29z M196.94,396.825c-0.176,0.185-0.168,0.477,0.018,0.653
	c0.899,0.852,1.809,1.692,2.729,2.522c0.088,0.08,0.199,0.119,0.309,0.119c0.126,0,0.252-0.051,0.343-0.152
	c0.17-0.189,0.156-0.482-0.034-0.652c-0.915-0.824-1.819-1.66-2.713-2.507C197.408,396.634,197.116,396.641,196.94,396.825z
	 M175.428,210.566c-0.684,1.035-1.355,2.078-2.013,3.13c-0.135,0.216-0.07,0.501,0.147,0.636c0.076,0.048,0.161,0.07,0.244,0.07
	c0.154,0,0.304-0.077,0.392-0.217c0.654-1.046,1.32-2.082,2-3.11c0.141-0.213,0.083-0.499-0.13-0.64
	C175.855,210.294,175.569,210.352,175.428,210.566z M219.407,167.98c-0.137-0.215-0.424-0.279-0.638-0.14
	c-1.042,0.667-2.075,1.347-3.098,2.041c-0.211,0.143-0.267,0.43-0.124,0.641c0.089,0.132,0.235,0.203,0.383,0.203
	c0.089,0,0.179-0.026,0.258-0.079c1.017-0.689,2.044-1.365,3.079-2.028C219.482,168.48,219.544,168.195,219.407,167.98z
	 M165.37,228.372c-0.533,1.121-1.052,2.248-1.558,3.384c-0.103,0.233,0.001,0.506,0.234,0.61c0.061,0.027,0.124,0.04,0.187,0.04
	c0.177,0,0.346-0.102,0.422-0.274c0.502-1.128,1.018-2.249,1.548-3.362c0.11-0.23,0.012-0.506-0.219-0.616
	C165.754,228.045,165.48,228.142,165.37,228.372z M212.618,409.823c-0.148,0.208-0.1,0.496,0.108,0.644
	c1.009,0.719,2.028,1.427,3.055,2.121c0.079,0.054,0.17,0.079,0.258,0.079c0.148,0,0.294-0.071,0.383-0.203
	c0.143-0.212,0.088-0.499-0.124-0.641c-1.021-0.691-2.034-1.393-3.037-2.109C213.055,409.568,212.767,409.617,212.618,409.823z
	 M221.102,415.477c-0.133,0.217-0.065,0.501,0.152,0.635c1.058,0.648,2.124,1.283,3.198,1.904c0.073,0.042,0.152,0.062,0.231,0.062
	c0.16,0,0.315-0.083,0.4-0.231c0.128-0.22,0.052-0.503-0.168-0.63c-1.068-0.618-2.128-1.249-3.178-1.893
	C221.519,415.191,221.234,415.26,221.102,415.477z M203.048,180.064c-0.165-0.193-0.457-0.215-0.651-0.05
	c-0.939,0.805-1.869,1.623-2.788,2.452c-0.189,0.17-0.204,0.463-0.033,0.652c0.091,0.101,0.216,0.152,0.343,0.152
	c0.111,0,0.221-0.039,0.309-0.119c0.914-0.824,1.837-1.636,2.771-2.437C203.192,180.549,203.214,180.258,203.048,180.064z
	 M211.02,173.736c-0.152-0.205-0.441-0.248-0.646-0.095c-0.994,0.739-1.977,1.49-2.951,2.253c-0.201,0.157-0.236,0.447-0.079,0.648
	c0.091,0.116,0.227,0.177,0.364,0.177c0.1,0,0.2-0.032,0.285-0.098c0.967-0.758,1.944-1.504,2.932-2.238
	C211.129,174.23,211.172,173.941,211.02,173.736z M204.552,403.595c-0.162,0.197-0.134,0.488,0.063,0.65
	c0.956,0.788,1.922,1.565,2.899,2.328c0.085,0.067,0.185,0.098,0.284,0.098c0.138,0,0.273-0.061,0.364-0.178
	c0.157-0.2,0.121-0.491-0.079-0.648c-0.97-0.759-1.931-1.531-2.881-2.313C205.005,403.37,204.714,403.4,204.552,403.595z
	 M177.181,373.607c-0.21,0.145-0.263,0.433-0.118,0.643c0.703,1.019,1.419,2.028,2.146,3.028c0.091,0.125,0.231,0.19,0.374,0.19
	c0.094,0,0.189-0.029,0.271-0.088c0.206-0.151,0.252-0.439,0.101-0.645c-0.723-0.994-1.434-1.996-2.133-3.01
	C177.678,373.515,177.39,373.463,177.181,373.607z M183.221,381.795c-0.199,0.159-0.232,0.449-0.073,0.648
	c0.772,0.969,1.557,1.925,2.353,2.873c0.091,0.109,0.222,0.165,0.354,0.165c0.105,0,0.21-0.035,0.297-0.108
	c0.195-0.164,0.221-0.456,0.056-0.65c-0.791-0.942-1.571-1.893-2.338-2.855C183.711,381.668,183.421,381.636,183.221,381.795z
	 M189.819,389.547c-0.188,0.172-0.201,0.464-0.028,0.652c0.838,0.913,1.687,1.815,2.547,2.705c0.091,0.094,0.211,0.141,0.332,0.141
	c0.115,0,0.231-0.043,0.321-0.13c0.183-0.177,0.188-0.469,0.011-0.653c-0.855-0.885-1.698-1.779-2.53-2.687
	C190.299,389.387,190.006,389.375,189.819,389.547z M166.885,356.086c-0.228,0.115-0.32,0.392-0.206,0.62
	c0.554,1.106,1.121,2.203,1.702,3.293c0.083,0.156,0.243,0.244,0.408,0.244c0.073,0,0.147-0.017,0.217-0.054
	c0.225-0.12,0.31-0.4,0.19-0.625c-0.577-1.082-1.141-2.173-1.692-3.271C167.391,356.063,167.114,355.972,166.885,356.086z
	 M258.695,432.359c1.193,0.328,2.391,0.641,3.595,0.94c0.037,0.009,0.074,0.013,0.111,0.013c0.207,0,0.395-0.141,0.448-0.351
	c0.061-0.247-0.09-0.498-0.337-0.559c-1.196-0.297-2.387-0.608-3.572-0.934c-0.245-0.066-0.5,0.077-0.568,0.323
	C258.305,432.037,258.449,432.292,258.695,432.359z M155.932,328.103c0.312,1.2,0.639,2.395,0.98,3.584
	c0.058,0.203,0.243,0.335,0.443,0.335c0.042,0,0.085-0.005,0.128-0.018c0.245-0.07,0.387-0.326,0.316-0.571
	c-0.339-1.182-0.664-2.369-0.974-3.563c-0.001-0.004-0.004-0.006-0.005-0.01c-0.283-0.02-0.565-0.054-0.846-0.091
	C155.922,327.869,155.902,327.986,155.932,328.103z M233.485,422.827c0.065,0.032,0.134,0.047,0.202,0.047
	c0.171,0,0.335-0.096,0.415-0.259c0.112-0.229,0.017-0.506-0.212-0.618c-1.11-0.542-2.211-1.098-3.305-1.667
	c-0.227-0.118-0.506-0.031-0.623,0.197c-0.118,0.225-0.03,0.505,0.196,0.622C231.26,421.722,232.369,422.281,233.485,422.827z
	 M239.768,424.706c-0.233-0.102-0.505,0.006-0.607,0.24c-0.101,0.234,0.006,0.506,0.24,0.608c0.187,0.081,0.376,0.156,0.563,0.236
	v-1.002C239.899,424.76,239.833,424.734,239.768,424.706z M252.751,429.614c-1.177-0.382-2.346-0.776-3.51-1.188
	c-0.241-0.087-0.504,0.041-0.589,0.281c-0.085,0.241,0.042,0.505,0.282,0.59c1.171,0.413,2.349,0.812,3.532,1.195
	c0.047,0.015,0.096,0.023,0.142,0.023c0.195,0,0.376-0.124,0.439-0.319C253.127,429.953,252.994,429.692,252.751,429.614z
	 M171.726,365.024c-0.219,0.131-0.292,0.414-0.162,0.633c0.63,1.065,1.274,2.12,1.93,3.167c0.088,0.14,0.238,0.216,0.392,0.216
	c0.084,0,0.169-0.022,0.245-0.07c0.216-0.135,0.281-0.42,0.146-0.637c-0.652-1.04-1.291-2.09-1.918-3.148
	C172.229,364.968,171.946,364.895,171.726,365.024z M121.683,260.553v-10.935c0-4.974,4.047-9.02,9.02-9.02h54.229
	c4.974,0,9.02,4.047,9.02,9.02v10.935c0,23.84-11.532,46.415-30.848,60.388c-3.162,2.287-7.411,2.287-10.574,0
	C133.215,306.968,121.683,284.393,121.683,260.553z M147.779,296.4h20.078c3.108,0,5.628-2.52,5.628-5.628v-16.123
	c0-2.163-1.222-4.039-3.012-4.981v-1.452c0-6.977-5.677-12.654-12.654-12.654c-6.978,0-12.654,5.677-12.654,12.654v1.452
	c-1.79,0.942-3.012,2.818-3.012,4.981v16.123C142.151,293.88,144.671,296.4,147.779,296.4z M166.154,269.021v-0.805
	c0-4.596-3.739-8.336-8.336-8.336c-4.597,0-8.336,3.74-8.336,8.336v0.805H166.154z M220.865,84.625c0-4.595-3.738-8.333-8.333-8.333
	s-8.333,3.738-8.333,8.333v0.804h16.666V84.625z M170.511,116.679c-1.157,0-2.214-0.57-2.759-1.487
	c-1.667-2.81-2.549-6.034-2.549-9.322c0-8.02,5.361-15.231,13.037-17.535c3.334-1.001,6.05-3.349,7.453-6.445
	c4.844-10.696,15.555-17.607,27.287-17.607c16.514,0,29.949,13.435,29.95,29.873l-0.004,4.044l3.793,0.459
	c7.492,0.906,13.141,7.288,13.141,14.907c-0.007,1.717-1.483,3.114-3.289,3.114H170.511z M196.871,107.172
	c0,3.107,2.519,5.626,5.626,5.626h20.07c3.107,0,5.626-2.519,5.626-5.626V91.056c0-2.163-1.222-4.037-3.011-4.979v-1.451
	c0-6.975-5.675-12.649-12.649-12.649s-12.649,5.675-12.649,12.649v1.451c-1.789,0.942-3.011,2.816-3.011,4.979V107.172z
	 M359.904,126.264c0,2.441,1.986,4.426,4.427,4.426h71.977c2.441,0,4.427-1.986,4.427-4.426v-42.19c0-1.252-0.523-2.434-1.442-3.274
	l-0.149-0.123c-0.187-0.156-0.386-0.292-0.59-0.414l-26.712,17.398c0.005,0.142,0.021,0.281,0.021,0.424v1.324
	c1.633,0.859,2.748,2.57,2.748,4.544v14.708c0,2.835-2.299,5.134-5.134,5.134h-18.316c-2.835,0-5.134-2.299-5.134-5.134v-14.708
	c0-1.974,1.115-3.685,2.748-4.544v-1.324c0-0.143,0.016-0.281,0.021-0.423l-26.72-17.399c-0.205,0.122-0.404,0.257-0.591,0.413
	c-1.004,0.842-1.582,2.081-1.582,3.396V126.264z"></path>
<path id="color_x5F_1_1_" fill="#BC6DCA" d="M457.19,497.569c0.142,0.271,0.286,0.541,0.428,0.812h-2.897v-5.52
	C455.545,494.431,456.368,496,457.19,497.569z M440.644,475.96c2.156,4.339,4.794,8.48,6.863,12.841
	c1.504,3.169,2.941,6.369,4.354,9.58h0.194v-10.586c-3.528-6.692-7.094-13.362-10.818-19.946
	C440.759,470.535,440.575,473.252,440.644,475.96z M450.377,448.29c0.571,1.519,1.124,3.045,1.679,4.57v-5.999
	c-0.041-0.125-0.084-0.249-0.125-0.373C451.402,447.079,450.876,447.674,450.377,448.29z M457.614,453.553
	c0.655,1.808-2.088,2.61-2.892,1.009v5.793c4.358,12.57,8.277,25.292,12.161,38.026h1.129c-4.299-19.167-7.185-38.645-9.216-58.232
	c-1.424,1.077-2.779,2.242-4.074,3.468v1.468C455.655,447.918,456.597,450.748,457.614,453.553z M454.722,486.24
	c2.044,3.875,4.08,7.755,6.117,11.635c0.089,0.169,0.18,0.336,0.269,0.505h2.574c-2.903-9.534-5.831-19.059-8.96-28.514V486.24z
	 M444.95,456.716c2.166,4.088,4.322,8.182,6.307,12.36c0.85,1.79-1.817,3.357-2.67,1.561c-1.658-3.49-3.43-6.921-5.225-10.34
	c-0.401,1.035-0.764,2.086-1.081,3.153c3.366,5.857,6.597,11.789,9.775,17.75V462c-1.249-3.612-2.527-7.214-3.858-10.797
	C446.985,452.963,445.9,454.807,444.95,456.716z M486.83,430.654c-0.211-0.004-0.421-0.016-0.632-0.016
	c-3.675-0.008-7.317,0.49-10.85,1.417c-0.891,12.198-1.377,24.402-0.235,36.64c0.185,1.984-2.909,1.965-3.092,0
	c-1.112-11.918-0.68-23.806,0.166-35.685c-3.685,1.261-7.216,2.99-10.495,5.117c2.053,20.271,4.997,40.43,9.474,60.255h7.183
	C477.806,475.751,482.466,453.177,486.83,430.654z M509.568,482.474c3.411-8.87,6.807-17.8,10.98-26.345
	c0.997-2.041,2.025-4.084,3.034-6.139c-0.475-0.625-0.964-1.238-1.469-1.839c-1.394,2.611-2.764,5.235-4.089,7.884
	c-4.557,9.109-8.694,18.403-12.833,27.706c-2.083,4.683-4.458,9.595-6.72,14.639h5.19
	C505.581,493.061,507.537,487.754,509.568,482.474z M501.033,454.409c2.23-6.001,4.611-11.94,7.129-17.818
	c-2.478-1.389-5.076-2.547-7.75-3.474c-3.117,9.239-5.858,18.586-7.523,28.236c-0.338,1.96-3.317,1.124-2.982-0.822
	c1.671-9.683,4.425-19.063,7.556-28.332c-2.487-0.679-5.029-1.155-7.604-1.387c-4.385,22.466-9.06,45.014-8.461,67.57h5.906
	C490.54,483.344,495.759,468.599,501.033,454.409z M501.975,483.402c4.625-10.326,9.188-20.666,14.304-30.763
	c1.18-2.329,2.408-4.63,3.651-6.922c-0.687-0.718-1.396-1.415-2.125-2.09c-2.235,3.608-4.475,7.213-6.853,10.731
	c-1.109,1.642-3.787,0.092-2.67-1.561c2.485-3.678,4.822-7.45,7.159-11.222c-1.478-1.208-3.021-2.337-4.623-3.372
	c-2.401,5.619-4.673,11.295-6.804,17.029c-5.172,13.916-10.323,28.392-13.552,43.15h4.67
	C497.411,493.223,499.827,488.198,501.975,483.402z M532.956,478.094c0.053-3.658-0.314-7.322-1.155-10.91
	c-0.039-0.164-0.086-0.326-0.127-0.49c-4.423,5.045-8.256,10.467-10.487,16.754c-0.662,1.865-3.648,1.057-2.982-0.822
	c2.614-7.367,7.245-13.561,12.482-19.338c-1.238-3.674-2.96-7.171-5.076-10.418c-4.573,9.307-8.55,18.781-12.299,28.453
	c-2.194,5.66-4.302,11.352-6.367,17.059h9.064C521.263,491.325,527.128,484.632,532.956,478.094z M106.942,497.569
	c-5.22-9.962-10.418-19.934-15.952-29.72c-0.479,2.686-0.663,5.403-0.594,8.111c2.156,4.339,4.794,8.48,6.863,12.841
	c1.504,3.169,2.941,6.369,4.354,9.58h5.757C107.227,498.11,107.084,497.84,106.942,497.569z M108.547,440.149
	c-1.559,1.179-3.045,2.452-4.448,3.809c1.054,3.21,2.114,6.418,3.266,9.595c0.68,1.877-2.309,2.678-2.982,0.822
	c-0.948-2.613-1.83-5.249-2.702-7.887c-0.529,0.591-1.055,1.187-1.554,1.802c6.19,16.46,11.375,33.265,16.506,50.091h1.129
	C113.465,479.214,110.578,459.736,108.547,440.149z M97.949,451.203c-1.213,1.76-2.298,3.604-3.248,5.514
	c2.166,4.088,4.322,8.182,6.307,12.36c0.85,1.79-1.817,3.357-2.67,1.561c-1.658-3.49-3.43-6.921-5.225-10.34
	c-0.401,1.035-0.764,2.086-1.081,3.153c6.496,11.304,12.498,22.879,18.558,34.425c0.089,0.169,0.18,0.336,0.269,0.505h2.574
	C108.609,482.537,103.715,466.719,97.949,451.203z M136.581,430.654c-0.211-0.004-0.421-0.016-0.632-0.016
	c-3.675-0.008-7.317,0.49-10.85,1.417c-0.891,12.198-1.377,24.402-0.235,36.64c0.185,1.984-2.909,1.965-3.092,0
	c-1.112-11.918-0.68-23.806,0.166-35.685c-3.685,1.261-7.216,2.99-10.495,5.117c2.053,20.271,4.997,40.43,9.474,60.255h7.183
	C127.557,475.751,132.217,453.177,136.581,430.654z M154.942,483.742c-2.083,4.683-4.458,9.595-6.72,14.639h5.19
	c1.919-5.32,3.876-10.627,5.907-15.907c2.932-7.623,5.856-15.29,9.268-22.72c0.106-0.23,0.211-0.46,0.318-0.689
	c0.456-0.982,0.919-1.962,1.394-2.935c0.997-2.041,2.025-4.084,3.034-6.139c-0.475-0.625-0.964-1.238-1.469-1.839
	c-1.394,2.611-2.764,5.235-4.089,7.884c-0.257,0.513-0.5,1.033-0.754,1.548c-0.116,0.235-0.229,0.472-0.345,0.707
	C162.554,466.678,158.741,475.203,154.942,483.742z M150.784,454.409c0.897-2.415,1.836-4.812,2.782-7.207
	c0.096-0.244,0.187-0.491,0.284-0.735c1.314-3.31,2.662-6.605,4.064-9.877c-2.478-1.389-5.076-2.547-7.75-3.474
	c-0.84,2.489-1.648,4.986-2.42,7.495c-0.083,0.269-0.162,0.539-0.244,0.809c-1.986,6.541-3.691,13.161-4.86,19.932
	c-0.338,1.96-3.317,1.124-2.982-0.822c1.268-7.347,3.161-14.519,5.367-21.601c0.083-0.266,0.17-0.531,0.254-0.797
	c0.625-1.984,1.269-3.962,1.935-5.935c-2.487-0.679-5.029-1.155-7.604-1.387c-0.068,0.351-0.137,0.702-0.206,1.053
	c-0.059,0.302-0.118,0.604-0.177,0.906c-4.27,21.817-8.659,43.71-8.078,65.61h5.906C140.291,483.344,145.51,468.599,150.784,454.409
	z M153.766,455.231c-5.172,13.916-10.323,28.392-13.552,43.15h4.67c2.279-5.158,4.694-10.183,6.842-14.979
	c4.063-9.073,8.101-18.146,12.486-27.066c0.113-0.231,0.227-0.462,0.341-0.693c0.495-1.001,0.972-2.009,1.477-3.005
	c1.18-2.329,2.408-4.63,3.651-6.922c-0.687-0.718-1.396-1.415-2.125-2.09c-1.979,3.193-3.975,6.375-6.053,9.506
	c-0.141,0.212-0.276,0.428-0.418,0.64c-0.13,0.193-0.251,0.392-0.382,0.585c-1.109,1.642-3.787,0.092-2.67-1.561
	c0.231-0.342,0.448-0.694,0.676-1.038c0.138-0.207,0.27-0.417,0.407-0.624c2.08-3.152,4.087-6.35,6.076-9.561
	c-1.478-1.208-3.021-2.337-4.623-3.372c-1.478,3.459-2.889,6.947-4.266,10.45c-0.099,0.251-0.193,0.504-0.291,0.755
	C155.255,451.345,154.491,453.28,153.766,455.231z M163.063,481.322c-2.194,5.66-4.302,11.352-6.367,17.059h9.064
	c5.255-7.056,11.12-13.749,16.947-20.287c0.044-2.992-0.212-5.985-0.76-8.94c-0.066-0.358-0.139-0.715-0.215-1.071
	c-0.063-0.299-0.111-0.601-0.18-0.899c-0.039-0.164-0.086-0.326-0.127-0.49c-0.222,0.253-0.435,0.512-0.654,0.767
	c-0.168,0.196-0.336,0.392-0.502,0.589c-3.928,4.662-7.299,9.669-9.331,15.399c-0.662,1.865-3.648,1.057-2.982-0.822
	c2.156-6.075,5.693-11.347,9.801-16.25c0.167-0.2,0.33-0.402,0.499-0.6c0.714-0.838,1.44-1.668,2.182-2.487
	c-1.238-3.674-2.96-7.171-5.076-10.418c-1.325,2.697-2.588,5.413-3.822,8.139c-0.109,0.241-0.212,0.483-0.321,0.724
	C168.32,468.178,165.63,474.701,163.063,481.322z M353.555,337.07c-0.046,3.986-0.042,7.963-0.002,11.927
	c0.01,0.982,0.016,1.967,0.029,2.947c5.121,1.931,10.476,3.281,15.913,4.071c12.313,1.791,25.049,0.604,36.531-3.803v-12.7
	c0-0.895,0.072-1.723,0.189-2.442h-11.353H353.555z M410.446,350.349c-0.684-2.127-1.261-4.281-1.753-6.449v7.216
	c0.009-0.004,0.019-0.008,0.028-0.012C409.296,350.853,409.878,350.617,410.446,350.349z M374.164,309.477
	c3.692-0.22,6.576-0.372,8.067-0.428c1.273-6.777,1.664-13.532,2.188-20.234c0.01-0.131,0.022-0.261,0.032-0.392
	c7.983,0.965,15.842,3.181,22.967,6.649c-2.718,11.634-5.952,23.458-10.262,34.016c-1.42,0.59-12.739-0.993-24.248-2.981
	c-7.88-1.361-14.512-3.862-18.789-5.508c-0.127,2.066-0.231,4.134-0.313,6.204c-0.033,0.834-0.055,1.668-0.082,2.502h6.905l0.696,3
	h33.538h12.121c-0.184-2.69-0.221-5.386-0.117-8.079c0.192-4.985,0.871-9.955,2.053-14.832c2.244-9.251,6.22-18.102,8.915-27.259
	c0.166-0.565,0.322-1.234,0.464-1.992c1.853-9.872,1.275-34.685-11.593-37.432c-1.24-2.342-2.479-4.685-3.719-7.027
	c-1.062,0.296-2.111,0.626-3.151,0.98c-5.924,2.015-11.474,4.962-16.449,8.724c-2.101,1.588-4.101,3.317-5.981,5.186
	c0,0.821,0.222,1.584,0.359,2.369c-1.451,1.031-2.825,2.154-4.103,3.392c-12.484,12.097-15.39,30.026-17.743,46.272
	c-0.319,2.203-0.592,4.416-0.837,6.635c-0.056,0.508-0.098,1.018-0.15,1.527C361.943,310.246,368.891,309.791,374.164,309.477z
	 M116.443,260.553v-10.935c0-7.863,6.397-14.26,14.26-14.26h54.229c7.863,0,14.26,6.397,14.26,14.26v10.935
	c0,25.516-12.343,49.678-33.017,64.633c-2.5,1.808-5.429,2.713-8.358,2.713c-0.333,0-0.665-0.015-0.997-0.038
	c-0.283-0.02-0.565-0.054-0.846-0.091c-2.298-0.3-4.541-1.155-6.515-2.583C128.786,310.232,116.443,286.069,116.443,260.553z
	 M121.683,260.553c0,23.84,11.532,46.415,30.848,60.388c3.162,2.287,7.411,2.287,10.574,0
	c19.316-13.973,30.848-36.548,30.848-60.388v-10.935c0-4.974-4.047-9.02-9.02-9.02h-54.229c-4.974,0-9.02,4.047-9.02,9.02V260.553z
	 M164.479,123.664c-0.227-0.132-0.442-0.281-0.659-0.427c-1.4-0.945-2.607-2.169-3.482-3.646c-2.457-4.141-3.756-8.886-3.756-13.723
	c0-11.797,7.888-22.404,19.18-25.794c0.961-0.288,1.698-0.908,2.078-1.745c6.238-13.772,20.032-22.671,35.141-22.671
	c16.831,0,31.173,10.84,36.427,25.903c0.076,0.218,0.152,0.436,0.224,0.656c0.904,2.75,1.511,5.633,1.772,8.615
	c9.955,2.844,17.079,12.016,17.079,22.669v0.097c-0.026,6.452-5.37,11.702-11.912,11.702h-86.061
	C168.353,125.302,166.276,124.711,164.479,123.664z M256.572,116.679c1.806,0,3.282-1.397,3.289-3.114
	c0-7.619-5.649-14.001-13.141-14.907l-3.793-0.459l0.004-4.044c-0.001-16.438-13.436-29.873-29.95-29.873
	c-11.732,0-22.443,6.911-27.287,17.607c-1.403,3.096-4.119,5.444-7.453,6.445c-7.676,2.304-13.037,9.515-13.037,17.535
	c0,3.289,0.882,6.512,2.549,9.322c0.545,0.918,1.602,1.487,2.759,1.487H256.572z M355.341,84.073c0-0.036,0.005-0.071,0.006-0.107
	c0.031-2.628,1.194-5.098,3.21-6.789c1.617-1.351,3.667-2.094,5.774-2.094h71.977c1.807,0,3.574,0.549,5.06,1.561h0.07l0.644,0.533
	c2.044,1.714,3.216,4.228,3.216,6.895v42.19c0,2.563-1.084,4.874-2.812,6.513c-0.176,0.167-0.357,0.33-0.546,0.483
	c-1.543,1.244-3.501,1.993-5.632,1.993h-71.977c-4.957,0-8.99-4.033-8.99-8.989V84.689V84.073z M361.486,80.677
	c-1.004,0.842-1.582,2.081-1.582,3.396v42.19c0,2.441,1.986,4.426,4.427,4.426h71.977c2.441,0,4.427-1.986,4.427-4.426v-42.19
	c0-1.252-0.523-2.434-1.442-3.274l-0.149-0.123c-0.187-0.156-0.386-0.292-0.59-0.414l-26.712,17.398
	c-0.226-6.168-5.3-11.12-11.523-11.12c-6.223,0-11.298,4.953-11.523,11.121l-26.72-17.399
	C361.872,80.385,361.674,80.52,361.486,80.677z M407.925,98.819v-0.734c0-4.193-3.411-7.605-7.605-7.605s-7.605,3.412-7.605,7.605
	v0.734H407.925z M99.698,367.998c-9.643-24.268-14.95-50.712-14.95-78.374c0-40.531,11.39-78.45,31.13-110.733
	c-0.22-0.122-0.431-0.253-0.633-0.393c-20.272,33.136-31.119,71.295-31.119,111.126c0,27.349,5.121,53.907,14.884,78.597
	C99.232,368.138,99.461,368.064,99.698,367.998z M164.479,123.664c-0.227-0.132-0.442-0.281-0.659-0.427
	c-5.945,4.8-11.678,9.933-17.157,15.412c-7.949,7.949-15.183,16.422-21.693,25.328c0.206,0.144,0.402,0.297,0.59,0.458
	C136.683,149.188,149.788,135.478,164.479,123.664z M297.638,76.735c19.992,0,39.346,2.778,57.704,7.955v-0.616
	c0-0.036,0.005-0.071,0.006-0.107c-18.551-5.175-37.924-7.854-57.709-7.854c-16.44,0-32.594,1.856-48.23,5.449
	c0.076,0.218,0.152,0.436,0.224,0.656C265.067,78.646,281.131,76.735,297.638,76.735z M488.149,194.689
	c0.224-0.109,0.458-0.206,0.7-0.295c-10.168-20.367-23.669-39.179-40.234-55.744c-2.007-2.007-4.056-3.956-6.127-5.873
	c-0.176,0.167-0.357,0.33-0.546,0.483C460.814,150.694,476.54,171.489,488.149,194.689z M166.676,458.291
	c0.116-0.235,0.229-0.472,0.345-0.707c-0.825-0.643-1.652-1.285-2.468-1.94c-0.114,0.231-0.227,0.462-0.341,0.693
	C165.03,456.993,165.85,457.647,166.676,458.291z M255.954,498.381c-4.494-0.896-8.936-1.933-13.323-3.108v0.733
	c3.297,0.873,6.621,1.661,9.967,2.375H255.954z M106.756,383.814c-0.21,0.132-0.431,0.252-0.659,0.364
	c8.648,17.48,19.752,33.819,33.13,48.592c0.059-0.302,0.118-0.604,0.177-0.906C126.458,417.477,115.433,401.328,106.756,383.814z
	 M171.218,461.732c0.108-0.241,0.212-0.483,0.321-0.724c-0.878-0.648-1.766-1.283-2.634-1.943c-0.107,0.229-0.212,0.459-0.318,0.689
	C169.461,460.419,170.336,461.081,171.218,461.732z M161.085,453.772c0.142-0.212,0.277-0.428,0.418-0.64
	c-0.797-0.664-1.599-1.321-2.386-1.997c-0.137,0.207-0.269,0.417-0.407,0.624C159.497,452.436,160.289,453.107,161.085,453.772z
	 M146.662,440.6c0.277,0.277,0.56,0.545,0.837,0.82c0.082-0.269,0.161-0.539,0.244-0.809c-0.827-0.821-1.651-1.645-2.465-2.479
	c-0.084,0.266-0.171,0.531-0.254,0.797C145.571,439.487,146.11,440.048,146.662,440.6z M156.012,449.407
	c0.098-0.251,0.193-0.504,0.291-0.755c-0.818-0.728-1.647-1.444-2.454-2.185c-0.097,0.244-0.187,0.491-0.284,0.735
	C154.376,447.945,155.193,448.678,156.012,449.407z M180.269,468.049c0.166-0.197,0.334-0.393,0.502-0.589
	c-0.843-0.556-1.68-1.118-2.515-1.686c-0.169,0.198-0.332,0.401-0.499,0.6C178.589,466.942,179.429,467.494,180.269,468.049z
	 M239.964,495.275v-0.714c-20.885-5.886-40.467-14.899-58.232-26.479c0.076,0.357,0.149,0.713,0.215,1.071
	C199.905,480.774,219.432,489.552,239.964,495.275z M379.33,487.015c9.189-3.803,18.103-8.267,26.697-13.348v-0.881
	c-8.535,5.07-17.45,9.564-26.697,13.421V487.015z M511.15,289.624c0-27.61-5.22-54.414-15.166-79.303
	c-0.213,0.109-0.435,0.208-0.663,0.298c9.803,24.441,15.208,51.102,15.208,79.004c0,55.255-21.164,105.656-55.806,143.535v1.059
	C491.169,394.701,511.15,343.701,511.15,289.624z M408.693,471.183v0.879c14.336-8.763,27.738-19.28,39.921-31.462
	c1.164-1.164,2.309-2.341,3.442-3.527v-1.05C439.231,449.544,424.654,461.384,408.693,471.183z"></path>
</svg>