<?xml version="1.0" standalone="no"?>
<svg version="1.1" id="Layer_1" xmlns="http://www.w3.org/2000/svg" xmlns:xlink="http://www.w3.org/1999/xlink" x="0px" y="0px" viewBox="0 0 595.276 595.276" enable-background="new 0 0 595.276 595.276" xml:space="preserve">
<path id="color_x5F_7" fill="#EFEBE9" d="M83.699,499.548l0.45-0.45l9.574-9.575l3.038-3.038l1.887-1.887H98.9h5.029h2.878h2.269
	h2.816h9.285h2.721h8.235h2.885h6.687h3.033h3.566h2.969h13.639h15.666c0.19,0.293,0.502,0.5,0.883,0.495l32.064-0.39
	c0.132-0.002,0.25-0.042,0.35-0.105h6.97l-0.002,0.01h12.504h121.228l-14.94,14.941H218.416H83.699z"></path>
<path id="color_x5F_6" fill="#212121" d="M526.09,499.417c0.076-0.107,0.156-0.212,0.233-0.319h12.065
	c1.77,0,3.204,1.435,3.204,3.204s-1.435,3.204-3.204,3.204H83.07c-1.77,0-3.204-1.435-3.204-3.204s1.435-3.204,3.204-3.204h1.08
	l-0.45,0.45h134.717h121.219h175.54c1.238,0,2.433-0.167,3.582-0.45h0.819c-0.038,0.107-0.078,0.213-0.116,0.319H526.09z
	 M221.295,249.38L221.295,249.38c-0.787-0.591-1.23-1.59-1.057-2.623l0.313-1.87c0.247-1.474,1.655-2.479,3.129-2.232
	c1.474,0.247,2.479,1.655,2.232,3.129l-0.177,1.06l1.493,0.25l3.212-8.514l2.382-0.761l1.445-4.094l11.805,1.974l-2.119,12.673
	c1.723-1.29,3.643-2.315,5.696-2.962c0.839-0.264,1.715-0.48,2.433-0.988c0.718-0.507,1.25-1.402,1.034-2.254
	c-0.201-0.796-0.973-1.326-1.277-2.088c-0.453-1.135,0.252-2.407,1.114-3.273c0.862-0.865,1.931-1.577,2.484-2.667
	c1.168-2.304-0.521-5.082-2.576-6.648c-2.055-1.565-4.588-2.61-6.116-4.694c-1.294-1.765-1.79-4.183-3.594-5.424
	c-1.908-1.312-4.533-0.762-6.619,0.242c-2.087,1.004-4.036,2.427-6.321,2.804c-2.352,0.388-4.782-0.389-7.13,0.018
	c-3.517,0.609-6.251,4.184-5.916,7.738c0.224,2.384,1.629,4.759,0.895,7.038c-0.298,0.925-0.921,1.705-1.37,2.567
	c-1.364,2.618-1.019,5.862,0.197,8.552c1.015,2.246,2.571,4.185,4.197,6.05l0.095-0.372
	C221.118,251.149,221.146,250.269,221.295,249.38z M259.068,468.38l-4.213-0.102l-0.952-0.023c0,0-2.866,5.127-3.633,9.27
	c-0.116,0.625,0.324,1.215,0.957,1.265l31.964,2.561c0.505,0.04,0.876-0.465,0.686-0.935l-0.564-1.398
	c-0.798-1.977-2.465-3.475-4.515-4.059l-4.747-1.351c-2.461-0.701-5.325-1.73-6.663-3.911l-2.512-4.167l-0.638,0.43l-2.385,1.607
	C261.032,468.12,260.058,468.404,259.068,468.38z M181.461,485.092l32.064-0.39c0.132-0.002,0.25-0.042,0.35-0.105
	c0.285-0.178,0.419-0.556,0.247-0.888l-0.691-1.34c-0.977-1.896-2.774-3.234-4.87-3.627l-4.851-0.909
	c-2.515-0.471-5.462-1.233-6.995-3.281l-2.884-3.919l-0.349,0.285l-2.473,2.021c-0.767,0.627-1.71,0.999-2.698,1.067l-4.625,0.314
	l-0.53,0.036c0,0-2.382,5.369-2.765,9.565c-0.023,0.253,0.06,0.481,0.187,0.677C180.769,484.89,181.081,485.097,181.461,485.092z"></path>
<path id="color_x5F_5" fill="#FFD2BB" d="M234.787,297.68c1.475,0.123,2.954,0.213,4.441,0.26
	c-0.618,9.966-1.215,19.289-1.487,21.414c1.908,1.819,4.135,3.81,6.523,5.888c3.979,3.462,8.432,7.181,12.745,10.824
	c1.512,1.277,3.006,2.545,4.456,3.788c3.267,2.802,6.311,5.484,8.823,7.878c-0.007,0.007-0.013,0.014-0.02,0.022
	c2.024,1.47,3.739,3.301,5.069,5.388c1.983,1.914,2.941,5.141,2.956,7.826c0.002,0.412-0.616,0.505-0.724,0.153
	c-0.48-1.561-1.018-3.112-1.817-4.518c-0.014-0.025-0.031-0.049-0.045-0.074c-0.056,0.094-0.112,0.188-0.17,0.276
	c1.11,1.844,1.652,4.169,1.663,6.187c0.002,0.412-0.616,0.505-0.724,0.153c-0.48-1.561-1.018-3.112-1.817-4.518
	c-0.099-0.175-0.206-0.344-0.316-0.511c-0.003,0.002-0.005,0.004-0.008,0.006c0.834,1.699,1.246,3.681,1.255,5.433
	c0.002,0.412-0.616,0.505-0.724,0.153c-0.48-1.561-1.018-3.112-1.817-4.518c-0.044-0.077-0.092-0.15-0.138-0.225
	c-0.082,0.036-0.165,0.072-0.25,0.107c0.664,1.567,0.994,3.317,1.003,4.882c0.002,0.412-0.616,0.505-0.724,0.153
	c-0.48-1.561-1.018-3.112-1.817-4.518c-2.867-1.843-5.24-3.793-5.254-7.284c-2.295-0.771-4.566-1.613-6.82-2.498
	c-1.644-0.645-3.276-1.317-4.895-2.023c-7.513-3.273-14.752-7.173-21.58-11.696c-0.25-0.166-0.495-0.339-0.744-0.507
	C231.977,322.863,232.865,310.218,234.787,297.68z M259.068,468.38c0.99,0.024,1.963-0.26,2.785-0.814l2.385-1.607l0.302-1.879
	l-9.738-0.78l0.053,4.978L259.068,468.38z M191.01,472.939l2.473-2.021l0.31-1.238l-9.636-1.611l-0.47,6.25l4.625-0.314
	C189.301,473.938,190.243,473.565,191.01,472.939z M227.51,271.661l1.535,0.392l1.461-5.727l0.983-3.855l1.846,0.309
	c4.41,0.737,8.582-2.24,9.32-6.649l1.298-7.76l2.119-12.673l-11.805-1.974l-1.445,4.094l-2.382,0.761l-3.212,8.514l-1.493-0.25
	l0.177-1.06c0.247-1.474-0.758-2.882-2.232-3.129c-1.474-0.247-2.882,0.758-3.129,2.232l-0.313,1.87
	c-0.173,1.033,0.27,2.032,1.057,2.623h0c-0.149,0.889-0.176,1.768-0.117,2.629l-0.095,0.372l-2.376,9.316l-0.097,0.381
	C222.199,264.576,225.055,267.965,227.51,271.661z M193.287,275.943l-12.257,9.381l-0.795,0.608l-11.908,9.114
	c-0.007,4.901,0.27,9.798,0.799,14.668c1.335,12.301,4.332,24.425,8.799,35.97c-2.679,2.242-2.659,5.315-2.244,8.699
	c-0.572,1.513-1.42,2.918-2.315,4.285c-0.201,0.308,0.265,0.724,0.58,0.459c1.198-1.007,2.333-2.378,3.114-3.891
	c0.081,0.043,0.162,0.084,0.242,0.124c-0.028,0.083-0.054,0.167-0.085,0.25c-0.572,1.513-1.42,2.918-2.315,4.285
	c-0.201,0.308,0.265,0.724,0.58,0.459c1.341-1.127,2.602-2.71,3.377-4.437c0.003,0.001,0.007,0.002,0.01,0.002
	c-0.058,0.191-0.12,0.381-0.191,0.569c-0.572,1.513-1.42,2.918-2.315,4.285c-0.201,0.308,0.265,0.724,0.58,0.459
	c1.545-1.298,2.987-3.201,3.697-5.233c0.105-0.012,0.213-0.029,0.321-0.046c-0.01,0.027-0.018,0.055-0.028,0.082
	c-0.572,1.513-1.42,2.918-2.315,4.285c-0.201,0.308,0.265,0.724,0.58,0.459c2.056-1.727,3.926-4.525,4.132-7.274
	c0.756-2.356,1.068-4.846,0.906-7.342c0.01,0,0.019,0.001,0.029,0.001c0.352-5.146,0.442-11.602,0.494-18.243
	c0.005-0.614,0.009-1.229,0.014-1.845c0.035-4.868,0.06-9.78,0.164-14.302c0.073-3.165,0.182-6.15,0.362-8.78
	c1.106-0.702,4.368-3.037,8.576-6.09c2.67-1.937,5.717-4.161,8.846-6.448C199.177,285.901,196.191,281.046,193.287,275.943z"></path>
<path id="color_x5F_4" fill="#00CEC9" d="M529.494,484.304c0.455-1.282,0.998-2.512,1.591-3.713l-0.978,4.016h-0.01
	c0,0.365-0.029,0.722-0.055,1.08C529.57,485.45,529.262,484.957,529.494,484.304z M574.375,302.791l-38.412,157.766
	c-0.135-0.216-0.258-0.438-0.397-0.651c-3.75,7.631-7.01,15.4-10.085,23.33c-2.009,5.182-3.939,10.394-5.818,15.624
	c-0.296,0.093-0.602,0.163-0.906,0.238c-1.149,0.283-2.344,0.45-3.582,0.45h-175.54l14.94-14.941h114.443
	c0.876,1.572,1.741,3.147,2.506,4.761c1.576,3.321,3.077,6.676,4.538,10.049h4.911c-0.502-0.954-1.009-1.905-1.51-2.859
	c-2.09-3.988-4.176-7.977-6.291-11.951h2.859c2.155,4.06,4.287,8.132,6.424,12.202c0.458,0.872,0.929,1.737,1.391,2.608h1.609
	c-1.503-4.942-3.01-9.883-4.555-14.81h2.624c1.543,4.928,3.052,9.868,4.558,14.81h0.742c-1.138-4.911-2.146-9.852-3.064-14.81h2.568
	c0.924,4.958,1.938,9.898,3.084,14.81h5.461c-0.21-4.94-0.101-9.876,0.235-14.81h2.48c-0.332,4.936-0.434,9.873-0.209,14.81h4.301
	c0.988-4.979,2.261-9.92,3.709-14.81h2.64c-1.466,4.89-2.761,9.831-3.766,14.81h3.349c2.13-5.004,4.508-9.864,6.574-14.476
	c0.05-0.111,0.1-0.222,0.149-0.334h1.267l1.51-6.2c2.822-6.283,5.687-12.542,8.803-18.691c0.968-1.91,1.975-3.796,2.994-5.676
	c-0.563-0.589-1.145-1.16-1.742-1.714c-1.833,2.958-3.67,5.915-5.619,8.799c-0.089,0.132-0.194,0.233-0.304,0.317l1.762-7.235
	c0.744-1.186,1.486-2.373,2.224-3.563c-0.372-0.304-0.759-0.591-1.141-0.882l38.191-156.856c2.843-11.678-6.002-22.935-18.02-22.935
	h2.33c8.923,0,16.597,4.356,21.374,10.862C574.391,286.867,576.333,294.75,574.375,302.791z M533.902,457.545
	c-0.389-0.512-0.791-1.015-1.204-1.508c-1.143,2.141-2.266,4.292-3.353,6.465c-3.737,7.469-7.129,15.09-10.523,22.718
	c-2.01,4.518-4.359,9.286-6.488,14.198h4.436c1.823-5.1,3.696-10.181,5.64-15.237c2.797-7.273,5.582-14.595,9.003-21.602
	C532.232,460.905,533.075,459.23,533.902,457.545z"></path>
<path id="color_x5F_3" fill="#E84393" d="M261.466,339.854c-1.45-1.244-2.944-2.511-4.456-3.788l11.159-45.833
	c2.895-11.892,13.548-20.262,25.788-20.262h12.505h160.758h0.523h78.514c12.019,0,20.864,11.256,18.02,22.935l-38.191,156.856
	c-0.862-0.658-1.739-1.295-2.649-1.882c-1.968,4.607-3.832,9.261-5.579,13.963c-1.98,5.328-3.952,10.76-5.77,16.265l5.399-22.31
	c1.216-3.097,2.463-6.182,3.772-9.239c-0.449-0.251-0.904-0.49-1.362-0.723l5.076-20.977l10.554-43.676l19.852-81.746
	c2.682-11.123-5.66-21.25-16.996-21.25h-241.87c-11.718,0-21.916,7.548-24.688,19.046l-7.57,31.125L261.466,339.854z M507.637,483.8
	c-0.081,0.269-0.168,0.537-0.248,0.807h2.64c0.081-0.27,0.168-0.537,0.249-0.807H507.637z M517.602,484.607l1.51-6.2
	c-0.928,2.065-1.851,4.133-2.777,6.2H517.602z M497.17,483.8c-0.02,0.269-0.044,0.538-0.062,0.807h2.48
	c0.018-0.269,0.042-0.538,0.061-0.807H497.17z M523.242,461.442l1.762-7.235c-1.19,1.896-2.393,3.783-3.647,5.639
	C520.531,461.067,522.233,462.213,523.242,461.442z M485.611,483.8c0.049,0.269,0.098,0.538,0.148,0.807h2.568
	c-0.05-0.269-0.098-0.538-0.148-0.807H485.611z M472.742,483.8c0.144,0.269,0.288,0.537,0.432,0.807h2.859
	c-0.143-0.269-0.284-0.538-0.427-0.807H472.742z M480.648,483.8c0.085,0.269,0.168,0.538,0.253,0.807h2.624
	c-0.084-0.269-0.167-0.538-0.251-0.807H480.648z M194.732,469.837c2.605-11.036,5.248-21.805,8.608-32.409
	c0.064-0.203,0.131-0.407,0.196-0.61c1.595-4.99,3.337-9.946,5.339-14.871c5.612-13.805,9.631-30.051,12.965-45.998l20.722,19.454
	l-13.47,55.325l-0.147,0.603l-8.1,33.266l-0.002,0.01h12.504h121.228h114.443c-0.15-0.268-0.295-0.538-0.446-0.807H226.518
	l13.603-55.95l6.863-28.295l10.209,9.584c-5.067,13.316-6.237,40.144-3.532,54.069l1.141,0.091l9.738,0.78l0.949,0.076
	c1.537-10.443,5.336-38.336,7.81-49.414c1.635-7.323,0.232-14.996-3.88-21.273l-16.162-19.772l5.612-23.138l0.182-0.751
	c-1.644-0.645-3.276-1.317-4.895-2.023l-5.067,20.813l-17.184-21.023c0.006,0.261,0.008,0.521,0.015,0.782
	c-6.704,5.933-26.189,6.073-36.424,0.34c-5.438,23.897,8.074,52.219-3.771,73.409c-0.797,1.426-1.529,2.898-2.221,4.397
	c-0.087,0.188-0.18,0.372-0.265,0.562c-5.63,12.51-7.651,27.284-6.209,40.817l1.128,0.189l9.636,1.611L194.732,469.837z"></path>
<path id="color_x5F_2" fill="#FBC02D" d="M296.346,177.339c0.215,0.03,0.373,0.162,0.375,0.367c0.002,0.205-0.162,0.373-0.367,0.375
	c-0.992,0.011-1.981,0.034-2.967,0.069c-0.004,0-0.009,0-0.013,0c-0.199,0-0.364-0.158-0.371-0.358
	c-0.008-0.205,0.153-0.377,0.358-0.384C294.353,177.373,295.348,177.35,296.346,177.339z M301.576,177.396c-0.004,0-0.009,0-0.012,0
	c-0.199,0-0.365,0.159-0.371,0.359c-0.007,0.205,0.154,0.377,0.359,0.383c0.992,0.033,1.982,0.078,2.967,0.135
	c0.007,0,0.015,0.001,0.022,0.001c0.196,0,0.359-0.152,0.371-0.35c0.012-0.205-0.144-0.38-0.349-0.392
	C303.57,177.474,302.575,177.429,301.576,177.396z M263.945,182.223c-0.957,0.285-1.908,0.582-2.854,0.891
	c-0.195,0.063-0.301,0.273-0.238,0.468c0.051,0.157,0.197,0.256,0.353,0.256c0.038,0,0.077-0.006,0.115-0.019
	c0.94-0.307,1.885-0.601,2.835-0.885c0.197-0.058,0.309-0.265,0.25-0.462C264.348,182.276,264.142,182.164,263.945,182.223z
	 M277.026,179.13c-0.202,0.036-0.337,0.228-0.301,0.43c0.032,0.18,0.188,0.307,0.365,0.307c0.021,0,0.043-0.002,0.065-0.006
	c0.973-0.172,1.95-0.332,2.931-0.479c0.203-0.031,0.343-0.22,0.312-0.423s-0.216-0.338-0.423-0.312
	C278.989,178.796,278.006,178.957,277.026,179.13z M271.898,180.154c-0.974,0.217-1.944,0.446-2.909,0.688
	c-0.199,0.05-0.32,0.251-0.27,0.45c0.042,0.169,0.193,0.281,0.36,0.281c0.03,0,0.06-0.004,0.09-0.011
	c0.959-0.239,1.923-0.467,2.891-0.683c0.2-0.045,0.326-0.243,0.281-0.443C272.297,180.235,272.099,180.109,271.898,180.154z
	 M285.164,177.985c-0.204,0.021-0.352,0.204-0.33,0.408c0.02,0.191,0.181,0.333,0.369,0.333c0.013,0,0.026-0.001,0.039-0.002
	c0.982-0.103,1.968-0.194,2.958-0.273c0.204-0.016,0.357-0.196,0.341-0.4c-0.017-0.205-0.191-0.356-0.4-0.341
	C287.144,177.789,286.152,177.881,285.164,177.985z M234.196,195.864c-0.838,0.536-1.669,1.084-2.492,1.641
	c-0.17,0.115-0.214,0.346-0.099,0.516c0.072,0.106,0.189,0.163,0.308,0.163c0.071,0,0.144-0.021,0.208-0.064
	c0.818-0.554,1.644-1.098,2.476-1.631c0.173-0.111,0.223-0.34,0.112-0.513C234.599,195.804,234.368,195.753,234.196,195.864z
	 M227.442,200.53c-0.799,0.594-1.591,1.198-2.373,1.812c-0.162,0.127-0.19,0.36-0.063,0.521c0.073,0.094,0.182,0.143,0.293,0.143
	c0.08,0,0.161-0.026,0.229-0.079c0.778-0.61,1.564-1.21,2.359-1.8c0.165-0.122,0.199-0.355,0.077-0.52
	C227.84,200.442,227.607,200.407,227.442,200.53z M221.026,205.657c-0.756,0.648-1.503,1.305-2.243,1.973
	c-0.152,0.137-0.164,0.372-0.027,0.524c0.073,0.081,0.174,0.123,0.276,0.123c0.089,0,0.178-0.032,0.249-0.096
	c0.735-0.663,1.478-1.316,2.229-1.96c0.156-0.133,0.173-0.368,0.04-0.524C221.417,205.542,221.182,205.524,221.026,205.657z
	 M256.157,184.846c-0.934,0.351-1.862,0.714-2.784,1.089c-0.19,0.077-0.282,0.294-0.205,0.484c0.059,0.144,0.198,0.232,0.344,0.232
	c0.047,0,0.094-0.009,0.14-0.027c0.916-0.372,1.838-0.733,2.767-1.082c0.192-0.072,0.289-0.286,0.217-0.478
	C256.563,184.871,256.35,184.774,256.157,184.846z M241.254,191.682c-0.873,0.477-1.739,0.965-2.599,1.463
	c-0.178,0.103-0.238,0.33-0.135,0.508c0.069,0.119,0.194,0.185,0.322,0.185c0.063,0,0.127-0.016,0.186-0.05
	c0.854-0.495,1.715-0.98,2.582-1.454c0.18-0.098,0.246-0.324,0.148-0.504C241.66,191.65,241.434,191.583,241.254,191.682z
	 M248.583,188.004c-0.904,0.415-1.802,0.841-2.693,1.277c-0.184,0.09-0.26,0.313-0.17,0.497c0.065,0.131,0.197,0.208,0.334,0.208
	c0.055,0,0.111-0.012,0.163-0.038c0.885-0.434,1.777-0.857,2.676-1.269c0.186-0.086,0.268-0.306,0.183-0.493
	C248.99,188,248.77,187.919,248.583,188.004z M325.957,180.759c-0.204-0.049-0.4,0.073-0.45,0.272
	c-0.049,0.199,0.073,0.401,0.271,0.449c0.963,0.238,1.921,0.487,2.874,0.749c0.033,0.009,0.066,0.013,0.099,0.013
	c0.163,0,0.313-0.108,0.358-0.273c0.054-0.198-0.062-0.402-0.26-0.457C327.89,181.249,326.925,180.998,325.957,180.759z
	 M362.87,197.481c-0.115,0.17-0.07,0.401,0.101,0.515c0.822,0.554,1.637,1.119,2.444,1.693c0.065,0.046,0.141,0.069,0.215,0.069
	c0.116,0,0.23-0.054,0.302-0.156c0.119-0.167,0.08-0.399-0.087-0.518c-0.813-0.578-1.632-1.146-2.46-1.704
	C363.216,197.267,362.986,197.31,362.87,197.481z M375.817,207.522c-0.137,0.153-0.125,0.387,0.028,0.525
	c0.736,0.662,1.464,1.334,2.184,2.014c0.072,0.068,0.164,0.102,0.255,0.102c0.099,0,0.197-0.039,0.27-0.116
	c0.141-0.149,0.134-0.384-0.015-0.525c-0.724-0.684-1.458-1.36-2.198-2.026C376.192,207.357,375.954,207.369,375.817,207.522z
	 M214.978,211.217c-0.709,0.699-1.41,1.407-2.102,2.124c-0.143,0.148-0.138,0.383,0.009,0.525c0.072,0.07,0.165,0.104,0.258,0.104
	c0.097,0,0.194-0.038,0.267-0.114c0.687-0.712,1.384-1.416,2.089-2.111c0.146-0.144,0.148-0.379,0.004-0.525
	C215.359,211.075,215.124,211.073,214.978,211.217z M369.519,202.277c-0.126,0.162-0.097,0.395,0.065,0.521
	c0.781,0.61,1.554,1.229,2.319,1.858c0.069,0.057,0.152,0.085,0.236,0.085c0.107,0,0.213-0.046,0.287-0.136
	c0.13-0.159,0.107-0.392-0.052-0.523c-0.77-0.633-1.548-1.256-2.334-1.87C369.878,202.088,369.646,202.114,369.519,202.277z
	 M387.241,219.25c-0.157,0.132-0.177,0.366-0.045,0.523c0.638,0.756,1.265,1.521,1.883,2.294c0.073,0.092,0.181,0.14,0.29,0.14
	c0.081,0,0.163-0.026,0.232-0.081c0.16-0.128,0.186-0.362,0.058-0.522c-0.622-0.778-1.254-1.548-1.894-2.309
	C387.632,219.138,387.398,219.119,387.241,219.25z M381.734,213.189c-0.147,0.143-0.152,0.378-0.009,0.525
	c0.688,0.711,1.368,1.431,2.039,2.159c0.073,0.079,0.173,0.12,0.273,0.12c0.09,0,0.181-0.033,0.252-0.098
	c0.151-0.139,0.16-0.374,0.021-0.525c-0.675-0.732-1.358-1.457-2.051-2.172C382.117,213.051,381.881,213.047,381.734,213.189z
	 M356.407,193.022c-0.177-0.102-0.405-0.041-0.507,0.136c-0.103,0.178-0.042,0.405,0.136,0.508c0.859,0.496,1.712,1.002,2.557,1.52
	c0.06,0.037,0.127,0.054,0.194,0.054c0.125,0,0.247-0.063,0.317-0.178c0.107-0.175,0.052-0.403-0.123-0.511
	C358.129,194.031,357.272,193.521,356.407,193.022z M333.862,183.008c-0.194-0.062-0.404,0.044-0.467,0.239
	c-0.063,0.195,0.044,0.405,0.239,0.468c0.946,0.306,1.888,0.624,2.824,0.953c0.041,0.015,0.083,0.021,0.123,0.021
	c0.153,0,0.297-0.095,0.35-0.248c0.068-0.193-0.033-0.406-0.227-0.473C335.763,183.636,334.815,183.316,333.862,183.008z
	 M317.914,179.071c-0.197-0.036-0.394,0.101-0.429,0.303c-0.036,0.202,0.1,0.394,0.302,0.43c0.977,0.169,1.951,0.352,2.92,0.545
	c0.024,0.005,0.049,0.007,0.073,0.007c0.173,0,0.328-0.122,0.363-0.299c0.041-0.201-0.09-0.397-0.292-0.437
	C319.878,179.425,318.899,179.242,317.914,179.071z M349.137,189.16c-0.182-0.089-0.406-0.013-0.496,0.172
	c-0.09,0.184-0.013,0.407,0.171,0.497c0.893,0.435,1.78,0.881,2.66,1.337c0.055,0.028,0.113,0.042,0.171,0.042
	c0.134,0,0.263-0.073,0.329-0.2c0.095-0.182,0.024-0.406-0.158-0.501C350.928,190.046,350.036,189.598,349.137,189.16z
	 M309.773,177.95c-0.2-0.015-0.386,0.127-0.407,0.332c-0.021,0.204,0.127,0.386,0.332,0.407c0.987,0.101,1.97,0.214,2.951,0.34
	c0.016,0.002,0.032,0.003,0.048,0.003c0.184,0,0.344-0.137,0.368-0.324c0.026-0.203-0.117-0.39-0.321-0.416
	C311.757,178.165,310.767,178.052,309.773,177.95z M341.609,185.816c-0.188-0.076-0.407,0.015-0.483,0.206
	c-0.077,0.19,0.015,0.407,0.206,0.484c0.922,0.371,1.838,0.754,2.748,1.148c0.049,0.021,0.099,0.03,0.148,0.03
	c0.144,0,0.28-0.084,0.341-0.224c0.081-0.188-0.005-0.407-0.193-0.489C343.459,186.575,342.537,186.19,341.609,185.816z
	 M187.966,252.114c-0.365,0.929-0.718,1.865-1.059,2.805c-0.07,0.193,0.03,0.406,0.223,0.476c0.042,0.015,0.085,0.022,0.127,0.022
	c0.152,0,0.295-0.094,0.349-0.245c0.339-0.934,0.69-1.864,1.052-2.787c0.075-0.191-0.019-0.407-0.21-0.481
	C188.256,251.83,188.041,251.922,187.966,252.114z M187.332,335.721c0.042,0,0.085-0.007,0.127-0.023
	c0.193-0.07,0.292-0.284,0.222-0.477c-0.339-0.929-0.667-1.862-0.983-2.803c-0.065-0.194-0.275-0.298-0.471-0.234
	c-0.194,0.065-0.299,0.276-0.234,0.47c0.318,0.946,0.648,1.887,0.989,2.821C187.038,335.627,187.18,335.721,187.332,335.721z
	 M209.328,217.186c-0.659,0.747-1.309,1.502-1.95,2.266c-0.132,0.157-0.111,0.391,0.046,0.523c0.07,0.058,0.154,0.087,0.238,0.087
	c0.106,0,0.211-0.045,0.285-0.133c0.637-0.759,1.283-1.51,1.938-2.252c0.136-0.154,0.121-0.388-0.033-0.524
	C209.7,217.018,209.464,217.032,209.328,217.186z M193.992,350.633c0.059,0,0.119-0.014,0.174-0.044
	c0.181-0.096,0.25-0.321,0.153-0.503c-0.464-0.871-0.918-1.748-1.361-2.631c-0.091-0.184-0.314-0.258-0.498-0.166
	c-0.183,0.092-0.258,0.316-0.165,0.498c0.445,0.889,0.902,1.772,1.369,2.649C193.731,350.562,193.86,350.633,193.992,350.633z
	 M407.775,254.379c-0.193,0.071-0.292,0.284-0.221,0.477c0.34,0.929,0.668,1.863,0.986,2.803c0.052,0.155,0.197,0.252,0.352,0.252
	c0.039,0,0.08-0.006,0.119-0.02c0.194-0.066,0.299-0.276,0.233-0.471c-0.319-0.946-0.65-1.886-0.992-2.82
	C408.182,254.408,407.969,254.309,407.775,254.379z M410.346,262.158c-0.197,0.057-0.31,0.263-0.254,0.46
	c0.274,0.95,0.536,1.905,0.786,2.864c0.044,0.167,0.194,0.278,0.359,0.278c0.03,0,0.062-0.004,0.094-0.012
	c0.199-0.052,0.318-0.255,0.266-0.453c-0.252-0.966-0.515-1.927-0.791-2.883C410.748,262.215,410.541,262.101,410.346,262.158z
	 M225.6,387.317c-0.781-0.611-1.553-1.231-2.318-1.861c-0.158-0.131-0.392-0.107-0.523,0.05c-0.131,0.158-0.108,0.393,0.05,0.523
	c0.769,0.634,1.546,1.259,2.332,1.872c0.068,0.054,0.149,0.079,0.229,0.079c0.111,0,0.22-0.049,0.293-0.143
	C225.79,387.676,225.761,387.443,225.6,387.317z M184.795,327.932c0.034,0,0.069-0.004,0.103-0.014
	c0.197-0.057,0.311-0.263,0.254-0.459c-0.132-0.458-0.252-0.922-0.378-1.382c-0.004,0.616-0.009,1.231-0.014,1.845
	C184.773,327.922,184.782,327.932,184.795,327.932z M404.677,246.822c-0.187,0.084-0.271,0.304-0.187,0.491
	c0.403,0.899,0.794,1.805,1.175,2.717c0.06,0.143,0.197,0.229,0.342,0.229c0.048,0,0.096-0.009,0.143-0.029
	c0.189-0.079,0.279-0.296,0.2-0.486c-0.382-0.917-0.777-1.829-1.183-2.734C405.083,246.821,404.863,246.738,404.677,246.822z
	 M231.792,392.74c0.064,0.044,0.136,0.064,0.208,0.064c0.119,0,0.236-0.057,0.308-0.163c0.115-0.17,0.07-0.401-0.1-0.516
	c-0.822-0.556-1.636-1.121-2.443-1.696c-0.167-0.118-0.398-0.079-0.518,0.087c-0.119,0.167-0.08,0.399,0.087,0.518
	C230.147,391.612,230.966,392.182,231.792,392.74z M181.13,284.089c0.019-0.204-0.131-0.385-0.336-0.404
	c-0.202-0.019-0.385,0.131-0.404,0.336c-0.059,0.635-0.105,1.274-0.154,1.912l0.795-0.608
	C181.065,284.912,181.092,284.499,181.13,284.089z M236.195,395.575c0.851,0.521,1.708,1.032,2.573,1.531
	c0.059,0.034,0.123,0.05,0.186,0.05c0.128,0,0.253-0.067,0.322-0.186c0.103-0.177,0.042-0.405-0.135-0.507
	c-0.859-0.497-1.711-1.005-2.557-1.523c-0.175-0.107-0.404-0.052-0.511,0.123C235.965,395.239,236.02,395.467,236.195,395.575z
	 M190.4,343.292c0.05,0,0.102-0.01,0.151-0.032c0.187-0.084,0.271-0.304,0.188-0.491c-0.402-0.9-0.793-1.806-1.173-2.718
	c-0.078-0.19-0.296-0.276-0.486-0.2c-0.189,0.079-0.279,0.297-0.2,0.486c0.382,0.918,0.775,1.83,1.18,2.736
	C190.122,343.21,190.258,343.292,190.4,343.292z M195.037,237.251c-0.491,0.869-0.971,1.744-1.44,2.626
	c-0.096,0.181-0.028,0.406,0.153,0.502c0.055,0.03,0.115,0.044,0.174,0.044c0.133,0,0.262-0.071,0.328-0.197
	c0.466-0.877,0.943-1.746,1.431-2.609c0.101-0.179,0.038-0.405-0.14-0.506C195.365,237.01,195.138,237.073,195.037,237.251z
	 M191.241,244.556c-0.428,0.901-0.846,1.809-1.253,2.722c-0.083,0.187,0.001,0.407,0.189,0.49c0.049,0.022,0.1,0.032,0.151,0.032
	c0.143,0,0.278-0.082,0.34-0.221c0.404-0.908,0.819-1.809,1.245-2.705c0.088-0.185,0.009-0.407-0.176-0.495
	C191.55,244.293,191.33,244.371,191.241,244.556z M392.314,225.676c-0.165,0.121-0.202,0.353-0.081,0.519
	c0.583,0.798,1.156,1.604,1.719,2.418c0.072,0.104,0.188,0.16,0.305,0.16c0.073,0,0.147-0.021,0.211-0.066
	c0.169-0.116,0.211-0.348,0.094-0.517c-0.566-0.819-1.143-1.631-1.729-2.434C392.712,225.591,392.479,225.555,392.314,225.676z
	 M199.332,230.233c-0.55,0.832-1.09,1.672-1.619,2.518c-0.109,0.174-0.056,0.403,0.118,0.512c0.061,0.038,0.13,0.057,0.197,0.057
	c0.124,0,0.245-0.062,0.315-0.174c0.526-0.841,1.062-1.675,1.609-2.502c0.113-0.171,0.066-0.402-0.105-0.515
	C199.676,230.014,199.445,230.061,199.332,230.233z M204.104,223.534c-0.606,0.792-1.202,1.591-1.789,2.398
	c-0.121,0.166-0.084,0.398,0.082,0.519c0.066,0.048,0.142,0.071,0.218,0.071c0.115,0,0.228-0.053,0.301-0.153
	c0.583-0.802,1.176-1.596,1.778-2.382c0.125-0.163,0.094-0.396-0.069-0.521C204.462,223.34,204.229,223.371,204.104,223.534z
	 M183.053,267.812c-0.23,0.968-0.447,1.94-0.653,2.917c-0.042,0.201,0.086,0.398,0.287,0.44c0.026,0.005,0.052,0.008,0.077,0.008
	c0.172,0,0.326-0.12,0.363-0.295c0.204-0.971,0.42-1.937,0.649-2.899c0.047-0.2-0.076-0.4-0.276-0.447
	C183.301,267.487,183.1,267.612,183.053,267.812z M396.926,232.435c-0.174,0.109-0.226,0.338-0.117,0.512
	c0.525,0.836,1.04,1.68,1.545,2.531c0.069,0.117,0.193,0.182,0.319,0.182c0.065,0,0.13-0.017,0.189-0.052
	c0.176-0.105,0.235-0.333,0.13-0.509c-0.508-0.856-1.026-1.705-1.554-2.546C397.328,232.378,397.099,232.327,396.926,232.435z
	 M181.438,275.869c-0.161,0.982-0.31,1.966-0.447,2.956c-0.028,0.203,0.114,0.391,0.317,0.419c0.017,0.003,0.034,0.004,0.051,0.004
	c0.183,0,0.342-0.135,0.367-0.321c0.136-0.983,0.284-1.962,0.444-2.937c0.033-0.202-0.104-0.394-0.306-0.427
	C181.659,275.525,181.47,275.667,181.438,275.869z M185.229,259.887c-0.297,0.95-0.583,1.905-0.856,2.864
	c-0.056,0.197,0.058,0.403,0.255,0.459c0.034,0.009,0.069,0.014,0.102,0.014c0.161,0,0.31-0.106,0.357-0.269
	c0.272-0.954,0.555-1.902,0.851-2.846c0.061-0.196-0.048-0.404-0.243-0.465C185.497,259.581,185.29,259.691,185.229,259.887z
	 M401.054,239.495c-0.181,0.096-0.25,0.322-0.153,0.503c0.465,0.87,0.921,1.747,1.365,2.63c0.065,0.13,0.196,0.205,0.332,0.205
	c0.057,0,0.113-0.013,0.167-0.04c0.184-0.092,0.257-0.316,0.165-0.499c-0.446-0.889-0.904-1.771-1.372-2.647
	C401.459,239.466,401.232,239.399,401.054,239.495z M316.092,382.123h38.387c3.141-16.152,8.495-31.528,15.508-44.538
	c-7.841-1.849-15.205-4.469-21.906-7.792C331.425,343.793,320.087,362.345,316.092,382.123z M450.278,324.963l-1.405-1.341
	c-0.173-0.16-0.346-0.32-0.521-0.478l-0.759-0.667c-0.165-0.144-0.329-0.288-0.496-0.429c-0.17-0.145-0.342-0.286-0.514-0.427
	l-0.313-0.258c-0.152-0.126-0.304-0.251-0.459-0.374l-0.726-0.567c-0.195-0.151-0.392-0.304-0.589-0.453
	c-0.215-0.161-0.433-0.318-0.649-0.476c-0.284-0.209-0.487-0.358-0.693-0.504c-0.197-0.139-0.396-0.274-0.594-0.41l-0.19-0.131
	c-0.195-0.135-0.39-0.269-0.587-0.4l-0.79-0.513c-0.202-0.131-0.404-0.262-0.608-0.389l-0.873-0.531
	c-0.184-0.112-0.368-0.224-0.555-0.333l-0.782-0.445c-0.223-0.127-0.445-0.255-0.671-0.378l-0.903-0.48
	c-0.191-0.103-0.383-0.204-0.576-0.303l-0.896-0.445c-0.202-0.101-0.403-0.201-0.606-0.298l-0.837-0.386
	c-0.229-0.106-0.459-0.214-0.691-0.315l-0.962-0.413c-0.197-0.084-0.395-0.169-0.593-0.25l-0.928-0.368
	c-0.216-0.085-0.432-0.171-0.649-0.253l-0.981-0.358c-0.205-0.075-0.411-0.15-0.618-0.222c-0.182-0.063-0.363-0.123-0.545-0.183
	l-0.474-0.157c-0.2-0.067-0.401-0.135-0.604-0.199l-0.949-0.288c-0.231-0.071-0.462-0.142-0.695-0.209l-1.036-0.284
	c-0.209-0.058-0.418-0.116-0.629-0.17l-1.008-0.249c-0.227-0.056-0.453-0.112-0.682-0.165c-0.189-0.044-0.38-0.084-0.57-0.125
	l-0.465-0.101c-0.225-0.05-0.448-0.1-0.675-0.146l-1.144-0.219c-0.193-0.037-0.386-0.075-0.58-0.109
	c-0.214-0.037-0.429-0.071-0.644-0.105l-0.484-0.079c-0.207-0.035-0.415-0.07-0.623-0.102l-1.181-0.162
	c-0.193-0.027-0.388-0.055-0.583-0.079c-0.202-0.025-0.405-0.047-0.607-0.069c7.361,4.107,12.71,13.825,15.233,27.828
	c8.329-1.786,16.479-4.312,24.241-7.512l-0.5-0.579c-0.163-0.187-0.328-0.369-0.494-0.551l-0.209-0.23
	c-0.141-0.156-0.281-0.312-0.425-0.465c-0.177-0.19-0.356-0.377-0.536-0.563l-0.626-0.648
	C450.607,325.286,450.442,325.124,450.278,324.963z M466.311,383.813h-38.383c-3.14,16.148-8.493,31.522-15.506,44.535
	c7.84,1.849,15.203,4.468,21.902,7.791C450.978,422.141,462.314,403.59,466.311,383.813z M466.633,382.123
	c3.563-19.775-0.682-38.324-11.974-52.318c-8.018,3.348-16.444,5.98-25.06,7.831c2.086,12.996,1.619,28.354-1.352,44.487H466.633z
	 M405.722,307.685l-0.128-0.002l-0.14-0.498l0.004,0.5c-10.79,0.087-22.785,10.538-32.971,28.705
	c8.537,1.866,17.595,2.813,26.933,2.813c9.423,0,18.922-0.963,28.242-2.861C424.403,318.205,416.421,307.769,405.722,307.685z
	 M376.814,458.256c10.826,0,22.871-10.454,33.106-28.713c-8.532-1.866-17.589-2.813-26.93-2.813c-9.417,0-18.918,0.962-28.247,2.86
	C358.017,447.817,366.046,458.256,376.814,458.256z M426.541,382.123c2.971-16.038,3.454-31.278,1.4-44.14
	c-9.45,1.931-19.088,2.909-28.653,2.909c-9.602,0-18.908-0.986-27.667-2.934c-6.966,12.864-12.294,28.114-15.433,44.164H426.541z
	 M465.897,478.839c0.834,1.678,1.757,3.32,2.676,4.961H226.518l13.603-55.95l6.863-28.295l10.209,9.584
	c-5.067,13.316-6.237,40.144-3.532,54.069l1.141,0.091l0.053,4.978l-0.952-0.023c0,0-2.866,5.127-3.633,9.27
	c-0.116,0.625,0.324,1.215,0.957,1.265l31.964,2.561c0.505,0.04,0.876-0.465,0.686-0.935l-0.564-1.398
	c-0.798-1.977-2.465-3.475-4.515-4.059l-4.747-1.351c-2.461-0.701-5.325-1.73-6.663-3.911l-2.512-4.167l-0.638,0.43l0.302-1.879
	l0.949,0.076c1.537-10.443,5.336-38.336,7.81-49.414c1.635-7.323,0.232-14.996-3.88-21.273l-16.162-19.772l5.612-23.138l0.182-0.751
	c2.254,0.885,4.525,1.727,6.82,2.498c0.015,3.491,2.387,5.441,5.254,7.284c0.799,1.407,1.337,2.957,1.817,4.518
	c0.108,0.352,0.726,0.258,0.724-0.153c-0.009-1.565-0.339-3.314-1.003-4.882c0.085-0.035,0.168-0.071,0.25-0.107
	c0.046,0.075,0.094,0.148,0.138,0.225c0.799,1.407,1.337,2.957,1.817,4.518c0.108,0.352,0.726,0.258,0.724-0.153
	c-0.01-1.751-0.422-3.733-1.255-5.433c0.003-0.002,0.005-0.004,0.008-0.006c0.11,0.167,0.216,0.336,0.316,0.511
	c0.799,1.407,1.337,2.957,1.817,4.518c0.108,0.352,0.726,0.258,0.724-0.153c-0.011-2.018-0.553-4.343-1.663-6.187
	c0.058-0.089,0.114-0.182,0.17-0.276c0.015,0.025,0.031,0.049,0.045,0.074c0.799,1.407,1.337,2.957,1.817,4.518
	c0.108,0.352,0.726,0.258,0.724-0.153c-0.015-2.685-0.972-5.912-2.956-7.826c-1.329-2.087-3.045-3.918-5.069-5.388
	c0.007-0.007,0.013-0.014,0.02-0.022c-2.512-2.394-5.556-5.076-8.823-7.878l2.789-11.498l7.57-31.125
	c2.772-11.498,12.97-19.046,24.688-19.046h241.87c11.336,0,19.678,10.128,16.996,21.25l-19.852,81.746l-10.554,43.676l-5.076,20.977
	c-1.615-0.822-3.284-1.533-4.993-2.126c-2.556,7.575-4.803,15.24-6.169,23.152c-0.277,1.607-2.72,0.922-2.445-0.674
	c1.37-7.94,3.628-15.631,6.195-23.231c-2.039-0.557-4.123-0.947-6.235-1.137c-2.725,13.964-5.586,27.967-6.601,41.982h-2.479
	c1.029-14.062,3.882-28.099,6.597-42.111c-0.173-0.003-0.345-0.013-0.518-0.013c-3.013-0.006-6,0.401-8.896,1.162
	c-0.731,10.002-1.129,20.009-0.193,30.043c0.152,1.627-2.385,1.611-2.535,0c-0.912-9.773-0.558-19.52,0.136-29.261
	c-3.021,1.034-5.917,2.452-8.606,4.196c1.222,12.066,2.835,24.083,5.025,35.984h-2.568c-2.078-11.356-3.637-22.817-4.83-34.325
	c-1.278,0.967-2.497,2.011-3.647,3.123c0.864,2.632,1.734,5.262,2.678,7.867c0.558,1.539-1.893,2.196-2.445,0.674
	c-0.777-2.143-1.501-4.304-2.215-6.467c-0.434,0.485-0.865,0.973-1.274,1.478c3.428,9.115,6.478,18.359,9.395,27.65h-2.625
	c-2.669-8.484-5.46-16.926-8.557-25.262c-0.995,1.443-1.884,2.955-2.663,4.521c1.776,3.352,3.544,6.709,5.171,10.135
	c0.697,1.468-1.49,2.753-2.189,1.28c-1.359-2.862-2.812-5.675-4.284-8.478c-0.329,0.849-0.626,1.711-0.886,2.586
	c2.885,5.02,5.648,10.107,8.367,15.219h-2.864c-2.078-3.893-4.185-7.771-6.357-11.612
	C465.992,474.39,465.841,476.618,465.897,478.839z M435.863,436.969c16.983-14.459,28.448-33.579,32.308-53.909
	c3.86-20.335-0.341-39.471-11.83-53.965l0.016-0.007l-0.714-0.864c-11.767-14.301-29.447-22.195-49.782-22.229l-0.137-0.004
	l-0.142,0.004c-20.314,0.036-40.943,7.907-58.088,22.162l-0.959,0.805l0.005,0.003c-16.983,14.46-28.448,33.579-32.308,53.909
	c-3.863,20.351,0.346,39.497,11.855,53.995l-0.013,0.006l0.687,0.835c11.792,14.341,29.522,22.239,49.923,22.239
	c20.36,0,41.039-7.874,58.227-22.173l0.957-0.804L435.863,436.969z M327.745,436.128c8.018-3.348,16.443-5.98,25.062-7.832
	c-2.086-12.994-1.619-28.35,1.352-44.482H315.77C312.208,403.588,316.454,422.136,327.745,436.128z M394.422,308.479
	c-0.222,0.031-0.442,0.066-0.662,0.101l-1.197,0.186c-0.243,0.04-0.485,0.084-0.728,0.127l-2.979,0.573
	c-0.237,0.05-0.474,0.104-0.71,0.158l-0.486,0.108c-0.218,0.048-0.435,0.096-0.652,0.146c-0.232,0.055-0.464,0.113-0.696,0.171
	l-1.145,0.285c-0.263,0.068-0.524,0.14-0.785,0.212l-1.052,0.287c-0.25,0.07-0.498,0.144-0.746,0.218l-1.087,0.321
	c-0.248,0.076-0.497,0.156-0.746,0.236l-1.078,0.345c-0.277,0.092-0.556,0.188-0.833,0.284l-0.981,0.338
	c-0.257,0.091-0.513,0.186-0.768,0.279l-1.043,0.385c-0.238,0.09-0.475,0.183-0.711,0.275l-1.091,0.429
	c-0.284,0.115-0.567,0.233-0.851,0.353l-0.939,0.393c-0.282,0.121-0.563,0.245-0.845,0.37l-0.937,0.415
	c-0.283,0.128-0.564,0.26-0.846,0.392l-0.925,0.434c-0.251,0.12-0.501,0.243-0.75,0.366l-1.011,0.499
	c-0.246,0.124-0.49,0.251-0.735,0.379l-3.668,1.995c-0.269,0.152-0.534,0.304-0.8,0.459l-6.071,3.861l-0.67,0.462
	c-0.273,0.191-0.545,0.387-0.816,0.582l-0.827,0.594c-0.231,0.169-0.461,0.341-0.69,0.512l-0.22,0.164
	c-0.24,0.179-0.48,0.357-0.719,0.54l-0.771,0.596c-0.281,0.218-0.562,0.436-0.84,0.656l-0.762,0.614
	c6.521,3.171,13.678,5.673,21.293,7.442c7.787-13.963,16.755-23.669,25.602-27.804c-0.056,0.007-0.111,0.014-0.167,0.02
	L394.422,308.479z M357.396,455.603c0.239,0.068,0.481,0.134,0.725,0.199l0.943,0.257c0.239,0.062,0.48,0.12,0.721,0.179
	l0.969,0.235c0.241,0.056,0.483,0.107,0.727,0.159l0.983,0.212c0.262,0.054,0.524,0.103,0.787,0.151l0.944,0.179
	c0.234,0.041,0.472,0.079,0.71,0.117l1.039,0.169c0.26,0.039,0.522,0.073,0.784,0.108l0.984,0.134
	c0.206,0.025,0.411,0.049,0.617,0.07c-7.365-4.104-12.717-13.826-15.24-27.837c-8.337,1.788-16.487,4.313-24.243,7.513
	c0.196,0.23,0.351,0.412,0.508,0.59c0.139,0.157,0.277,0.311,0.416,0.464l0.263,0.29c0.149,0.165,0.298,0.33,0.449,0.492
	c0.155,0.167,0.313,0.33,0.47,0.493l0.689,0.714c0.172,0.173,0.347,0.345,0.521,0.516l0.669,0.653
	c0.179,0.17,0.36,0.338,0.542,0.506l0.186,0.172c0.163,0.152,0.326,0.304,0.492,0.452c0.185,0.166,0.37,0.328,0.557,0.491
	l0.695,0.604c0.189,0.16,0.382,0.318,0.574,0.476l0.202,0.167c0.168,0.139,0.335,0.277,0.506,0.413
	c0.173,0.139,0.346,0.272,0.52,0.406l0.161,0.125c0.258,0.2,0.443,0.346,0.632,0.487c0.204,0.153,0.409,0.304,0.615,0.453
	l0.217,0.158c0.169,0.123,0.337,0.247,0.509,0.368c0.217,0.153,0.437,0.304,0.656,0.454l0.713,0.487
	c0.176,0.117,0.354,0.231,0.532,0.347l0.865,0.556c0.253,0.157,0.511,0.313,0.769,0.467l0.655,0.395
	c0.203,0.119,0.408,0.235,0.613,0.351l2.317,1.257c0.222,0.114,0.447,0.225,0.672,0.335l0.828,0.407
	c0.228,0.108,0.454,0.212,0.682,0.316l0.851,0.389c0.218,0.097,0.439,0.19,0.66,0.284l0.892,0.378
	c0.224,0.092,0.45,0.181,0.676,0.269l0.903,0.354c0.233,0.088,0.469,0.173,0.704,0.258l0.897,0.324
	c0.254,0.088,0.513,0.172,0.77,0.257l0.349,0.115c0.168,0.057,0.336,0.113,0.506,0.167c0.242,0.077,0.486,0.149,0.729,0.223
	L357.396,455.603z M507.637,483.8h2.642c0.58-1.907,1.185-3.804,1.809-5.694l5.399-22.31c-0.701,1.786-1.404,3.572-2.073,5.371
	C512.671,468.547,509.946,476.111,507.637,483.8z M387.152,457.569c0.282-0.035,0.563-0.07,0.844-0.11l2.837-0.459
	c0.294-0.051,0.587-0.102,0.88-0.157l4.656-1.021c0.298-0.073,0.598-0.146,0.895-0.224l2.769-0.771
	c0.302-0.088,0.604-0.176,0.905-0.269l1.021-0.324c0.269-0.085,0.537-0.17,0.806-0.258l0.76-0.261
	c0.355-0.12,0.707-0.239,1.059-0.364l0.941-0.344c0.29-0.105,0.58-0.211,0.868-0.321l0.942-0.366
	c0.286-0.111,0.573-0.224,0.859-0.339l0.917-0.38c0.292-0.121,0.584-0.242,0.875-0.366l0.917-0.403
	c0.287-0.126,0.575-0.253,0.862-0.383l1.024-0.477c0.249-0.115,0.498-0.23,0.746-0.35l0.957-0.469
	c0.268-0.132,0.536-0.264,0.803-0.398l4.434-2.394c0.255-0.146,0.51-0.29,0.763-0.439l0.957-0.57
	c0.249-0.148,0.498-0.298,0.746-0.45l5.927-3.94c0.244-0.174,0.488-0.349,0.73-0.526c0.216-0.157,0.429-0.316,0.642-0.476
	l0.98-0.734c0.267-0.204,0.532-0.411,0.799-0.619c0.27-0.208,0.537-0.416,0.803-0.628h0.001l0.773-0.624
	c-6.519-3.17-13.675-5.672-21.289-7.441c-7.791,13.97-16.764,23.679-25.614,27.811c0.062-0.007,0.123-0.014,0.186-0.021
	L387.152,457.569z M426.218,383.813h-70.353c-2.971,16.038-3.454,31.276-1.401,44.136c9.459-1.931,19.099-2.909,28.659-2.909
	c9.603,0,18.907,0.986,27.664,2.934C417.751,415.111,423.079,399.863,426.218,383.813z"></path>
<path id="color_x5F_1" fill="#0984E3" d="M137.862,357.051c-7.854-19.86-11.973-41.224-11.973-63.223
	c0-32.04,8.725-62.735,25.032-89.39c0.163,0.113,0.332,0.218,0.509,0.316c-15.879,25.968-25.041,56.47-25.041,89.074
	c0,22.251,4.269,43.523,12.026,63.044C138.224,356.924,138.04,356.984,137.862,357.051z M297.638,122.579
	c67.001,0,125.127,38.683,153.247,94.883c0.18-0.088,0.369-0.166,0.563-0.238c-8.179-16.383-19.039-31.515-32.364-44.841
	c-32.439-32.439-75.569-50.304-121.445-50.304s-89.006,17.865-121.445,50.304c-6.394,6.394-12.213,13.21-17.45,20.374
	c0.166,0.116,0.324,0.239,0.475,0.368C190.387,150.4,240.821,122.579,297.638,122.579z M229.092,450.728
	c-8.941-3.922-17.487-8.581-25.556-13.909c-0.065,0.203-0.131,0.406-0.196,0.61c8.153,5.376,16.714,10.024,25.605,13.903
	L229.092,450.728z M144.092,369.594c-0.169,0.106-0.347,0.202-0.53,0.293c8.209,16.592,19.158,31.913,32.631,45.385
	c4.176,4.176,8.532,8.106,13.045,11.791c0.085-0.189,0.178-0.373,0.265-0.562C170.595,411.06,155.03,391.67,144.092,369.594z
	 M457.187,230.036c-0.172,0.087-0.35,0.167-0.534,0.24c5.041,12.569,8.628,25.871,10.566,39.694h0.523
	C465.835,256.188,462.287,242.798,457.187,230.036z M87.563,469.55c-0.431,2.416-0.596,4.859-0.534,7.295
	c1.939,3.903,4.312,7.627,6.173,11.549c0.178,0.374,0.345,0.754,0.521,1.129l3.038-3.038
	C93.761,480.803,90.725,475.142,87.563,469.55z M103.355,444.637c-1.402,1.06-2.738,2.206-4.001,3.426
	c0.948,2.887,1.902,5.772,2.938,8.63c0.612,1.688-2.076,2.409-2.682,0.739c-0.852-2.35-1.646-4.721-2.43-7.094
	c-0.476,0.532-0.949,1.067-1.398,1.621c4.044,10.753,7.607,21.67,11.025,32.639h2.269
	C106.58,471.387,104.745,458.04,103.355,444.637z M93.822,454.578c-1.091,1.583-2.067,3.241-2.921,4.959
	c1.948,3.677,3.887,7.359,5.672,11.117c0.765,1.61-1.634,3.019-2.401,1.404c-1.491-3.139-3.085-6.225-4.699-9.3
	c-0.361,0.931-0.687,1.877-0.972,2.836c3.599,6.262,7.022,12.62,10.399,19.003h5.029C100.782,474.514,97.501,464.477,93.822,454.578
	z M128.568,436.096c-0.19-0.003-0.379-0.014-0.568-0.015c-3.305-0.007-6.581,0.44-9.758,1.274
	c-0.801,10.971-1.239,21.948-0.212,32.954c0.166,1.784-2.616,1.767-2.781,0c-1-10.719-0.612-21.411,0.149-32.096
	c-3.314,1.134-6.49,2.69-9.439,4.603c1.419,14.016,3.309,27.973,5.934,41.78h9.285C122.146,468.4,125.442,452.233,128.568,436.096z
	 M149.019,482.704c3.068-7.977,6.122-16.009,9.876-23.694c0.897-1.836,1.821-3.673,2.729-5.521
	c-0.427-0.562-0.867-1.113-1.321-1.654c-1.254,2.348-2.486,4.708-3.678,7.091c-4.099,8.192-7.82,16.552-11.542,24.919
	c-0.11,0.248-0.231,0.504-0.343,0.754h3.566C148.545,483.967,148.777,483.333,149.019,482.704z M141.343,457.462
	c2.006-5.397,4.147-10.739,6.412-16.026c-2.228-1.249-4.565-2.29-6.97-3.125c-2.804,8.309-5.269,16.716-6.767,25.395
	c-0.304,1.763-2.984,1.011-2.682-0.739c1.503-8.709,3.98-17.145,6.795-25.482c-2.237-0.611-4.523-1.039-6.839-1.247
	c-3.139,16.084-6.444,32.215-7.394,48.359h8.235C134.802,475.367,138.06,466.294,141.343,457.462z M142.19,483.538
	c4.159-9.288,8.264-18.587,12.865-27.669c1.061-2.095,2.166-4.164,3.284-6.226c-0.618-0.646-1.256-1.272-1.911-1.88
	c-2.011,3.245-4.025,6.488-6.163,9.652c-0.998,1.476-3.406,0.083-2.401-1.404c2.235-3.308,4.337-6.7,6.439-10.093
	c-1.329-1.087-2.717-2.102-4.158-3.032c-2.159,5.054-4.203,10.158-6.12,15.316c-3.192,8.589-6.376,17.415-9.005,26.396h6.687
	C141.865,484.246,142.034,483.887,142.19,483.538z M170.054,478.764c0.048-3.29-0.283-6.586-1.039-9.813
	c-0.035-0.148-0.078-0.293-0.114-0.441c-3.978,4.538-7.426,9.414-9.432,15.069c-0.595,1.678-3.281,0.951-2.682-0.739
	c2.351-6.626,6.516-12.197,11.226-17.392c-1.113-3.305-2.662-6.45-4.566-9.37c-4.113,8.371-7.69,16.892-11.062,25.591
	c-0.378,0.974-0.739,1.954-1.111,2.93h13.639C166.618,482.635,168.337,480.691,170.054,478.764z M466.384,472.188
	c-0.393,2.202-0.544,4.43-0.487,6.651c0.834,1.678,1.757,3.32,2.676,4.961c0.15,0.268,0.296,0.538,0.446,0.807
	c0.876,1.572,1.741,3.147,2.506,4.761c1.576,3.321,3.077,6.676,4.538,10.049h4.911c-0.502-0.954-1.009-1.905-1.51-2.859
	c-2.09-3.988-4.176-7.977-6.291-11.951c-0.143-0.269-0.288-0.538-0.432-0.807C470.663,479.907,468.557,476.029,466.384,472.188z
	 M480.781,449.476c-1.278,0.967-2.497,2.011-3.647,3.123c0.864,2.632,1.734,5.262,2.678,7.867c0.558,1.539-1.893,2.196-2.445,0.674
	c-0.777-2.143-1.501-4.304-2.215-6.467c-0.434,0.485-0.865,0.973-1.274,1.478c3.428,9.115,6.478,18.359,9.395,27.65
	c0.084,0.269,0.167,0.538,0.251,0.807c1.543,4.928,3.052,9.868,4.558,14.81h0.742c-1.138-4.911-2.146-9.852-3.064-14.81
	c-0.05-0.269-0.099-0.538-0.148-0.807C483.534,472.444,481.974,460.983,480.781,449.476z M472.09,458.539
	c-0.995,1.443-1.884,2.955-2.663,4.521c1.776,3.352,3.544,6.709,5.171,10.135c0.697,1.468-1.49,2.753-2.189,1.28
	c-1.359-2.862-2.812-5.675-4.284-8.478c-0.329,0.849-0.626,1.711-0.886,2.586c2.885,5.02,5.648,10.107,8.367,15.219
	c0.143,0.268,0.284,0.538,0.427,0.807c2.155,4.06,4.287,8.132,6.424,12.202c0.458,0.872,0.929,1.737,1.391,2.608h1.609
	c-1.503-4.942-3.01-9.883-4.555-14.81c-0.084-0.269-0.168-0.538-0.253-0.807C477.979,475.316,475.188,466.874,472.09,458.539z
	 M503.768,441.689c-0.173-0.003-0.345-0.013-0.518-0.013c-3.013-0.006-6,0.401-8.896,1.162c-0.731,10.002-1.129,20.009-0.193,30.043
	c0.152,1.627-2.385,1.611-2.535,0c-0.912-9.773-0.558-19.52,0.136-29.261c-3.021,1.034-5.917,2.452-8.606,4.196
	c1.222,12.066,2.835,24.083,5.025,35.984c0.049,0.269,0.098,0.538,0.148,0.807c0.924,4.958,1.938,9.898,3.084,14.81h5.461
	c-0.21-4.94-0.101-9.876,0.235-14.81c0.018-0.269,0.042-0.538,0.062-0.807C498.199,469.738,501.052,455.702,503.768,441.689z
	 M529.345,462.502c-3.737,7.469-7.129,15.09-10.523,22.718c-2.01,4.518-4.359,9.286-6.488,14.198h4.436
	c1.823-5.1,3.696-10.181,5.64-15.237c2.797-7.273,5.582-14.595,9.003-21.602c0.817-1.674,1.66-3.349,2.487-5.033
	c-0.389-0.512-0.791-1.015-1.204-1.508C531.555,458.177,530.432,460.329,529.345,462.502z M515.413,461.168
	c0.669-1.8,1.372-3.585,2.073-5.371c1.216-3.097,2.463-6.182,3.772-9.239c-0.449-0.251-0.904-0.49-1.362-0.723
	c-1.615-0.822-3.284-1.533-4.993-2.126c-2.556,7.575-4.803,15.24-6.169,23.152c-0.277,1.607-2.72,0.922-2.445-0.674
	c1.37-7.94,3.628-15.631,6.195-23.231c-2.039-0.557-4.123-0.947-6.235-1.137c-2.725,13.964-5.586,27.967-6.601,41.982
	c-0.019,0.269-0.043,0.538-0.061,0.807c-0.332,4.936-0.434,9.873-0.209,14.81h4.301c0.988-4.979,2.261-9.92,3.709-14.81
	c0.08-0.27,0.167-0.537,0.248-0.807C509.946,476.111,512.671,468.547,515.413,461.168z M517.858,461.842
	c-1.98,5.328-3.952,10.76-5.77,16.265c-0.624,1.89-1.229,3.787-1.809,5.694c-0.082,0.269-0.169,0.537-0.249,0.807
	c-1.466,4.89-2.761,9.831-3.766,14.81h3.349c2.13-5.004,4.508-9.864,6.574-14.476c0.05-0.111,0.1-0.222,0.149-0.334
	c0.925-2.067,1.849-4.135,2.777-6.2c2.822-6.283,5.687-12.542,8.803-18.691c0.968-1.91,1.975-3.796,2.994-5.676
	c-0.563-0.589-1.145-1.16-1.742-1.714c-1.833,2.958-3.67,5.915-5.619,8.799c-0.089,0.132-0.194,0.233-0.304,0.317
	c-1.01,0.772-2.711-0.374-1.885-1.596c1.254-1.855,2.457-3.743,3.647-5.639c0.744-1.186,1.486-2.373,2.224-3.563
	c-0.372-0.304-0.759-0.591-1.141-0.882c-0.862-0.658-1.739-1.295-2.649-1.882C521.469,452.486,519.606,457.14,517.858,461.842z
	 M525.481,483.236c-2.009,5.182-3.939,10.394-5.818,15.624c-0.029,0.08-0.058,0.159-0.087,0.238
	c-0.038,0.107-0.078,0.213-0.116,0.319h6.63c0.076-0.107,0.156-0.212,0.233-0.319c4.645-6.48,9.974-12.573,15.265-18.509
	c0.044-3-0.258-6.004-0.947-8.946c-0.032-0.135-0.071-0.267-0.104-0.402c-3.627,4.137-6.77,8.583-8.599,13.738
	c-0.313,0.881-1.256,1.032-1.897,0.709c-0.471-0.237-0.78-0.73-0.548-1.383c0.455-1.282,0.998-2.512,1.591-3.713
	c2.201-4.459,5.261-8.412,8.644-12.143c-0.934-2.772-2.217-5.412-3.766-7.892c-0.135-0.216-0.258-0.438-0.397-0.651
	C531.816,467.537,528.556,475.305,525.481,483.236z M231.92,348.356c-0.006-0.261-0.009-0.521-0.015-0.782
	c-0.09-4.004-0.117-8.002-0.072-11.992c0.145-12.719,1.032-25.364,2.954-37.902c1.475,0.123,2.954,0.213,4.441,0.26
	c0.402-6.479,0.813-13.229,1.15-18.453c0.206-3.196-1.318-6.095-3.762-7.806c-1.701-1.908-3.788-3.765-6.111-5.356l-1.461,5.727
	l-1.535-0.392c-2.455-3.697-5.311-7.086-8.9-9.582l0.097-0.381c-3.754-0.348-7.498,0.503-10.816,3.139
	c-0.276,0.167-0.546,0.347-0.807,0.548l-13.795,10.558c2.904,5.104,5.89,9.959,9.435,14.513c-3.129,2.287-6.177,4.511-8.846,6.448
	c-2.914,16.203-1.612,32.755-0.07,50.738c0.527,0.372,1.096,0.721,1.69,1.054C205.731,354.429,225.216,354.289,231.92,348.356z"></path>
</svg>