<?xml version="1.0" standalone="no"?>
<!DOCTYPE svg PUBLIC "-//W3C//DTD SVG 20010904//EN"
 "http://www.w3.org/TR/2001/REC-SVG-20010904/DTD/svg10.dtd">
<svg version="1.0" xmlns="http://www.w3.org/2000/svg"
 width="1024.000000pt" height="1024.000000pt" viewBox="0 0 1024.000000 1024.000000"
 preserveAspectRatio="xMidYMid meet">
<metadata>
Created by potrace 1.14, written by Peter Selinger 2001-2017
</metadata>
<g transform="translate(0.000000,1024.000000) scale(0.100000,-0.100000)"
fill="#000000" stroke="none">
<path d="M0 5120 l0 -5120 4720 0 4720 0 0 80 0 80 320 0 320 0 0 -80 0 -80
80 0 80 0 0 5120 0 5120 -5120 0 -5120 0 0 -5120z m7710 3270 l0 -70 35 -1
c19 -1 44 -3 55 -4 11 -1 31 -3 45 -4 24 -1 25 -3 25 -81 l0 -80 59 0 58 0 13
-62 c14 -65 16 -536 4 -626 -7 -47 -25 -62 -73 -62 -29 0 -31 -2 -31 -39 0
-38 -1 -39 -44 -45 l-44 -7 -8 -57 -9 -57 -57 -3 -58 -3 0 -64 0 -65 -382 0
c-211 0 -393 3 -405 6 -19 5 -22 14 -25 63 -3 54 -4 56 -33 59 -40 5 -65 29
-65 63 0 27 -2 28 -57 31 l-58 3 -5 60 -5 60 -57 3 -58 3 0 359 0 360 54 0
c51 0 54 1 66 33 28 75 28 76 62 79 30 3 33 6 36 40 3 39 6 41 75 53 l37 6 0
59 0 60 425 0 425 0 0 -70z m-2640 -2185 l0 -75 168 -2 167 -3 3 -107 3 -108
84 0 84 0 3 -82 3 -83 83 -3 83 -3 -3 -447 c-1 -246 -4 -480 -6 -519 l-4 -73
-74 0 -74 0 0 -80 0 -80 -94 0 -95 0 5 -197 5 -198 92 -5 c51 -3 91 -8 90 -12
-2 -5 -3 -44 -3 -88 l0 -79 73 -3 72 -3 0 -360 0 -359 -165 2 -165 2 -7 37
c-4 21 -7 73 -7 116 l-1 77 -67 1 c-38 1 -102 3 -143 4 -41 2 -180 6 -307 10
l-233 6 0 -250 0 -251 188 0 c103 0 394 -3 648 -7 l461 -6 6 24 c4 13 7 61 7
107 l0 82 134 0 134 0 7 -68 c4 -37 6 -72 5 -77 -10 -47 -20 -45 305 -45 l304
0 3 98 3 97 178 3 177 2 0 120 0 120 -247 2 -248 3 -3 38 -3 37 -78 0 -78 0
-6 203 c-4 111 -7 397 -7 635 l0 432 868 -2 867 -3 3 -662 2 -663 -287 -2
-288 -3 -3 -127 -3 -127 148 -3 148 -3 3 -97 3 -98 289 0 289 0 3 -87 3 -88
113 -3 112 -3 0 -79 0 -80 85 0 85 0 0 -74 c0 -40 3 -94 6 -120 l7 -46 107 0
107 0 7 -98 c4 -53 9 -122 12 -152 l6 -56 -3873 -3 c-2131 -1 -4022 1 -4202 5
l-328 7 3 51 3 51 117 3 117 3 3 97 3 97 108 3 107 3 0 104 0 105 95 0 95 0 1
28 c0 15 0 57 -1 95 -1 58 1 67 17 68 10 0 63 2 118 4 55 2 106 4 113 4 8 1
12 24 12 81 l0 80 485 0 c379 0 487 3 490 13 3 6 6 457 8 1002 l2 990 63 3 62
3 0 99 0 100 290 0 290 0 1 138 c1 75 0 237 -1 359 l-2 222 134 3 133 3 3 173
2 172 690 0 690 0 0 -75z m824 -2422 c3 -21 6 -50 6 -65 l0 -28 -75 0 c-41 0
-75 3 -75 7 0 3 12 26 26 50 14 25 23 51 20 59 -4 11 5 14 43 14 48 0 48 0 55
-37z"/>
<path d="M4300 5856 c0 -109 3 -106 -101 -106 l-89 0 0 -125 0 -125 90 0 90 0
2 -142 c1 -79 2 -210 2 -293 l1 -150 -97 -3 -98 -3 0 291 0 290 -109 0 -108 0
-8 -239 c-4 -131 -4 -289 0 -350 l8 -111 108 0 109 0 0 -55 0 -55 95 0 95 0 0
-55 0 -55 520 0 519 0 15 28 c7 15 22 56 31 92 10 36 22 71 28 78 6 7 34 12
73 12 l64 0 2 278 c1 152 2 372 2 487 l1 210 -72 3 -73 3 0 -171 c0 -194 14
-171 -105 -174 l-60 -1 -5 159 c-3 87 -2 163 2 169 3 6 23 10 45 9 21 -1 46 1
55 4 19 6 42 92 36 139 l-3 30 -532 3 -533 2 0 -74z m365 -196 l0 -95 -117 -3
-118 -3 0 94 c0 52 3 97 7 101 4 3 57 5 117 4 l111 -3 0 -95z"/>
<path d="M3420 4370 l0 -200 120 0 120 0 0 90 0 90 119 0 118 0 7 -80 c4 -44
5 -84 1 -90 -4 -6 28 -10 91 -10 l97 0 -6 98 c-4 53 -7 134 -7 180 l0 82 -60
0 c-53 0 -60 2 -60 20 0 20 -6 20 -270 20 l-270 -1 0 -199z"/>
<path d="M6753 4348 c4 -116 7 -316 7 -445 l0 -233 630 0 630 0 0 445 0 445
-637 0 -636 0 6 -212z m363 162 c8 0 26 -11 39 -25 20 -19 25 -34 25 -77 0
-60 -16 -90 -60 -113 -80 -42 -150 10 -150 110 0 39 5 52 30 75 30 28 63 41
88 34 8 -2 20 -4 28 -4z m691 -350 c38 -36 48 -66 38 -116 -10 -54 -45 -84
-98 -84 -52 0 -75 -20 -84 -73 l-5 -36 -29 15 c-42 21 -37 50 16 100 51 47 69
91 54 130 -32 85 41 127 108 64z m-639 -267 l-3 -68 -102 -3 -103 -3 0 71 0
70 105 0 106 0 -3 -67z"/>
<path d="M3330 4130 l0 -30 -70 0 -70 0 0 -545 0 -545 115 0 115 0 0 575 0
575 -45 0 c-43 0 -45 -1 -45 -30z"/>
<path d="M4685 4118 c-49 -17 -63 -37 -70 -93 -9 -67 20 -140 60 -155 63 -24
134 0 156 52 12 29 29 38 29 14 0 -26 41 -65 74 -71 45 -9 109 24 126 64 20
49 15 141 -10 165 -29 29 -165 30 -186 2 -12 -17 -14 -17 -41 2 -35 25 -99 34
-138 20z"/>
</g>
</svg>
